<svg xmlns="http://www.w3.org/2000/svg" viewBox="0 0 1000 1000"><defs><style>.cls-1,.cls-2{fill:#b3b3b3;stroke:#b3b3b3;}.cls-1,.cls-2,.cls-3,.cls-5{stroke-miterlimit:10;}.cls-1,.cls-3{stroke-width:4px;}.cls-2{stroke-width:6px;}.cls-3,.cls-4,.cls-5{fill:gray;}.cls-3,.cls-5{stroke:gray;}</style></defs><title>byth-greyscale</title><g id="byth-greyscale"><path class="cls-1" d="M489.83,534.93a19.12,19.12,0,0,1-2.35,9.61,20.38,20.38,0,0,1-6.33,6.85A31,31,0,0,1,470.81,556a61.58,61.58,0,0,1-14.31,1.38H423.11V484h29.47a116.65,116.65,0,0,1,13.92.62,29.37,29.37,0,0,1,8.88,2.59,15.34,15.34,0,0,1,6.69,5.67,15.14,15.14,0,0,1,2.21,8.18,15.82,15.82,0,0,1-3.05,9.56,17.63,17.63,0,0,1-8.43,6.16v.39A23.8,23.8,0,0,1,485.18,523Q489.83,527.44,489.83,534.93ZM463,504.77a7.52,7.52,0,0,0-1-3.65,6,6,0,0,0-3.22-2.71,14.88,14.88,0,0,0-4.9-.86c-1.89,0-1.7-.07-5.43-.07h-1.46V513h2.63c3.59,0,3.1,0,4.53-.1a13.38,13.38,0,0,0,4.45-1A6.46,6.46,0,0,0,462,509,9,9,0,0,0,463,504.77Zm.27,29.82a8.2,8.2,0,0,0-1.57-5.32,8.05,8.05,0,0,0-3.8-3,6.6,6.6,0,0,0-3.52-.65c-2.44-.05.18,0-3.55,0h-3.87v17.38h1.12c5.45,0,3.26,0,5.35,0,2.25,0,2.12.2,4.35-.45a7.21,7.21,0,0,0,4.17-3.18A8.76,8.76,0,0,0,463.26,534.58Z"/><path class="cls-2" d="M557.69,485,533.34,526v30.46H515.63V526.92l-24.77-42H511l13.83,25.2L538.17,485Z"/><path class="cls-2" d="M435.18,632.45V583.37H420.34V560.92h54.39v22.45H457.89v49.07Z"/><path class="cls-2" d="M549.86,632.45H530.15V606.19H506v26.26H486.32V560.92H506v25.81h24.11V560.92h19.71Z"/><path class="cls-2" d="M562.75,632.45V561.92h46.69v15.45H584.37v11.36h21.71v15.45H584.37V616h25.08v16.45Z"/><path class="cls-2" d="M502.52,707.59l26.82-71.52h21.32l27.82,71.52H555.26l-4.4-12.4H528.69l-4.4,12.4ZM549,680.4l-9.2-30.25-9.2,30.25Z"/><path class="cls-2" d="M660.58,707.54H639.53l-30.19-49.16v49.16h-19.2V636h20.74l28.5,41.4V636h21.2Z"/><path class="cls-2" d="M736.81,671.94a35.84,35.84,0,0,1-4.31,17.64,32.23,32.23,0,0,1-10.89,12,30.54,30.54,0,0,1-12,4.57,88.36,88.36,0,0,1-13.76,1H673.82V636.61H695.7a96.48,96.48,0,0,1,13.92.95,30.48,30.48,0,0,1,12.17,4.59,31.62,31.62,0,0,1,11,12A37.29,37.29,0,0,1,736.81,671.94Zm-19.19-.14c0-4.64-.07-4.63-1.39-7.91s-4.21-5.73-7.37-7.74a15.17,15.17,0,0,0-7.55-2.18c-2.64-.12-3.79-.19-7.45-.19h-.33v37.14h.33c4,0,5.33-.07,8.06-.21a16,16,0,0,0,7.79-2.53,17.61,17.61,0,0,0,6.63-7.58C717.87,677.37,717.62,676.44,717.62,671.8Z"/><path class="cls-3" d="M470.73,802.47h-21.6v13.31h19.23v14.45H449.13v27.31H426.51V787h44.22Z"/><path class="cls-3" d="M635.38,857.54h-24.6l-12.66-24.86h-5.35v24.86H572.16V787h28.37a62.39,62.39,0,0,1,10.23.73,21.81,21.81,0,0,1,8.05,3.06,18.44,18.44,0,0,1,6,6.13,18.17,18.17,0,0,1,2.23,9.45q0,8.1-3.65,13.14a25.69,25.69,0,0,1-9.76,8Zm-26.68-48.76a9.45,9.45,0,0,0-1.33-4.51c-.68-1.28-1.33-1.49-2.91-2.19a8.75,8.75,0,0,0-3.12-.79,14.39,14.39,0,0,0-2.65-.13h-5.92V819h5.07a13.67,13.67,0,0,0,3.79-.24,7.83,7.83,0,0,0,3.87-2.13,8.29,8.29,0,0,0,2.53-3.17A11.35,11.35,0,0,0,608.69,808.78Z"/><path class="cls-4" d="M496.3,935.15h-27L451.1,903.58v4.86l0,26.71H424.52V859.39H451.1l0,28.54,16.22-28.35H495l-22.59,35.78Z"/><path class="cls-4" d="M506.14,935.15V859.39h27.27v75.75Z"/><path class="cls-4" d="M650.65,882.82a8.41,8.41,0,0,0,5.16,3.69c1.74.33,8.17,2,11,3.08q7.34,2.65,10.92,7.13t3.58,11.82c0,7-2.76,14.65-8.26,18.91s-17,7.39-26.33,7.39a66.77,66.77,0,0,1-15.23-1.56c-4.09-1-8.89-3.34-12.39-4.88l8-19.77h1.61a22.61,22.61,0,0,0,10,6.07,22.36,22.36,0,0,0,8.58.76,7.92,7.92,0,0,0,4.7-1.12,5.54,5.54,0,0,0,1.28-3.81,7.71,7.71,0,0,0-2.56-3.26,15.46,15.46,0,0,0-5.5-2.47l-8.35-1.88a24.94,24.94,0,0,1-11.75-8.77c-2.37-3.25-3.55-9.33-3.55-14.22q0-9.9,8.38-16t20.93-6.13A62.07,62.07,0,0,1,663.39,859c4.15.85,11.87,4,15.15,5.46l-6,14.1-1.23,4c-2.21-.88-4.72-2.75-7.51-3.52a71.09,71.09,0,0,0-7.66-1.65,4.74,4.74,0,0,0-5.15,2A4.51,4.51,0,0,0,650.65,882.82Z"/><path class="cls-2" d="M489.33,707.65H469.62V681.39H445.51v26.26H425.8V636.13h19.71v25.81h24.11V636.13h19.71Z"/><polygon class="cls-4" points="513.48 711.32 492.77 711.32 492.77 781.84 535.85 781.84 535.85 763.39 513.48 763.39 513.48 711.32"/><path class="cls-4" d="M591.52,748.35q0,7.48-2.87,10.87c-1.91,2.26-3.92,3.76-8,3.39s-5.18-1.18-7-3.53-2.77-5.93-2.77-10.73v-36.3H550.18v44.19q0,13,7.65,19.7c5.1,4.49,13.39,6.74,22.86,6.74,9.76,0,19.12-2.29,24.09-6.85s7.46-11.11,7.46-19.63V712.05H591.52Z"/><path class="cls-4" d="M679.75,749.16a19.23,19.23,0,0,0-10.47-5.61v-.38a15.19,15.19,0,0,0,7.13-5.92,16.66,16.66,0,0,0,2.58-9.19,16.08,16.08,0,0,0-1.87-7.86,13.59,13.59,0,0,0-5.66-5.45,22.63,22.63,0,0,0-7.51-2.49,86.88,86.88,0,0,0-11.77-.59H627.27V782.2H655.5a46.05,46.05,0,0,0,12.1-1.33,24.8,24.8,0,0,0,8.74-4.45,18.86,18.86,0,0,0,5.35-6.58,20.4,20.4,0,0,0,2-9.24Q683.68,753.4,679.75,749.16ZM644.89,724.6h1.23q4.74,0,7.13.07a11.24,11.24,0,0,1,4.14.83,5.29,5.29,0,0,1,2.72,2.6,8,8,0,0,1,.88,3.5,9.67,9.67,0,0,1-.81,4.07,5.7,5.7,0,0,1-2.94,2.75,10.19,10.19,0,0,1-3.77,1q-1.82.1-6.37.1h-2.23Zm19.44,40.24a7.05,7.05,0,0,1-3.53,3.05,14.92,14.92,0,0,1-5.4,1.28q-2.65.1-9.57.1h-.95V751.6h3.27q4.74,0,7.55.07a13.76,13.76,0,0,1,4.43.69,8.06,8.06,0,0,1,4,2.79,8.64,8.64,0,0,1,1.33,5.12A9.29,9.29,0,0,1,664.33,764.84Z"/><path class="cls-4" d="M465.1,761.17c-8.78,0-15.9-6.44-15.9-14.39s7.12-14.39,15.9-14.39a16.58,16.58,0,0,1,12,5h1.28V711.57a33.59,33.59,0,0,0-4.59-2.13,18.45,18.45,0,0,0-5.26-.94c-2.13-.19-3.92-.24-6.44-.33-2.26-.08-5.06.06-7.89.19-10.57.48-18.68,5.66-24.91,12.3S420,736.23,420,747.41q0,17.38,9.33,27t25.2,9.59a47.31,47.31,0,0,0,8-.52,56.87,56.87,0,0,0,6.2-1.52,41,41,0,0,0,5.26-2l4.5-2.06V756.33H477A16.6,16.6,0,0,1,465.1,761.17Z"/><path class="cls-4" d="M522.84,784c-22.44,0-40.63,17-40.63,37.9s18.19,37.9,40.63,37.9,40.63-17,40.63-37.9S545.28,784,522.84,784Zm0,52.2c-8.47,0-15.33-6.4-15.33-14.3s6.87-14.3,15.33-14.3,15.33,6.4,15.33,14.3S531.31,836.16,522.84,836.16Z"/><path class="cls-4" d="M585.23,858.91H547.07v76.23h38.16c18.38,0,33.27-17.07,33.27-38.12S603.61,858.91,585.23,858.91Zm-11.92,53.48V880.81c9.36,0,17,7.07,17,15.79S582.67,912.39,573.31,912.39Z"/><path class="cls-5" d="M528.25,109.2a18.76,18.76,0,0,0-13.37-18.06,19.41,19.41,0,0,0-4.79-.74,18.23,18.23,0,0,0-9.51,2.4,18.54,18.54,0,0,0-9,13.54c-1.59,11-3,20.31-4.08,27.5-.76,5-2.35,15.28-4.79,28.34a171.47,171.47,0,0,1-5.4,22.26c-.63,2-1.25,3.76-1.81,5.32a18.89,18.89,0,0,1-5.21,7.74A32.67,32.67,0,0,1,449,206c-15.73.2-24.94-11.21-26-12.51L297,48.18a16.83,16.83,0,0,0-2.66-2.53,19,19,0,0,0-30.5,13.4,18.42,18.42,0,0,0,3.76,12.82l82.12,109.31c3.45,4.34,3.5,8.86,1.87,10.1-1.46,1.11-5,.11-8-2.76L228.87,69.81a17.84,17.84,0,0,0-5.41-3.91A19.34,19.34,0,0,0,197.41,91a17.36,17.36,0,0,0,3.19,5l113,127.18c3.23,3.5,2.49,8.41-.13,10.15-1.92,1.28-5,.95-7.39-1L199.47,136.2a17.21,17.21,0,0,0-2.91-2.16c-7.44-4.29-16.65-3.25-22.17,2.14-7.1,6.94-6.93,20,1.82,27.55L279.67,266.65c.35.35.69.72,1,1.09,5.37,6.24,9.56,10.95,8.2,13s-7.82,1.38-15.34-2.6c-.49-.26-1-.55-1.44-.85l-60-39.13A15.71,15.71,0,0,0,192.17,262a16.18,16.18,0,0,0,2.53,2.33c34.25,26.17,67.51,51.86,100.78,77.54.85-1.27,1.7-2.44,2-3.07A342.41,342.41,0,0,0,319.2,288c3.16-9.55,8.08-26,17.57-48.81,2-4.8,3.74-8.8,5-11.65a4.84,4.84,0,0,1,1.37-1.82A9,9,0,0,1,357.38,236l-12.91,31.33a4.64,4.64,0,0,0-.32,2.69,4.36,4.36,0,0,0,2.82,3.28,4.43,4.43,0,0,0,4.77-1.52l34.27-54a10.6,10.6,0,1,1,18.22,10.85L375,279.13a4.54,4.54,0,0,0,.61,5.66,4.59,4.59,0,0,0,6.54-.67l46.42-61a11.3,11.3,0,1,1,18.44,13L406.24,296c-2.19,2.5-1.73,5.64-.32,6.56,1.21.79,3.6.27,5.26-1.7l40.13-48.16c4.28-5.29,12-5.86,16.53-1.87a11.6,11.6,0,0,1,1.91,14.67l-33.5,47c-.9,1.27-1.38,4.79-1.38,6.35a36.76,36.76,0,0,0,1,8.15,12.49,12.49,0,0,0,1,3.68,12.23,12.23,0,0,0,2.21,3,11.44,11.44,0,0,0,9.18,3.6l24-1.05a4.66,4.66,0,0,1,1.41.13,11.53,11.53,0,0,1,.82,22.18,4.78,4.78,0,0,1-1.34.25c-15.24.86-28.4,2.2-39,3.52-15.71,2-27.7,4.12-34.82,5.41-10.45,1.9-19.41,3.77-26.44,5.33-.23.05-.46.06-.69.11a34.27,34.27,0,0,0-12.86,5.62,29.38,29.38,0,0,0-4.32,4c-.82.91-1.74,2-2.68,2.91q21.36,16.43,43.1,33.06a35.88,35.88,0,0,0,19.32,7.92,36.62,36.62,0,0,0,24.79-7.26,18.32,18.32,0,0,0,1.45-1.22l76.2-70.44a32.69,32.69,0,0,0,4.29-5.85,52.23,52.23,0,0,0,7-18.85,53.46,53.46,0,0,0,.68-6.64Z"/></g></svg>