<svg xmlns="http://www.w3.org/2000/svg" viewBox="0 0 500 500"><defs><style>.cls-1,.cls-17,.cls-6{fill:#fff;}.cls-2{fill:#afafaf;}.cls-3{fill:#23b239;}.cls-4{fill:#ff6057;}.cls-5{fill:#f7bb2b;}.cls-6{stroke:#afafaf;}.cls-10,.cls-11,.cls-12,.cls-13,.cls-15,.cls-17,.cls-18,.cls-19,.cls-20,.cls-21,.cls-23,.cls-24,.cls-25,.cls-26,.cls-28,.cls-29,.cls-30,.cls-31,.cls-6,.cls-8{stroke-miterlimit:10;}.cls-30,.cls-7{fill:#3fa9f5;}.cls-15,.cls-16,.cls-8{fill:#f7931e;}.cls-10,.cls-19,.cls-20,.cls-30,.cls-31,.cls-8{stroke:#fff;}.cls-10,.cls-17,.cls-18,.cls-19,.cls-30,.cls-31,.cls-8{stroke-width:0.5px;}.cls-10,.cls-9{fill:#ff931e;}.cls-11,.cls-25,.cls-27{fill:#666;}.cls-11,.cls-13,.cls-23,.cls-25{stroke:#666;}.cls-11,.cls-13,.cls-21,.cls-23,.cls-26,.cls-28,.cls-29{stroke-width:4px;}.cls-12,.cls-13,.cls-21,.cls-26,.cls-28{fill:#757272;}.cls-12{stroke:#ccc;stroke-width:2px;}.cls-14,.cls-18,.cls-19,.cls-20{fill:#e6e6e6;}.cls-15{stroke:#f7931e;}.cls-17,.cls-18,.cls-24{stroke:#e6e6e6;}.cls-21,.cls-29{stroke:#4d4d4d;}.cls-22{fill:#b3b3b3;}.cls-23,.cls-29{fill:#4d4d4d;}.cls-24,.cls-31{fill:none;}.cls-24,.cls-25{stroke-width:3px;}.cls-26{stroke:#999;}.cls-27{font-size:19.77px;font-family:Roboto-Regular, Roboto;}.cls-28{stroke:#3fa9f5;}</style></defs><title>Communications Suite</title><g id="Background_3" data-name="Background 3"><path class="cls-1" d="M12,.9H488a11.62,11.62,0,0,1,11.62,11.62V488A11.62,11.62,0,0,1,488,499.63H12A11.63,11.63,0,0,1,.38,488V12.53A11.63,11.63,0,0,1,12,.9Z"/><path class="cls-2" d="M488,1.28a11.26,11.26,0,0,1,11.25,11.25V488A11.26,11.26,0,0,1,488,499.25H12A11.26,11.26,0,0,1,.75,488V12.53A11.26,11.26,0,0,1,12,1.28H488m0-.75H12a12,12,0,0,0-12,12V488a12,12,0,0,0,12,12H488a12,12,0,0,0,12-12V12.53a12,12,0,0,0-12-12Z"/><path class="cls-2" d="M499.48,41.05H0V12A12,12,0,0,1,12,0H487.48a12,12,0,0,1,12,12Z"/><ellipse class="cls-3" cx="88.6" cy="22.94" rx="6.49" ry="6.54"/><ellipse class="cls-4" cx="30.52" cy="22.94" rx="6.49" ry="6.54"/><ellipse class="cls-5" cx="59.04" cy="22.94" rx="6.49" ry="6.54"/><line class="cls-6" y1="81.14" x2="499.48" y2="81.14"/><path class="cls-1" d="M12,499.75A11.76,11.76,0,0,1,.25,488V439.41H168v60.34Z"/><path class="cls-2" d="M167.73,439.66V499.5H12A11.51,11.51,0,0,1,.5,488V439.66H167.73m.5-.5H0V488a12,12,0,0,0,12,12H168.23V439.16Z"/><rect class="cls-1" x="12.78" y="453.77" width="32.96" height="33.3"/><path class="cls-2" d="M45.49,454v32.8H13V454H45.49m.5-.5H12.53v33.8H46v-33.8Z"/><polygon class="cls-7" points="28.14 486.2 13.64 471.55 13.64 486.2 28.14 486.2"/><polygon class="cls-7" points="30.37 454.08 45.43 469.3 45.43 454.08 30.37 454.08"/><polygon class="cls-8" points="35.95 459.72 39.85 463.66 39.85 459.72 35.95 459.72"/><polygon class="cls-7" points="43.8 469.34 29.26 454.65 14.19 469.87 29.24 485.07 44.3 469.85 43.8 469.34"/><polygon class="cls-9" points="14.76 465.92 24.8 455.77 14.76 455.77 14.76 465.92"/><polygon class="cls-9" points="43.76 473.8 33.72 483.94 43.76 483.94 43.76 473.8"/><polygon class="cls-10" points="23.12 480 19.78 476.62 19.78 480 23.12 480"/><line class="cls-11" x1="59.56" y1="460.71" x2="123.3" y2="460.71"/><line class="cls-12" x1="59.56" y1="480.04" x2="152.56" y2="480.04"/><line class="cls-13" x1="142.11" y1="449.98" x2="164.05" y2="449.98"/><rect class="cls-1" x="0.25" y="387.37" width="167.73" height="52.16"/><path class="cls-2" d="M167.73,387.62v51.66H.5V387.62H167.73m.5-.5H0v52.66H168.23V387.12Z"/><rect class="cls-14" x="13.83" y="398.82" width="30.85" height="30.72"/><path class="cls-2" d="M44.43,399.07v30.22H14.08V399.07H44.43m.5-.5H13.58v31.22H44.93V398.57Z"/><polygon class="cls-15" points="43.89 415.22 30.3 428.75 43.89 428.75 43.89 415.22"/><polygon class="cls-16" points="14.11 413.14 28.21 399.09 14.11 399.09 14.11 413.14"/><polygon class="cls-17" points="19.33 407.93 22.99 404.29 19.33 404.29 19.33 407.93"/><polygon class="cls-1" points="28.26 400.61 14.63 414.18 28.75 428.24 42.84 414.2 28.73 400.14 28.26 400.61"/><polygon class="cls-7" points="25.08 427.71 15.67 418.34 15.67 427.71 25.08 427.71"/><polygon class="cls-7" points="32.39 400.65 41.8 410.02 41.8 400.65 32.39 400.65"/><polygon class="cls-17" points="38.14 419.9 35.01 423.02 38.14 423.02 38.14 419.9"/><line class="cls-11" x1="59.56" y1="405.77" x2="123.3" y2="405.77"/><line class="cls-12" x1="59.56" y1="422.5" x2="152.56" y2="422.5"/><line class="cls-13" x1="142.11" y1="396.49" x2="164.05" y2="396.49"/><rect class="cls-1" x="0.25" y="336.37" width="167.73" height="52.16"/><path class="cls-2" d="M167.73,336.62v51.66H.5V336.62H167.73m.5-.5H0v52.66H168.23V336.12Z"/><rect class="cls-14" x="13.83" y="347.82" width="30.85" height="30.72"/><path class="cls-2" d="M44.43,348.07v30.22H14.08V348.07H44.43m.5-.5H13.58v31.22H44.93V347.57Z"/><polygon class="cls-1" points="28.21 377.75 14.63 364.22 14.63 377.75 28.21 377.75"/><polygon class="cls-1" points="30.3 348.09 44.41 362.14 44.41 348.09 30.3 348.09"/><polygon class="cls-18" points="35.53 353.3 39.19 356.94 39.19 353.3 35.53 353.3"/><polygon class="cls-9" points="42.88 362.18 29.26 348.61 15.14 362.67 29.24 376.71 43.35 362.65 42.88 362.18"/><polygon class="cls-7" points="15.67 359.02 25.08 349.65 15.67 349.65 15.67 359.02"/><polygon class="cls-7" points="42.84 366.3 33.44 375.67 42.84 375.67 42.84 366.3"/><polygon class="cls-18" points="23.51 372.03 20.38 368.91 20.38 372.03 23.51 372.03"/><line class="cls-11" x1="59.56" y1="354.78" x2="98.22" y2="354.78"/><line class="cls-12" x1="59.56" y1="371.51" x2="152.56" y2="371.51"/><line class="cls-13" x1="142.11" y1="345.49" x2="164.05" y2="345.49"/><rect class="cls-1" x="0.25" y="285.38" width="167.73" height="52.16"/><path class="cls-2" d="M167.73,285.63v51.66H.5V285.63H167.73m.5-.5H0v52.66H168.23V285.13Z"/><rect class="cls-14" x="13.83" y="296.82" width="30.85" height="30.72"/><path class="cls-2" d="M44.43,297.07V327.3H14.08V297.07H44.43m.5-.5H13.58V327.8H44.93V296.57Z"/><polygon class="cls-15" points="43.89 313.23 30.3 326.75 43.89 326.75 43.89 313.23"/><polygon class="cls-16" points="14.11 311.14 28.21 297.09 14.11 297.09 14.11 311.14"/><polygon class="cls-17" points="19.33 305.94 22.99 302.3 19.33 302.3 19.33 305.94"/><polygon class="cls-7" points="28.26 298.61 14.63 312.19 28.75 326.25 42.84 312.2 28.73 298.14 28.26 298.61"/><polygon class="cls-1" points="25.08 325.71 15.67 316.35 15.67 325.71 25.08 325.71"/><polygon class="cls-1" points="32.39 298.65 41.8 308.02 41.8 298.65 32.39 298.65"/><polygon class="cls-17" points="38.14 317.91 35.01 321.03 38.14 321.03 38.14 317.91"/><line class="cls-11" x1="59.56" y1="303.78" x2="152.56" y2="303.78"/><line class="cls-12" x1="59.56" y1="320.51" x2="152.56" y2="320.51"/><line class="cls-13" x1="142.11" y1="294.49" x2="164.05" y2="294.49"/><rect class="cls-1" x="0.25" y="234.38" width="167.73" height="52.16"/><path class="cls-2" d="M167.73,234.63v51.66H.5V234.63H167.73m.5-.5H0v52.66H168.23V234.13Z"/><rect class="cls-1" x="13.83" y="243.75" width="30.85" height="30.72"/><path class="cls-2" d="M44.43,244v30.22H14.08V244H44.43m.5-.5H13.58v31.22H44.93V243.5Z"/><polygon class="cls-7" points="14.63 258.07 28.21 244.54 14.63 244.54 14.63 258.07"/><polygon class="cls-7" points="44.41 260.15 30.3 274.2 44.41 274.2 44.41 260.15"/><polygon class="cls-19" points="39.19 265.35 35.53 268.99 39.19 268.99 39.19 265.35"/><polygon class="cls-9" points="30.26 272.68 43.89 259.11 29.77 245.05 15.67 259.09 29.79 273.15 30.26 272.68"/><polygon class="cls-20" points="33.44 245.58 42.84 254.94 42.84 245.58 33.44 245.58"/><polygon class="cls-20" points="26.12 272.64 16.72 263.27 16.72 272.64 26.12 272.64"/><polygon class="cls-19" points="20.38 253.38 23.51 250.26 20.38 250.26 20.38 253.38"/><line class="cls-21" x1="59.56" y1="252.78" x2="110.76" y2="252.78"/><line class="cls-12" x1="59.56" y1="269.51" x2="152.56" y2="269.51"/><line class="cls-13" x1="142.11" y1="243.5" x2="164.05" y2="243.5"/><rect class="cls-22" x="0.25" y="183.38" width="167.73" height="52.16"/><path class="cls-2" d="M167.73,183.63v51.66H.5V183.63H167.73m.5-.5H0v52.66H168.23V183.13Z"/><rect class="cls-14" x="13.83" y="194.83" width="30.85" height="30.72"/><path class="cls-2" d="M44.43,195.08V225.3H14.08V195.08H44.43m.5-.5H13.58V225.8H44.93V194.58Z"/><polygon class="cls-15" points="30.3 195.62 43.89 209.15 43.89 195.62 30.3 195.62"/><polygon class="cls-16" points="28.21 225.28 14.11 211.23 14.11 225.28 28.21 225.28"/><polygon class="cls-17" points="22.99 220.08 19.33 216.44 19.33 220.08 22.99 220.08"/><polygon class="cls-7" points="15.63 211.19 29.26 224.76 43.38 210.7 29.28 196.66 15.16 210.72 15.63 211.19"/><polygon class="cls-1" points="42.84 214.35 33.44 223.72 42.84 223.72 42.84 214.35"/><polygon class="cls-1" points="15.67 207.07 25.08 197.7 15.67 197.7 15.67 207.07"/><polygon class="cls-17" points="35.01 201.34 38.14 204.47 38.14 201.34 35.01 201.34"/><line class="cls-23" x1="59.56" y1="201.79" x2="136.89" y2="201.79"/><line class="cls-12" x1="59.56" y1="218.52" x2="152.56" y2="218.52"/><line class="cls-13" x1="142.11" y1="192.5" x2="164.05" y2="192.5"/><rect class="cls-1" x="0.25" y="132.38" width="167.73" height="52.16"/><path class="cls-2" d="M167.73,132.63v51.66H.5V132.63H167.73m.5-.5H0v52.66H168.23V132.13Z"/><rect class="cls-1" x="13.83" y="143.83" width="30.85" height="30.72"/><path class="cls-2" d="M44.43,144.08v30.22H14.08V144.08H44.43m.5-.5H13.58v31.22H44.93V143.58Z"/><polygon class="cls-7" points="30.3 144.62 43.89 158.15 43.89 144.62 30.3 144.62"/><polygon class="cls-7" points="28.21 174.28 14.11 160.24 14.11 174.28 28.21 174.28"/><polygon class="cls-19" points="22.99 169.08 19.33 165.44 19.33 169.08 22.99 169.08"/><polygon class="cls-9" points="15.63 160.19 29.26 173.76 43.38 159.71 29.28 145.66 15.16 159.72 15.63 160.19"/><polygon class="cls-20" points="42.84 163.36 33.44 172.72 42.84 172.72 42.84 163.36"/><polygon class="cls-20" points="15.67 156.07 25.08 146.71 15.67 146.71 15.67 156.07"/><polygon class="cls-19" points="35.01 150.35 38.14 153.47 38.14 150.35 35.01 150.35"/><line class="cls-11" x1="59.56" y1="150.79" x2="100.31" y2="150.79"/><line class="cls-12" x1="59.56" y1="167.52" x2="152.56" y2="167.52"/><line class="cls-13" x1="142.11" y1="141.5" x2="164.05" y2="141.5"/><rect class="cls-1" x="0.25" y="81.39" width="167.73" height="52.16"/><path class="cls-2" d="M167.73,81.64V133.3H.5V81.64H167.73m.5-.5H0V133.8H168.23V81.14Z"/><rect class="cls-14" x="13.83" y="92.84" width="30.85" height="30.72"/><path class="cls-2" d="M44.43,93.09v30.22H14.08V93.09H44.43m.5-.5H13.58v31.22H44.93V92.59Z"/><polygon class="cls-15" points="43.89 109.24 30.3 122.77 43.89 122.77 43.89 109.24"/><polygon class="cls-16" points="14.11 107.16 28.21 93.11 14.11 93.11 14.11 107.16"/><polygon class="cls-17" points="19.33 101.95 22.99 98.31 19.33 98.31 19.33 101.95"/><polygon class="cls-7" points="28.26 94.63 14.63 108.2 28.75 122.26 42.84 108.22 28.73 94.16 28.26 94.63"/><polygon class="cls-1" points="25.08 121.73 15.67 112.36 15.67 121.73 25.08 121.73"/><polygon class="cls-1" points="32.39 94.67 41.8 104.03 41.8 94.67 32.39 94.67"/><polygon class="cls-17" points="38.14 113.92 35.01 117.04 38.14 117.04 38.14 113.92"/><line class="cls-11" x1="59.56" y1="100.83" x2="123.3" y2="100.83"/><line class="cls-12" x1="59.56" y1="116.52" x2="152.56" y2="116.52"/><line class="cls-13" x1="142.11" y1="90.5" x2="164.05" y2="90.5"/><line class="cls-24" x1="187.25" y1="429.79" x2="486.99" y2="429.79"/><rect class="cls-14" x="198.95" y="445.65" width="30.72" height="30.72"/><path class="cls-2" d="M229.42,445.9v30.22H199.2V445.9h30.22m.5-.5H198.7v31.22h31.22V445.4Z"/><rect class="cls-1" x="236.67" y="452.15" width="249.82" height="17.73"/><path class="cls-2" d="M486,452.65v16.73H237.17V452.65H486m1-1H236.17v18.73H487V451.65Z"/><line class="cls-25" x1="244.5" y1="461.01" x2="478.14" y2="461.53"/><rect class="cls-14" x="199.99" y="214.6" width="30.72" height="30.72"/><path class="cls-2" d="M230.47,214.85v30.22H200.24V214.85h30.22m.5-.5H199.74v31.22H231V214.35Z"/><polygon class="cls-15" points="216.4 215.4 229.93 228.93 229.93 215.4 216.4 215.4"/><polygon class="cls-16" points="214.31 245.06 200.26 231.01 200.26 245.06 214.31 245.06"/><polygon class="cls-17" points="209.11 239.85 205.47 236.21 205.47 239.85 209.11 239.85"/><polygon class="cls-7" points="201.78 230.96 215.35 244.54 229.41 230.48 215.37 216.44 201.31 230.5 201.78 230.96"/><polygon class="cls-1" points="228.88 234.13 219.52 243.5 228.88 243.5 228.88 234.13"/><polygon class="cls-1" points="201.82 226.84 211.19 217.48 201.82 217.48 201.82 226.84"/><polygon class="cls-17" points="221.08 221.12 224.2 224.24 224.2 221.12 221.08 221.12"/><line class="cls-21" x1="241.37" y1="216.44" x2="291.33" y2="216.44"/><line class="cls-26" x1="303.82" y1="216.44" x2="330.88" y2="216.44"/><line class="cls-13" x1="241.37" y1="231.01" x2="446.4" y2="231.01"/><line class="cls-13" x1="241.37" y1="245.58" x2="369.39" y2="245.58"/><text class="cls-27" transform="translate(371.47 252.8)">??</text><line class="cls-28" x1="242.41" y1="262.23" x2="269.47" y2="262.23"/><line class="cls-28" x1="281.96" y1="262.23" x2="309.02" y2="262.23"/><line class="cls-29" x1="283" y1="288.25" x2="332.96" y2="288.25"/><line class="cls-11" x1="283" y1="302.82" x2="446.4" y2="302.82"/><line class="cls-13" x1="283" y1="317.39" x2="446.4" y2="317.39"/><line class="cls-13" x1="283" y1="331.96" x2="382.92" y2="331.96"/><rect class="cls-14" x="242.66" y="358.23" width="30.72" height="30.72"/><path class="cls-2" d="M273.14,358.48V388.7H242.91V358.48h30.22m.5-.5H242.41V389.2h31.22V358Z"/><polygon class="cls-15" points="259.07 359.02 272.6 372.55 272.6 359.02 259.07 359.02"/><polygon class="cls-16" points="256.98 388.68 242.93 374.63 242.93 388.68 256.98 388.68"/><polygon class="cls-17" points="251.78 383.48 248.14 379.83 248.14 383.48 251.78 383.48"/><polygon class="cls-7" points="244.45 374.59 258.03 388.16 272.09 374.1 258.05 360.06 243.99 374.12 244.45 374.59"/><polygon class="cls-1" points="271.56 377.75 262.19 387.12 271.56 387.12 271.56 377.75"/><polygon class="cls-1" points="244.5 370.47 253.86 361.1 244.5 361.1 244.5 370.47"/><polygon class="cls-17" points="263.75 364.74 266.87 367.87 266.87 364.74 263.75 364.74"/><line class="cls-21" x1="284.04" y1="360.06" x2="334" y2="360.06"/><line class="cls-26" x1="346.49" y1="360.06" x2="373.55" y2="360.06"/><line class="cls-13" x1="284.04" y1="374.63" x2="412.06" y2="374.63"/><line class="cls-26" x1="345.45" y1="288.25" x2="372.51" y2="288.25"/><path class="cls-9" d="M214.83,474.29a12.76,12.76,0,1,1,12.76-12.76A12.77,12.77,0,0,1,214.83,474.29Z"/><path class="cls-1" d="M214.83,449a12.51,12.51,0,1,1-12.51,12.51A12.52,12.52,0,0,1,214.83,449m0-.5a13,13,0,1,0,13,13,13,13,0,0,0-13-13Z"/><polygon class="cls-30" points="206.51 458.41 222.64 458.41 214.57 450.35 206.51 458.41"/><polygon class="cls-30" points="222.64 464.92 206.51 464.92 214.57 472.98 222.64 464.92"/><line class="cls-31" x1="206.51" y1="461.53" x2="222.12" y2="461.53"/><rect class="cls-14" x="242.66" y="286.42" width="30.72" height="30.72"/><path class="cls-2" d="M273.14,286.67v30.22H242.91V286.67h30.22m.5-.5H242.41v31.22h31.22V286.17Z"/><path class="cls-9" d="M258.55,315.06A12.76,12.76,0,1,1,271.3,302.3,12.77,12.77,0,0,1,258.55,315.06Z"/><path class="cls-1" d="M258.55,289.79A12.51,12.51,0,1,1,246,302.3a12.52,12.52,0,0,1,12.51-12.51m0-.5a13,13,0,1,0,13,13,13,13,0,0,0-13-13Z"/><polygon class="cls-30" points="250.22 299.18 266.35 299.18 258.29 291.11 250.22 299.18"/><polygon class="cls-30" points="266.35 305.68 250.22 305.68 258.29 313.75 266.35 305.68"/><line class="cls-31" x1="250.22" y1="302.3" x2="265.83" y2="302.3"/></g></svg>