<svg xmlns="http://www.w3.org/2000/svg" viewBox="0 0 500 500"><defs><style>.cls-1,.cls-17{fill:#fff}.cls-2{fill:#afafaf}.cls-11,.cls-12,.cls-13,.cls-15,.cls-17,.cls-18,.cls-19,.cls-21,.cls-22,.cls-27,.cls-31,.cls-32{stroke-miterlimit:10}.cls-31,.cls-7{fill:#3fa9f5}.cls-15,.cls-16{fill:#f7931e}.cls-19,.cls-21,.cls-31,.cls-32{stroke:#fff}.cls-17,.cls-18,.cls-19,.cls-31,.cls-32{stroke-width:.5px}.cls-9{fill:#ff931e}.cls-11{fill:#666}.cls-11,.cls-13{stroke:#666}.cls-11,.cls-13,.cls-22,.cls-27{stroke-width:4px}.cls-12,.cls-13,.cls-22,.cls-27{fill:#757272}.cls-12{stroke:#ccc;stroke-width:2px}.cls-14,.cls-18,.cls-19,.cls-21{fill:#e6e6e6}.cls-15{stroke:#f7931e}.cls-17,.cls-18{stroke:#e6e6e6}.cls-22{stroke:#4d4d4d}.cls-32{fill:none}.cls-27{stroke:#999}</style></defs><g id="Background_3" data-name="Background 3"><path class="cls-1" d="M12 .9h476a11.62 11.62 0 0 1 11.62 11.62V488A11.62 11.62 0 0 1 488 499.63H12A11.63 11.63 0 0 1 .38 488V12.53A11.63 11.63 0 0 1 12 .9z"/><path class="cls-2" d="M488 1.28a11.26 11.26 0 0 1 11.25 11.25V488A11.26 11.26 0 0 1 488 499.25H12A11.26 11.26 0 0 1 .75 488V12.53A11.26 11.26 0 0 1 12 1.28h476m0-.75H12a12 12 0 0 0-12 12V488a12 12 0 0 0 12 12h476a12 12 0 0 0 12-12V12.53a12 12 0 0 0-12-12z"/><path class="cls-2" d="M499.48 41.05H0V12A12 12 0 0 1 12 0h475.48a12 12 0 0 1 12 12z"/><ellipse cx="88.6" cy="22.94" rx="6.49" ry="6.54" fill="#23b239"/><ellipse cx="30.52" cy="22.94" rx="6.49" ry="6.54" fill="#ff6057"/><ellipse cx="59.04" cy="22.94" rx="6.49" ry="6.54" fill="#f7bb2b"/><path stroke-miterlimit="10" stroke="#afafaf" fill="#fff" d="M0 81.14h499.48"/><path class="cls-1" d="M12 499.75A11.76 11.76 0 0 1 .25 488v-48.59H168v60.34z"/><path class="cls-2" d="M167.73 439.66v59.84H12A11.51 11.51 0 0 1 .5 488v-48.34h167.23m.5-.5H0V488a12 12 0 0 0 12 12h156.23v-60.84z"/><path class="cls-1" d="M12.78 453.77h32.96v33.3H12.78z"/><path class="cls-2" d="M45.49 454v32.8H13V454h32.49m.5-.5H12.53v33.8H46v-33.8z"/><path class="cls-7" d="M28.14 486.2l-14.5-14.65v14.65h14.5zm2.23-32.12l15.06 15.22v-15.22H30.37z"/><path stroke-width=".5" stroke="#fff" fill="#f7931e" stroke-miterlimit="10" d="M35.95 459.72l3.9 3.94v-3.94h-3.9z"/><path class="cls-7" d="M43.8 469.34l-14.54-14.69-15.07 15.22 15.05 15.2 15.06-15.22-.5-.51z"/><path class="cls-9" d="M14.76 465.92l10.04-10.15H14.76v10.15zm29 7.88l-10.04 10.14h10.04V473.8z"/><path fill="#ff931e" stroke-width=".5" stroke="#fff" stroke-miterlimit="10" d="M23.12 480l-3.34-3.38V480h3.34z"/><path class="cls-11" d="M59.56 460.71h63.74"/><path class="cls-12" d="M59.56 480.04h93"/><path class="cls-13" d="M142.11 449.98h21.94"/><path class="cls-1" d="M.25 387.37h167.73v52.16H.25z"/><path class="cls-2" d="M167.73 387.62v51.66H.5v-51.66h167.23m.5-.5H0v52.66h168.23v-52.66z"/><path class="cls-14" d="M13.83 398.82h30.85v30.72H13.83z"/><path class="cls-2" d="M44.43 399.07v30.22H14.08v-30.22h30.35m.5-.5H13.58v31.22h31.35v-31.22z"/><path class="cls-15" d="M43.89 415.22L30.3 428.75h13.59v-13.53z"/><path class="cls-16" d="M14.11 413.14l14.1-14.05h-14.1v14.05z"/><path class="cls-17" d="M19.33 407.93l3.66-3.64h-3.66v3.64z"/><path class="cls-1" d="M28.26 400.61l-13.63 13.57 14.12 14.06 14.09-14.04-14.11-14.06-.47.47z"/><path class="cls-7" d="M25.08 427.71l-9.41-9.37v9.37h9.41zm7.31-27.06l9.41 9.37v-9.37h-9.41z"/><path class="cls-17" d="M38.14 419.9l-3.13 3.12h3.13v-3.12z"/><path class="cls-11" d="M59.56 405.77h63.74"/><path class="cls-12" d="M59.56 422.5h93"/><path class="cls-13" d="M142.11 396.49h21.94"/><path class="cls-1" d="M.25 336.37h167.73v52.16H.25z"/><path class="cls-2" d="M167.73 336.62v51.66H.5v-51.66h167.23m.5-.5H0v52.66h168.23v-52.66z"/><path class="cls-14" d="M13.83 347.82h30.85v30.72H13.83z"/><path class="cls-2" d="M44.43 348.07v30.22H14.08v-30.22h30.35m.5-.5H13.58v31.22h31.35v-31.22z"/><path class="cls-1" d="M28.21 377.75l-13.58-13.53v13.53h13.58zm2.09-29.66l14.11 14.05v-14.05H30.3z"/><path class="cls-18" d="M35.53 353.3l3.66 3.64v-3.64h-3.66z"/><path class="cls-9" d="M42.88 362.18l-13.62-13.57-14.12 14.06 14.1 14.04 14.11-14.06-.47-.47z"/><path class="cls-7" d="M15.67 359.02l9.41-9.37h-9.41v9.37zm27.17 7.28l-9.4 9.37h9.4v-9.37z"/><path class="cls-18" d="M23.51 372.03l-3.13-3.12v3.12h3.13z"/><path class="cls-11" d="M59.56 354.78h38.66"/><path class="cls-12" d="M59.56 371.51h93"/><path class="cls-13" d="M142.11 345.49h21.94"/><path class="cls-1" d="M.25 285.38h167.73v52.16H.25z"/><path class="cls-2" d="M167.73 285.63v51.66H.5v-51.66h167.23m.5-.5H0v52.66h168.23v-52.66z"/><path class="cls-14" d="M13.83 296.82h30.85v30.72H13.83z"/><path class="cls-2" d="M44.43 297.07v30.23H14.08v-30.23h30.35m.5-.5H13.58v31.23h31.35v-31.23z"/><path class="cls-15" d="M43.89 313.23L30.3 326.75h13.59v-13.52z"/><path class="cls-16" d="M14.11 311.14l14.1-14.05h-14.1v14.05z"/><path class="cls-17" d="M19.33 305.94l3.66-3.64h-3.66v3.64z"/><path class="cls-7" d="M28.26 298.61l-13.63 13.58 14.12 14.06 14.09-14.05-14.11-14.06-.47.47z"/><path class="cls-1" d="M25.08 325.71l-9.41-9.36v9.36h9.41zm7.31-27.06l9.41 9.37v-9.37h-9.41z"/><path class="cls-17" d="M38.14 317.91l-3.13 3.12h3.13v-3.12z"/><path class="cls-11" d="M59.56 303.78h93"/><path class="cls-12" d="M59.56 320.51h93"/><path class="cls-13" d="M142.11 294.49h21.94"/><path class="cls-1" d="M.25 234.38h167.73v52.16H.25z"/><path class="cls-2" d="M167.73 234.63v51.66H.5v-51.66h167.23m.5-.5H0v52.66h168.23v-52.66z"/><path class="cls-1" d="M13.83 243.75h30.85v30.72H13.83z"/><path class="cls-2" d="M44.43 244v30.22H14.08V244h30.35m.5-.5H13.58v31.22h31.35V243.5z"/><path class="cls-7" d="M14.63 258.07l13.58-13.53H14.63v13.53zm29.78 2.08L30.3 274.2h14.11v-14.05z"/><path class="cls-19" d="M39.19 265.35l-3.66 3.64h3.66v-3.64z"/><path class="cls-9" d="M30.26 272.68l13.63-13.57-14.12-14.06-14.1 14.04 14.12 14.06.47-.47z"/><path fill="#666" stroke="#fff" stroke-miterlimit="10" d="M33.44 245.58l9.4 9.36v-9.36h-9.4z"/><path class="cls-21" d="M26.12 272.64l-9.4-9.37v9.37h9.4z"/><path class="cls-19" d="M20.38 253.38l3.13-3.12h-3.13v3.12z"/><path class="cls-22" d="M59.56 252.78h51.2"/><path class="cls-12" d="M59.56 269.51h93"/><path class="cls-13" d="M142.11 243.5h21.94"/><path fill="#b3b3b3" d="M.25 183.38h167.73v52.16H.25z"/><path class="cls-2" d="M167.73 183.63v51.66H.5v-51.66h167.23m.5-.5H0v52.66h168.23v-52.66z"/><path class="cls-14" d="M13.83 194.83h30.85v30.72H13.83z"/><path class="cls-2" d="M44.43 195.08v30.22H14.08v-30.22h30.35m.5-.5H13.58v31.22h31.35v-31.22z"/><path class="cls-15" d="M30.3 195.62l13.59 13.53v-13.53H30.3z"/><path class="cls-16" d="M28.21 225.28l-14.1-14.05v14.05h14.1z"/><path class="cls-17" d="M22.99 220.08l-3.66-3.64v3.64h3.66z"/><path class="cls-7" d="M15.63 211.19l13.63 13.57 14.12-14.06-14.1-14.04-14.12 14.06.47.47z"/><path class="cls-1" d="M42.84 214.35l-9.4 9.37h9.4v-9.37zm-27.17-7.28l9.41-9.37h-9.41v9.37z"/><path class="cls-17" d="M35.01 201.34l3.13 3.13v-3.13h-3.13z"/><path fill="#4d4d4d" stroke-width="4" stroke="#666" stroke-miterlimit="10" d="M59.56 201.79h77.33"/><path class="cls-12" d="M59.56 218.52h93"/><path class="cls-13" d="M142.11 192.5h21.94"/><path class="cls-1" d="M.25 132.38h167.73v52.16H.25z"/><path class="cls-2" d="M167.73 132.63v51.66H.5v-51.66h167.23m.5-.5H0v52.66h168.23v-52.66z"/><path class="cls-1" d="M13.83 143.83h30.85v30.72H13.83z"/><path class="cls-2" d="M44.43 144.08v30.22H14.08v-30.22h30.35m.5-.5H13.58v31.22h31.35v-31.22z"/><path class="cls-7" d="M30.3 144.62l13.59 13.53v-13.53H30.3zm-2.09 29.66l-14.1-14.04v14.04h14.1z"/><path class="cls-19" d="M22.99 169.08l-3.66-3.64v3.64h3.66z"/><path class="cls-9" d="M15.63 160.19l13.63 13.57 14.12-14.05-14.1-14.05-14.12 14.06.47.47z"/><path class="cls-21" d="M42.84 163.36l-9.4 9.36h9.4v-9.36zm-27.17-7.29l9.41-9.36h-9.41v9.36z"/><path class="cls-19" d="M35.01 150.35l3.13 3.12v-3.12h-3.13z"/><path class="cls-11" d="M59.56 150.79h40.75"/><path class="cls-12" d="M59.56 167.52h93"/><path class="cls-13" d="M142.11 141.5h21.94"/><path class="cls-1" d="M.25 81.39h167.73v52.16H.25z"/><path class="cls-2" d="M167.73 81.64v51.66H.5V81.64h167.23m.5-.5H0v52.66h168.23V81.14z"/><path class="cls-14" d="M13.83 92.84h30.85v30.72H13.83z"/><path class="cls-2" d="M44.43 93.09v30.22H14.08V93.09h30.35m.5-.5H13.58v31.22h31.35V92.59z"/><path class="cls-15" d="M43.89 109.24L30.3 122.77h13.59v-13.53z"/><path class="cls-16" d="M14.11 107.16l14.1-14.05h-14.1v14.05z"/><path class="cls-17" d="M19.33 101.95l3.66-3.64h-3.66v3.64z"/><path class="cls-7" d="M28.26 94.63L14.63 108.2l14.12 14.06 14.09-14.04-14.11-14.06-.47.47z"/><path class="cls-1" d="M25.08 121.73l-9.41-9.37v9.37h9.41zm7.31-27.06l9.41 9.36v-9.36h-9.41z"/><path class="cls-17" d="M38.14 113.92l-3.13 3.12h3.13v-3.12z"/><path class="cls-11" d="M59.56 100.83h63.74"/><path class="cls-12" d="M59.56 116.52h93"/><path class="cls-13" d="M142.11 90.5h21.94"/><path stroke-width="3" fill="none" stroke="#e6e6e6" stroke-miterlimit="10" d="M187.25 429.79h299.74"/><path class="cls-14" d="M198.95 445.65h30.72v30.72h-30.72z"/><path class="cls-2" d="M229.42 445.9v30.22H199.2V445.9h30.22m.5-.5H198.7v31.22h31.22V445.4z"/><path class="cls-1" d="M236.67 452.15h249.82v17.73H236.67z"/><path class="cls-2" d="M486 452.65v16.73H237.17v-16.73H486m1-1H236.17v18.73H487v-18.73z"/><path stroke-width="3" stroke="#666" fill="#666" stroke-miterlimit="10" d="M244.5 461.01l233.64.52"/><path class="cls-14" d="M199.99 214.6h30.72v30.72h-30.72z"/><path class="cls-2" d="M230.47 214.85v30.22h-30.23v-30.22h30.22m.5-.5h-31.22v31.22H231v-31.22z"/><path class="cls-15" d="M216.4 215.4l13.53 13.53V215.4H216.4z"/><path class="cls-16" d="M214.31 245.06l-14.05-14.05v14.05h14.05z"/><path class="cls-17" d="M209.11 239.85l-3.64-3.64v3.64h3.64z"/><path class="cls-7" d="M201.78 230.96l13.57 13.58 14.06-14.06-14.04-14.04-14.06 14.06.47.46z"/><path class="cls-1" d="M228.88 234.13l-9.36 9.37h9.36v-9.37zm-27.06-7.29l9.37-9.36h-9.37v9.36z"/><path class="cls-17" d="M221.08 221.12l3.12 3.12v-3.12h-3.12z"/><path class="cls-22" d="M241.37 216.44h49.96"/><path class="cls-27" d="M303.82 216.44h27.06"/><path class="cls-13" d="M241.37 231.01H446.4m-205.03 14.57h128.02"/><text transform="translate(371.47 252.8)" font-size="19.77" font-family="Roboto-Regular,Roboto" fill="#666">??</text><path d="M242.41 262.23h27.06m12.49 0h27.06" stroke="#3fa9f5" fill="#757272" stroke-width="4" stroke-miterlimit="10"/><path fill="#4d4d4d" stroke="#4d4d4d" stroke-width="4" stroke-miterlimit="10" d="M283 288.25h49.96"/><path class="cls-11" d="M283 302.82h163.4"/><path class="cls-13" d="M283 317.39h163.4M283 331.96h99.92"/><path class="cls-14" d="M242.66 358.23h30.72v30.72h-30.72z"/><path class="cls-2" d="M273.14 358.48v30.22h-30.23v-30.22h30.22m.5-.5h-31.22v31.22h31.22V358z"/><path class="cls-15" d="M259.07 359.02l13.53 13.53v-13.53h-13.53z"/><path class="cls-16" d="M256.98 388.68l-14.05-14.05v14.05h14.05z"/><path class="cls-17" d="M251.78 383.48l-3.64-3.65v3.65h3.64z"/><path class="cls-7" d="M244.45 374.59l13.58 13.57 14.06-14.06-14.04-14.04-14.06 14.06.46.47z"/><path class="cls-1" d="M271.56 377.75l-9.37 9.37h9.37v-9.37zm-27.06-7.28l9.36-9.37h-9.36v9.37z"/><path class="cls-17" d="M263.75 364.74l3.12 3.13v-3.13h-3.12z"/><path class="cls-22" d="M284.04 360.06H334"/><path class="cls-27" d="M346.49 360.06h27.06"/><path class="cls-13" d="M284.04 374.63h128.02"/><path class="cls-27" d="M345.45 288.25h27.06"/><path class="cls-9" d="M214.83 474.29a12.76 12.76 0 1 1 12.76-12.76 12.77 12.77 0 0 1-12.76 12.76z"/><path class="cls-1" d="M214.83 449a12.51 12.51 0 1 1-12.51 12.51A12.52 12.52 0 0 1 214.83 449m0-.5a13 13 0 1 0 13 13 13 13 0 0 0-13-13z"/><path class="cls-31" d="M206.51 458.41h16.13l-8.07-8.06-8.06 8.06zm16.13 6.51h-16.13l8.06 8.06 8.07-8.06z"/><path class="cls-32" d="M206.51 461.53h15.61"/><path class="cls-14" d="M242.66 286.42h30.72v30.72h-30.72z"/><path class="cls-2" d="M273.14 286.67v30.22h-30.23v-30.22h30.22m.5-.5h-31.22v31.22h31.22v-31.22z"/><path class="cls-9" d="M258.55 315.06a12.76 12.76 0 1 1 12.75-12.76 12.77 12.77 0 0 1-12.75 12.76z"/><path class="cls-1" d="M258.55 289.79A12.51 12.51 0 1 1 246 302.3a12.52 12.52 0 0 1 12.51-12.51m0-.5a13 13 0 1 0 13 13 13 13 0 0 0-13-13z"/><path class="cls-31" d="M250.22 299.18h16.13l-8.06-8.07-8.07 8.07zm16.13 6.5h-16.13l8.07 8.07 8.06-8.07z"/><path class="cls-32" d="M250.22 302.3h15.61"/></g></svg>