<svg xmlns="http://www.w3.org/2000/svg" xmlns:xlink="http://www.w3.org/1999/xlink" viewBox="0 0 1000 1000"><defs><style>.cls-1{fill:url(#linear-gradient);}.cls-2{fill:url(#blue);}.cls-3{fill:url(#or);}.cls-4{fill:url(#blue-2);}.cls-5{fill:url(#blue-3);}.cls-6,.cls-7{fill:none;stroke-miterlimit:10;}.cls-6{stroke:#f2f2f2;stroke-width:14px;}.cls-7{stroke:#666;stroke-width:5px;}.cls-8{font-size:60px;fill:#666;font-family:CambriaMath, Cambria Math;}</style><linearGradient id="linear-gradient" x1="147.01" y1="147.63" x2="398.21" y2="398.82" gradientUnits="userSpaceOnUse"><stop offset="0.01" stop-color="#fa4e09"/><stop offset="0.42" stop-color="#f84d09"/><stop offset="0.6" stop-color="#f14b09"/><stop offset="0.74" stop-color="#e44709"/><stop offset="0.85" stop-color="#d24209"/><stop offset="0.94" stop-color="#bc3b09"/><stop offset="1" stop-color="#aa3509"/></linearGradient><linearGradient id="blue" x1="316.33" y1="319.24" x2="132.22" y2="135.13" gradientUnits="userSpaceOnUse"><stop offset="0" stop-color="#0047bf"/><stop offset="0.23" stop-color="#024ac1"/><stop offset="0.43" stop-color="#0655c9"/><stop offset="0.62" stop-color="#0f67d5"/><stop offset="0.81" stop-color="#1a81e7"/><stop offset="0.99" stop-color="#29a1fe"/><stop offset="1" stop-color="#2aa3ff"/></linearGradient><linearGradient id="or" x1="597.63" y1="138.21" x2="857.32" y2="397.9" xlink:href="#linear-gradient"/><linearGradient id="blue-2" x1="696.97" y1="213.68" x2="607.37" y2="124.08" xlink:href="#blue"/><linearGradient id="blue-3" x1="627.76" y1="857.93" x2="368.05" y2="598.22" xlink:href="#blue"/></defs><title>data-for-students</title><g id="data-for-students"><g id="half-way"><path class="cls-1" d="M268.35,85.32a183.33,183.33,0,0,0-60.79,10.32,124,124,0,0,1,16.72-1.13c70.49,0,127.63,59.4,127.63,132.68S294.77,359.87,224.28,359.87,96.64,300.47,96.64,227.19a137.89,137.89,0,0,1,4-33.22A183.67,183.67,0,1,0,268.35,85.32Z"/><path class="cls-2" d="M224.28,359.87c70.49,0,127.63-59.4,127.63-132.68S294.77,94.5,224.28,94.5a124,124,0,0,0-16.72,1.13A184.21,184.21,0,0,0,100.68,194a137.89,137.89,0,0,0-4,33.22C96.64,300.47,153.79,359.87,224.28,359.87Z"/></g><g id="do-more"><path class="cls-3" d="M727.46,84.4a182.82,182.82,0,0,0-87.92,22.38,63.39,63.39,0,1,1-43.82,33.34A183.63,183.63,0,1,0,727.46,84.4Z"/><path class="cls-4" d="M652.17,232.24a63.36,63.36,0,1,0-12.63-125.45,184.31,184.31,0,0,0-43.82,33.34,63.35,63.35,0,0,0,56.45,92.11Z"/></g><g id="check_" data-name="check!"><circle class="cls-5" cx="497.91" cy="728.08" r="183.64"/><line class="cls-6" x1="400.57" y1="761.13" x2="455.21" y2="815.77"/><line class="cls-6" x1="599.37" y1="662.42" x2="449.24" y2="812.55"/></g><line class="cls-7" x1="213.5" y1="496.5" x2="313" y2="496.5"/></g><g id="insights-for-teachers"><text class="cls-8" transform="translate(323.78 515.73)">%</text><line class="cls-7" x1="672.5" y1="486.5" x2="772" y2="486.5"/><text class="cls-8" transform="translate(782.78 505.73)">%</text><line class="cls-7" x1="442.5" y1="953.5" x2="542" y2="953.5"/><text class="cls-8" transform="translate(552.78 972.73)">%</text></g></svg>