<svg xmlns="http://www.w3.org/2000/svg" viewBox="0 0 500 500"><defs><style>.cls-1{fill:#fff;}.cls-2{fill:#afafaf;}.cls-3{fill:#23b239;}.cls-4{fill:#ff6057;}.cls-5{fill:#f7bb2b;}.cls-6{fill:#329bb7;}.cls-7{fill:#b3b3b3;}.cls-11,.cls-12,.cls-14,.cls-16,.cls-17,.cls-7,.cls-9{stroke:#e6e6e6;}.cls-11,.cls-12,.cls-14,.cls-16,.cls-17,.cls-18,.cls-7,.cls-9{stroke-miterlimit:10;}.cls-16,.cls-7{stroke-width:0.5px;}.cls-14,.cls-8{fill:#009245;}.cls-11,.cls-12,.cls-16,.cls-17,.cls-9{fill:none;}.cls-9{stroke-width:0.75px;}.cls-10,.cls-13,.cls-19{fill:#e6e6e6;}.cls-11{stroke-width:0.25px;}.cls-12,.cls-14{stroke-width:2px;}.cls-13{font-size:22.04px;}.cls-13,.cls-19{font-family:CambriaMath, Cambria Math;}.cls-15{fill:#d9524f;}.cls-18{fill:#757272;stroke:#a59f9f;stroke-width:4px;}.cls-19{font-size:21.94px;}</style></defs><title>Hundreds of Problems</title><g id="Background_1" data-name="Background 1"><rect class="cls-1" x="0.43" y="1.03" width="499.07" height="497.89" rx="11.5" ry="11.5"/><path class="cls-2" d="M488,1.53a11,11,0,0,1,11,11V487.42a11,11,0,0,1-11,11H11.93a11,11,0,0,1-11-11V12.53a11,11,0,0,1,11-11H488m0-1H11.93a12,12,0,0,0-12,12V487.42a12,12,0,0,0,12,12H488a12,12,0,0,0,12-12V12.53a12,12,0,0,0-12-12Z"/><path class="cls-2" d="M499.48,41H-.07V12a12,12,0,0,1,12-12H487.48a12,12,0,0,1,12,12Z"/><ellipse class="cls-3" cx="88.54" cy="22.91" rx="6.49" ry="6.53"/><ellipse class="cls-4" cx="30.45" cy="22.91" rx="6.49" ry="6.53"/><ellipse class="cls-5" cx="58.97" cy="22.91" rx="6.49" ry="6.53"/></g><g id="Lemma_problem" data-name="Lemma problem"><path d="M454.46,77.23a8.17,8.17,0,0,1,8.16,8.16V258.65a8.17,8.17,0,0,1-8.16,8.16H46a8.17,8.17,0,0,1-8.16-8.16V85.39A8.17,8.17,0,0,1,46,77.23h408.5m0-.25H46a8.41,8.41,0,0,0-8.41,8.41V258.65A8.41,8.41,0,0,0,46,267.06h408.5a8.41,8.41,0,0,0,8.41-8.41V85.39A8.41,8.41,0,0,0,454.46,77Z"/><path class="cls-6" d="M462.87,125.65H37.55V85a8,8,0,0,1,8-8H454.87a8,8,0,0,1,8,8Z"/><line class="cls-7" x1="49.41" y1="238.59" x2="454.75" y2="239.01"/><rect class="cls-8" x="52.48" y="244.29" width="32.96" height="13.44" rx="1.75" ry="1.75"/><path class="cls-9" d="M101.73,251.89a5.44,5.44,0,1,1-10.89,0"/><path class="cls-9" d="M90.84,250.19a5.44,5.44,0,1,1,10.89,0"/><path class="cls-10" d="M89.7,249.31l.87.88a.38.38,0,0,0,.53-.53l-.87-.88a.38.38,0,0,0-.53.53Z"/><path class="cls-10" d="M91.1,250.18l.87-.88a.38.38,0,0,0-.53-.53l-.87.88a.38.38,0,0,0,.53.53Z"/><path class="cls-10" d="M103.3,252.28l-.87-.88a.38.38,0,0,0-.53.53l.87.88a.38.38,0,0,0,.53-.53Z"/><path class="cls-10" d="M101,251.4l-.87.88a.38.38,0,0,0,.53.53l.87-.88a.38.38,0,0,0-.53-.53Z"/><path class="cls-11" d="M101.42,251.62a1.1,1.1,0,0,1,.3-.15.18.18,0,0,1,.1,0l.06,0,.21.15"/><path class="cls-11" d="M101.41,251.72a2.34,2.34,0,0,1,.35-.42,3.38,3.38,0,0,0,.34.43"/><path class="cls-11" d="M101.18,251.47a3,3,0,0,0,.41-.44.24.24,0,0,1,.1-.09q.29.25.57.52"/><path class="cls-11" d="M102.05,251.44c-.13-.09-.23-.21-.37-.32l-.13.24a.31.31,0,0,1-.06.09"/><path class="cls-11" d="M101.56,251.6H102"/><path class="cls-11" d="M101.49,251.74c.12,0,.23,0,.35,0l.16,0"/><line class="cls-12" x1="58.54" y1="100.86" x2="238.35" y2="100.86"/><line class="cls-12" x1="58.54" y1="147.69" x2="429.1" y2="147.69"/><line class="cls-12" x1="58.54" y1="163.3" x2="429.1" y2="163.3"/><line class="cls-12" x1="58.54" y1="182.58" x2="228.31" y2="182.58"/><text class="cls-13" transform="translate(228.43 182.42) scale(0.99 1)">?</text><ellipse class="cls-14" cx="148.48" cy="205.48" rx="12.88" ry="12.96"/><ellipse class="cls-12" cx="361.11" cy="204.4" rx="12.88" ry="12.96"/><ellipse class="cls-12" cx="293.49" cy="205.48" rx="12.88" ry="12.96"/><ellipse class="cls-12" cx="219.44" cy="205.48" rx="12.88" ry="12.96"/><text class="cls-13" transform="translate(141.29 212.72) scale(0.99 1)">A</text><text class="cls-13" transform="translate(212.92 212.72) scale(0.99 1)">B</text><text class="cls-13" transform="translate(286.45 212.68) scale(0.99 1)">C</text><text class="cls-13" transform="translate(354.42 212.72) scale(0.99 1)">D</text><rect class="cls-15" x="110.38" y="244.29" width="25.61" height="13.44" rx="1.75" ry="1.75"/><line class="cls-16" x1="146.71" y1="240.89" x2="146.71" y2="263.84"/><line class="cls-17" x1="56.27" y1="251.47" x2="80.99" y2="251.39"/><line class="cls-17" x1="114.57" y1="251.39" x2="130.9" y2="251.47"/><line class="cls-17" x1="148.99" y1="252.36" x2="162.68" y2="252.36"/><rect class="cls-17" x="189.52" y="243.33" width="163.92" height="16.35" rx="4.13" ry="4.13"/><line class="cls-17" x1="198.6" y1="251.51" x2="342.92" y2="251.51"/><polyline class="cls-17" points="373.79 260.16 362.99 260.16 362.99 242.85 380.2 242.85 380.2 253.7"/><polyline class="cls-17" points="374.94 260.64 374.94 254.87 380.68 254.87"/><rect class="cls-17" x="433.72" y="244.78" width="21.03" height="12.5"/><ellipse class="cls-16" cx="391.19" cy="251.03" rx="3.35" ry="3.37"/><ellipse class="cls-16" cx="402.66" cy="246.22" rx="3.35" ry="3.37"/><ellipse class="cls-16" cx="402.66" cy="256.79" rx="3.35" ry="3.37"/><line class="cls-16" x1="394.53" y1="250.54" x2="400.27" y2="248.62"/><line class="cls-16" x1="393.78" y1="252.96" x2="399.11" y2="255.82"/><line class="cls-9" x1="412.69" y1="259.2" x2="427.03" y2="244.78"/><line class="cls-9" x1="427.03" y1="244.78" x2="427.03" y2="248.14"/><line class="cls-9" x1="427.03" y1="244.78" x2="423.69" y2="244.78"/><line class="cls-9" x1="412.69" y1="259.2" x2="413.08" y2="255.41"/><line class="cls-9" x1="412.69" y1="259.2" x2="416.57" y2="258.62"/><line class="cls-18" x1="58.54" y1="61.45" x2="187.25" y2="61.5"/></g><g id="Layer_9" data-name="Layer 9"><path d="M452.53,297.84a8.17,8.17,0,0,1,8.16,8.16V478.39a8.17,8.17,0,0,1-8.16,8.16H46a8.17,8.17,0,0,1-8.16-8.16V306A8.17,8.17,0,0,1,46,297.84H452.53m0-.25H46A8.41,8.41,0,0,0,37.55,306V478.39A8.41,8.41,0,0,0,46,486.8H452.53a8.41,8.41,0,0,0,8.41-8.41V306a8.41,8.41,0,0,0-8.41-8.41Z"/><path class="cls-6" d="M460.94,346H37.55V305.59a8,8,0,0,1,8-8H452.94a8,8,0,0,1,8,8Z"/><line class="cls-7" x1="49.36" y1="458.46" x2="452.85" y2="458.88"/><rect class="cls-8" x="52.41" y="464.14" width="32.81" height="13.38" rx="1.75" ry="1.75"/><path class="cls-9" d="M101.43,471.7a5.42,5.42,0,1,1-10.84,0"/><path class="cls-9" d="M90.6,470a5.42,5.42,0,1,1,10.84,0"/><path class="cls-10" d="M89.47,469.13l.87.87a.38.38,0,0,0,.53-.53L90,468.6a.38.38,0,0,0-.53.53Z"/><path class="cls-10" d="M90.86,470l.87-.87a.38.38,0,0,0-.53-.53l-.87.87a.38.38,0,0,0,.53.53Z"/><path class="cls-10" d="M103,472.09l-.87-.87a.38.38,0,0,0-.53.53l.87.87a.38.38,0,0,0,.53-.53Z"/><path class="cls-10" d="M100.74,471.22l-.87.87a.38.38,0,0,0,.53.53l.87-.87a.38.38,0,0,0-.53-.53Z"/><path class="cls-11" d="M101.13,471.44a1.1,1.1,0,0,1,.3-.15.18.18,0,0,1,.1,0l.06,0,.2.15"/><path class="cls-11" d="M101.12,471.53a2.33,2.33,0,0,1,.34-.41,3.37,3.37,0,0,0,.34.42"/><path class="cls-11" d="M100.89,471.28a3,3,0,0,0,.4-.43.24.24,0,0,1,.1-.09q.29.25.57.52"/><path class="cls-11" d="M101.76,471.26c-.13-.09-.23-.21-.37-.32l-.13.24a.31.31,0,0,1-.06.09"/><path class="cls-11" d="M101.27,471.41h.41"/><path class="cls-11" d="M101.2,471.55c.12,0,.23,0,.35,0l.15,0"/><line class="cls-12" x1="58.45" y1="321.36" x2="237.43" y2="321.36"/><line class="cls-12" x1="58.45" y1="367.97" x2="427.32" y2="367.97"/><line class="cls-12" x1="58.45" y1="383.51" x2="427.32" y2="383.51"/><line class="cls-12" x1="58.45" y1="402.71" x2="227.44" y2="402.71"/><text class="cls-19" transform="translate(227.56 402.55) scale(0.99 1)">?</text><ellipse class="cls-14" cx="147.98" cy="425.5" rx="12.82" ry="12.9"/><ellipse class="cls-12" cx="359.64" cy="424.42" rx="12.82" ry="12.9"/><ellipse class="cls-12" cx="292.33" cy="425.5" rx="12.82" ry="12.9"/><ellipse class="cls-12" cx="218.61" cy="425.5" rx="12.82" ry="12.9"/><text class="cls-19" transform="translate(140.82 432.71) scale(0.99 1)">A</text><text class="cls-19" transform="translate(212.12 432.71) scale(0.99 1)">B</text><text class="cls-19" transform="translate(285.32 432.67) scale(0.99 1)">C</text><text class="cls-19" transform="translate(352.98 432.71) scale(0.99 1)">D</text><rect class="cls-15" x="110.05" y="464.14" width="25.49" height="13.38" rx="1.75" ry="1.75"/><line class="cls-16" x1="146.22" y1="460.75" x2="146.22" y2="483.6"/><line class="cls-17" x1="56.19" y1="471.29" x2="80.79" y2="471.2"/><line class="cls-17" x1="114.22" y1="471.2" x2="130.48" y2="471.29"/><line class="cls-17" x1="148.49" y1="472.17" x2="162.12" y2="472.17"/><rect class="cls-17" x="188.83" y="463.18" width="163.17" height="16.27" rx="4.13" ry="4.13"/><line class="cls-17" x1="197.87" y1="471.32" x2="341.53" y2="471.32"/><polyline class="cls-17" points="372.26 479.93 361.51 479.93 361.51 462.7 378.64 462.7 378.64 473.5"/><polyline class="cls-17" points="373.41 480.41 373.41 474.67 379.12 474.67"/><rect class="cls-17" x="431.92" y="464.62" width="20.93" height="12.44"/><ellipse class="cls-16" cx="389.58" cy="470.84" rx="3.33" ry="3.35"/><ellipse class="cls-16" cx="401" cy="466.06" rx="3.33" ry="3.35"/><ellipse class="cls-16" cx="401" cy="476.58" rx="3.33" ry="3.35"/><line class="cls-16" x1="392.91" y1="470.36" x2="398.62" y2="468.45"/><line class="cls-16" x1="392.16" y1="472.77" x2="397.47" y2="475.61"/><line class="cls-9" x1="410.99" y1="478.98" x2="425.26" y2="464.62"/><line class="cls-9" x1="425.26" y1="464.62" x2="425.26" y2="467.97"/><line class="cls-9" x1="425.26" y1="464.62" x2="421.93" y2="464.62"/><line class="cls-9" x1="410.99" y1="478.98" x2="411.37" y2="475.2"/><line class="cls-9" x1="410.99" y1="478.98" x2="414.85" y2="478.4"/><line class="cls-18" x1="58.45" y1="287.03" x2="186.57" y2="287.09"/></g></svg>