<svg xmlns="http://www.w3.org/2000/svg" viewBox="0 0 1000 1000"><defs><style>.cls-1{fill:#5fa2d8;}.cls-1,.cls-2,.cls-3{stroke:#fff;stroke-miterlimit:10;}.cls-2,.cls-3{fill:#fff;}.cls-3{stroke-width:5px;}</style></defs><title>kipp-colored</title><g id="kipp-colored"><rect class="cls-1" x="-0.36" y="341.3" width="1000.71" height="317.41"/><ellipse class="cls-2" cx="737.19" cy="589.3" rx="19.82" ry="22.3"/><ellipse class="cls-2" cx="671.13" cy="589.3" rx="19.82" ry="22.3"/><ellipse class="cls-2" cx="933.51" cy="437.9" rx="44.04" ry="49.54"/><polygon class="cls-2" points="22.45 390.42 45.15 390.42 45.15 431.02 76.81 390.42 105.71 390.42 69.24 435.83 107.08 484 76.81 484 45.15 441.34 45.15 484 22.45 484 22.45 390.42"/><rect class="cls-2" x="112.59" y="390.42" width="24.77" height="93.58"/><path class="cls-2" d="M155.94,484V390.42h33c11,0,38.53,2.06,38.53,31,0,24.77-20.64,33.72-31.65,33.72h-17.2V484Z"/><path class="cls-2" d="M155.94,484V390.42h33c11,0,38.53,2.06,38.53,31,0,24.77-20.64,33.72-31.65,33.72h-17.2V484Z"/><path class="cls-1" d="M178.65,437.21v-28.9h11c2.75,0,14.45,2.06,14.45,14.45s-11.7,14.45-13.76,14.45Z"/><path class="cls-2" d="M235.76,484V390.42h33c11,0,38.53,2.06,38.53,31,0,24.77-20.64,33.72-31.65,33.72h-17.2V484Z"/><path class="cls-1" d="M258.47,437.21v-28.9h11c2.75,0,14.45,2.06,14.45,14.45s-11.7,14.45-13.76,14.45Z"/><circle class="cls-2" cx="339.67" cy="409.68" r="22.02"/><circle class="cls-2" cx="339.67" cy="464.73" r="22.02"/><path class="cls-2" d="M455.27,409.68V395.23s-6.88-7.57-25.46-7.57-43.35,11.7-43.35,50.92,27.52,48.86,43.35,48.86,28.9-9.63,28.9-9.63l-2.06-13.07s-11.7,9.63-26.15,9.63-30.28-8.26-30.28-35.78,13.76-37.16,29.59-37.16S455.27,409.68,455.27,409.68Z"/><path class="cls-2" d="M421,577.44V571s-3.09-3.4-11.43-3.4-19.45,5.25-19.45,22.85,12.39,21.92,19.45,21.92,13-4.32,13-4.32l-.93-5.87s-5.25,4.32-11.7,4.32-13.58-3.7-13.58-16.05,6.19-16.67,13.27-16.67A18.66,18.66,0,0,1,421,577.44Z"/><path class="cls-2" d="M564,576.75v-6.48s-3.09-3.4-11.42-3.4-19.46,5.25-19.46,22.85,12.35,21.92,19.46,21.92,13-4.32,13-4.32l-.92-5.87s-5.25,4.32-11.74,4.32-13.58-3.7-13.58-16.05,6.19-16.67,13.28-16.67A18.63,18.63,0,0,1,564,576.75Z"/><path class="cls-2" d="M681,409.68V395.23s-6.88-7.57-25.46-7.57-43.35,11.7-43.35,50.92,27.52,48.86,43.35,48.86,28.9-9.63,28.9-9.63l-2.06-13.07s-11.7,9.63-26.15,9.63-30.28-8.26-30.28-35.78,13.76-37.16,29.59-37.16S681,409.68,681,409.68Z"/><polygon class="cls-2" points="477.29 390.42 477.29 484.69 491.05 484.69 491.05 441.34 538.53 441.34 538.53 484.69 552.3 484.69 552.3 390.42 538.53 390.42 538.53 428.95 491.05 428.95 491.05 390.42 477.29 390.42"/><polygon class="cls-2" points="590.49 567.61 590.49 611.61 596.91 611.61 596.91 591.38 619.07 591.38 619.07 611.61 625.49 611.61 625.49 567.61 619.07 567.61 619.07 585.59 596.91 585.59 596.91 567.61 590.49 567.61"/><rect class="cls-2" x="577.07" y="390.42" width="13.76" height="94.27"/><polygon class="cls-2" points="696.8 484.69 711.94 484.69 722.95 455.79 758.73 455.79 770.43 484.69 784.19 481.94 747.72 390.42 733.96 390.42 696.8 484.69"/><polygon class="cls-1" points="740.84 405.56 726.39 444.78 755.29 444.78 740.84 405.56"/><path class="cls-2" d="M865.39,410.37V396.61s-6.88-8.95-27.52-8.95-44.73,12.39-44.73,50.23,23.4,49.54,46.1,49.54,33-10.32,33-10.32v-44H835.11v11.7h22.71v24.77s-4.82,4.82-18.58,4.82-33-6.88-33-35.78,16.51-37.16,31.65-37.16S865.39,410.37,865.39,410.37Z"/><ellipse class="cls-1" cx="933.51" cy="437.9" rx="30.97" ry="35.78"/><ellipse class="cls-1" cx="671.13" cy="589.3" rx="14.9" ry="17.22"/><ellipse class="cls-1" cx="737.19" cy="589.3" rx="14.9" ry="17.22"/><line class="cls-3" x1="22.45" y1="527.35" x2="977.55" y2="527.35"/><path class="cls-2" d="M143.56,612h4.82V593.41h6.88S169,594.1,169,580.34,155.94,568,155.94,568H143.56Z"/><path class="cls-1" d="M148.37,589.28h6.88s8.95,0,8.95-8.26-6.19-8.26-8.26-8.26h-7.57Z"/><path class="cls-2" d="M193.79,568H200v29.59c0,2.06,1.38,8.95,11,8.95s11-6.88,11-8.26V568h5.5v31c0,2.75-1.38,13.07-17.2,13.07s-16.51-13.07-16.51-13.07Z"/><path class="cls-2" d="M256.41,568v44h13.07s13.07,0,13.07-13.07c0,0,.69-10.32-8.95-10.32,0,0,7.57-.69,7.57-10.32S271.55,568,266,568Z"/><path class="cls-1" d="M261.91,590.66v16.51h6.19c1.38,0,8.95-1.38,8.95-7.57s-4.13-8.95-8.95-8.95Z"/><path class="cls-1" d="M261.91,572.77v14.11h5.77c1.28,0,8.33-1.18,8.33-6.47s-3.85-7.64-8.33-7.64Z"/><polygon class="cls-2" points="309.39 567.95 314.9 567.95 314.9 607.17 331.41 607.17 331.41 611.99 309.39 611.99 309.39 567.95"/><rect class="cls-2" x="357.56" y="567.95" width="4.82" height="44.04"/><path class="cls-2" d="M504.13,574.14v-4.82s-2.75-2.75-8.95-2.75-13.76,5.5-13.76,11.7,4.13,11,11.7,13.07,8.6,5.5,8.6,8.6-3.1,7.23-8.6,7.23a17,17,0,0,1-10.32-3.44l-1.38,4.82a20.93,20.93,0,0,0,11,3.44c8.26,0,15.14-4.82,15.14-10.32,0-3.44,1.38-10.32-11.7-15.14,0,0-8.26-.69-8.26-8.26S500,570,504.13,574.14Z"/><polygon class="cls-2" points="783.5 567.26 789.01 567.26 789.01 606.49 805.52 606.49 805.52 611.3 783.5 611.3 783.5 567.26"/><path class="cls-2" d="M853.69,574.14v-4.82s-2.75-2.75-8.95-2.75S831,572.08,831,578.27s4.13,11,11.7,13.07,8.6,5.5,8.6,8.6-3.1,7.23-8.6,7.23a17,17,0,0,1-10.32-3.44L831,608.55A20.93,20.93,0,0,0,842,612c8.26,0,15.14-4.82,15.14-10.32,0-3.44,1.38-10.32-11.7-15.14,0,0-8.26-.69-8.26-8.26S849.56,570,853.69,574.14Z"/></g></svg>