<svg xmlns="http://www.w3.org/2000/svg" viewBox="0 0 1000 1000"><defs><style>.cls-1{fill:#999;}.cls-2{fill:#ccc;}</style></defs><title>lgr-greyscale</title><g id="lgr-colored"><polygon class="cls-1" points="40.74 253.33 40.78 384.77 93.01 384.77 93.01 360.24 69.63 360.19 69.63 253.33 40.74 253.33"/><polygon class="cls-1" points="146.9 253.43 96.53 253.43 96.53 384.87 146.9 384.77 146.9 361.01 121.23 361.01 121.23 328.27 139.85 328.27 139.85 304.71 121.23 304.71 121.23 274.64 146.9 274.64 146.9 253.43"/><polygon class="cls-1" points="151.53 253.24 209.89 253.24 209.89 276.67 193.59 276.67 193.59 384.77 167.78 384.77 167.78 276.67 151.53 276.67 151.53 253.24"/><rect class="cls-1" x="212.22" y="253.27" width="21.03" height="23.44"/><polygon class="cls-1" points="216.92 291.03 209.28 291.03 218.28 276.7 233.25 276.7 216.92 291.03"/><polygon class="cls-1" points="106.93 390.98 158.53 390.98 158.53 414.64 132.78 414.64 132.78 442.76 149.11 442.76 149.11 465.88 132.78 465.88 132.78 498.75 158.53 498.75 158.53 524.4 106.93 524.4 106.93 390.98"/><polygon class="cls-1" points="160.84 390.98 223.96 390.98 223.96 414.68 205.24 414.68 205.24 524.4 177.11 524.4 177.11 414.68 160.84 414.68 160.84 390.98"/><polygon class="cls-1" points="501.98 390.98 385.53 390.98 385.53 692.46 501.98 692.23 501.98 637.75 442.65 637.75 442.65 562.63 485.7 562.63 485.7 508.6 442.65 508.6 442.65 439.63 501.98 439.63 501.98 390.98"/><polyline class="cls-1" points="960.7 390.98 904.09 390.98 885.53 489.14 864.31 390.98 806.31 390.98 806.31 395.58 852.7 561.26 852.7 692.57 913.55 692.57 913.55 561.26 960.7 395.58"/><path class="cls-1" d="M616.63,391H543.55l-36.9,301.6h51.42L568.52,644h23.34L602,692.57h54.61Zm-48.05,201.2,11-97,12,97Z"/><path class="cls-1" d="M39.3,495.13V418.75a26.4,26.4,0,0,1,9-20A34.71,34.71,0,0,1,71.11,390c9.51.07,18.46,4.47,25,11.32a23.07,23.07,0,0,1,6.32,15.93v25.55H76.68l.11-24.1A1.75,1.75,0,0,0,75,416.92H69a1.75,1.75,0,0,0-1.75,1.75v82.88A1.75,1.75,0,0,0,69,503.32h5.89a1.75,1.75,0,0,0,1.75-1.75V477.69H69.63V459h32.79v65.47H86v-7.05H81.38a22.94,22.94,0,0,1-14,7.05,21.33,21.33,0,0,1-3.21.1,24.61,24.61,0,0,1-5.19-.88C53.34,522,47.68,515.62,46.32,514l-.06-.07A29,29,0,0,1,39.3,495.13Z"/><polygon class="cls-1" points="160.89 391.11 224.25 391.11 224.25 414.53 205.95 414.53 205.95 524.47 177.13 524.47 177.13 414.53 160.89 414.53 160.89 391.11"/><path class="cls-1" d="M747.75,391H663.41v301.6h84.83c29.61,0,57.63-24,57.68-53.59l.31-194h0C806.27,415.17,777.57,391,747.75,391Zm0,236a12,12,0,0,1-12,12H723.85V445h11.91a12,12,0,0,1,12,12Z"/><path class="cls-1" d="M371.69,674.54a88.54,88.54,0,0,1-3-30c1.05-21.56,1.17-52.49,2.16-74.65a15.13,15.13,0,0,0-.46-4.43c-.88-3.42-2.31-8.25-4.7-11.91a40.14,40.14,0,0,0-16-14,31.54,31.54,0,0,0,13-13A30.6,30.6,0,0,0,366,515.82c-.18-51.7-.43-89.37-.54-94.79a22.59,22.59,0,0,0-.87-5.84,23.47,23.47,0,0,0-3.86-7.65,36.76,36.76,0,0,0-8-8c-12-8.6-31.64-9-31.64-9-20.38-.38-49.36-.74-84.83,0V692.49h54.89c.19-39.65.39-91.3.58-130.95h14a8.22,8.22,0,0,1,5.38,4.18,7.81,7.81,0,0,1,.62,4.82c0,1.1,0,2.86,0,5,0,5.68.1,20.89,1,43,.4,10,1.61,24.95,2,30,.73,9.33,1.26,15.81,3,24a128.83,128.83,0,0,0,6,20l53.25-.05ZM314.19,505a12,12,0,0,1-12,12h-9V442h9a12,12,0,0,1,12,12Z"/><path id="s" class="cls-1" d="M292.74,333.82A31.79,31.79,0,0,1,299,352.77v14.79h0a17.11,17.11,0,0,1-17,17.21H252a17.11,17.11,0,0,1-17-17.21h0v-24.3h24V357.6a5.87,5.87,0,0,0,5.83,5.9h3.42a5.78,5.78,0,0,0,5.75-5.82v-9.14a5.31,5.31,0,0,0-.54-2.36c-2-4-6-9.32-10.46-15.09-4.76-6.14-6.94-8.55-11-13.16a78.88,78.88,0,0,1-14-23.29,43.2,43.2,0,0,1-1-15.19c.48-4.26,1.28-11.24,6-17.21,8.25-10.42,22.48-10.16,25.5-10.13,3.27,0,14.9.18,23.5,9.11,10,10.4,7.43,30.5,7,34.43H275V280.14a5.91,5.91,0,0,0-1.66-4.06,5.75,5.75,0,0,0-4-1.68h-1.66a7.66,7.66,0,0,0-4,1.68,7.91,7.91,0,0,0-2.66,4.39,48.65,48.65,0,0,0,0,5.06c.07,1.26.07,2.39.15,3.44a8.81,8.81,0,0,0,2.12,5.12Z"/><g id="text"><path class="cls-2" d="M243.94,726a6.29,6.29,0,0,0-.81-3.49,8.89,8.89,0,0,0-2.94-2.48,12.46,12.46,0,0,1-3.38-2.78,11.79,11.79,0,0,1-2.4-7.69,12.42,12.42,0,0,1,1.73-6.84,5.18,5.18,0,0,1,4.49-2.69,4.69,4.69,0,0,1,3.27,1.32,8.81,8.81,0,0,1,2.25,3.76,16.91,16.91,0,0,1,.82,5.41h-3a8.59,8.59,0,0,0-.86-4.21,2.7,2.7,0,0,0-2.47-1.52,2.63,2.63,0,0,0-2.32,1.25,6.29,6.29,0,0,0-.83,3.49,5.32,5.32,0,0,0,.89,3.15,9.22,9.22,0,0,0,2.94,2.45,11.91,11.91,0,0,1,3.29,2.71,9.84,9.84,0,0,1,1.82,3.49,16.44,16.44,0,0,1,.58,4.61,12.2,12.2,0,0,1-1.68,6.83,5.28,5.28,0,0,1-8.07,1.16,9,9,0,0,1-2.48-3.81,16.49,16.49,0,0,1-.89-5.66h3.05a8.64,8.64,0,0,0,1,4.53,3.14,3.14,0,0,0,2.83,1.6,2.65,2.65,0,0,0,2.39-1.26A6.15,6.15,0,0,0,243.94,726Z"/><path class="cls-2" d="M262.35,705.27h-5.48V734.8h-3V705.27h-5.43v-4.81h13.93Z"/><path class="cls-2" d="M277.5,700.46v22.95a17.77,17.77,0,0,1-1.79,8.67q-1.79,3.2-4.77,3.2t-4.79-3.15q-1.77-3.15-1.77-8.74V700.46h3v23a12.27,12.27,0,0,0,.89,5.26,2.83,2.83,0,0,0,2.63,1.82q3.52,0,3.52-7.26V700.46Z"/><path class="cls-2" d="M280.76,734.8V700.46h5.19a5.41,5.41,0,0,1,4.13,2,14,14,0,0,1,2.79,5.75,33.41,33.41,0,0,1,1,8.54v1.72a33.22,33.22,0,0,1-1,8.58A13.51,13.51,0,0,1,290,732.8a5.58,5.58,0,0,1-4.21,2Zm3.05-29.53V730h2q2.4,0,3.68-2.94a22,22,0,0,0,1.31-8.43v-1.91a22.87,22.87,0,0,0-1.24-8.54q-1.24-2.95-3.61-2.95Z"/><path class="cls-2" d="M307.15,719.47h-7.21V730h8.43v4.76H296.89V700.46h11.4v4.81h-8.35v9.48h7.21Z"/><path class="cls-2" d="M324.79,734.8h-3.05l-7.83-24.36V734.8h-3.05V700.46h3.05l7.85,24.46V700.46h3Z"/><path class="cls-2" d="M340.73,705.27h-5.48V734.8h-3V705.27H326.8v-4.81h13.93Z"/><path class="cls-2" d="M352,726a6.29,6.29,0,0,0-.81-3.49,8.89,8.89,0,0,0-2.94-2.48,12.46,12.46,0,0,1-3.38-2.78,11.79,11.79,0,0,1-2.4-7.69,12.42,12.42,0,0,1,1.73-6.84,5.18,5.18,0,0,1,4.49-2.69,4.69,4.69,0,0,1,3.27,1.32,8.81,8.81,0,0,1,2.25,3.76,16.91,16.91,0,0,1,.82,5.41h-3a8.59,8.59,0,0,0-.86-4.21,2.7,2.7,0,0,0-2.47-1.52,2.63,2.63,0,0,0-2.32,1.25,6.29,6.29,0,0,0-.83,3.49,5.32,5.32,0,0,0,.89,3.15,9.22,9.22,0,0,0,2.94,2.45,11.91,11.91,0,0,1,3.29,2.71,9.84,9.84,0,0,1,1.82,3.49,16.44,16.44,0,0,1,.58,4.61,12.2,12.2,0,0,1-1.68,6.83,5.28,5.28,0,0,1-8.07,1.16,9,9,0,0,1-2.48-3.81,16.49,16.49,0,0,1-.89-5.66H345a8.64,8.64,0,0,0,1,4.53,3.14,3.14,0,0,0,2.83,1.6,2.65,2.65,0,0,0,2.39-1.26A6.15,6.15,0,0,0,352,726Z"/><path class="cls-2" d="M377.84,734.8h-3V719.56h-7.85V734.8H363.9V700.46h3.05v14.29h7.85V700.46h3Z"/><path class="cls-2" d="M391.71,719.47h-7.21V730h8.43v4.76H381.44V700.46h11.4v4.81h-8.35v9.48h7.21Z"/><path class="cls-2" d="M398.46,730h8v4.76h-11V700.46h3.05Z"/><path class="cls-2" d="M411.82,722.06V734.8h-3.05V700.46h6.72a5.24,5.24,0,0,1,4.67,3,15.81,15.81,0,0,1,1.73,7.93q0,5.05-1.69,7.86a5.28,5.28,0,0,1-4.75,2.81Zm0-4.81h3.67a2.71,2.71,0,0,0,2.48-1.5,8.86,8.86,0,0,0,.86-4.33A9.65,9.65,0,0,0,418,707a2.75,2.75,0,0,0-2.39-1.71h-3.75Z"/><path class="cls-2" d="M427.78,734.8h-3V700.46h3Z"/><path class="cls-2" d="M445.46,734.8H442.4l-7.83-24.36V734.8h-3.05V700.46h3.05l7.85,24.46V700.46h3Z"/><path class="cls-2" d="M462.52,730.34a8.11,8.11,0,0,1-2.64,3.68,6.28,6.28,0,0,1-3.83,1.25,5.07,5.07,0,0,1-3.91-2,13.52,13.52,0,0,1-2.62-5.6,35.94,35.94,0,0,1-1-8.5v-2.69q0-7.78,1.91-12.16t5.32-4.37a5.24,5.24,0,0,1,4.66,2.84,18.26,18.26,0,0,1,2.07,8.17h-3q-.51-6.2-3.68-6.2-2.05,0-3.12,2.89a26.22,26.22,0,0,0-1.1,8.47v2.64a24.6,24.6,0,0,0,1.2,8.64q1.2,3.07,3.33,3.07a3.42,3.42,0,0,0,3.33-2.08v-6.72h-3.62v-4.53h6.66Z"/><path class="cls-2" d="M481.2,726a6.29,6.29,0,0,0-.81-3.49,8.89,8.89,0,0,0-2.94-2.48,12.46,12.46,0,0,1-3.38-2.78,11.79,11.79,0,0,1-2.4-7.69,12.42,12.42,0,0,1,1.73-6.84A5.18,5.18,0,0,1,477.9,700a4.69,4.69,0,0,1,3.27,1.32,8.81,8.81,0,0,1,2.25,3.76,16.91,16.91,0,0,1,.82,5.41h-3a8.59,8.59,0,0,0-.86-4.21,2.7,2.7,0,0,0-2.47-1.52,2.63,2.63,0,0,0-2.32,1.25,6.29,6.29,0,0,0-.83,3.49,5.32,5.32,0,0,0,.89,3.15,9.22,9.22,0,0,0,2.94,2.45,11.91,11.91,0,0,1,3.29,2.71,9.84,9.84,0,0,1,1.82,3.49,16.44,16.44,0,0,1,.58,4.61,12.2,12.2,0,0,1-1.68,6.83,5.28,5.28,0,0,1-8.07,1.16,9,9,0,0,1-2.48-3.81,16.49,16.49,0,0,1-.89-5.66h3.05a8.64,8.64,0,0,0,1,4.53,3.14,3.14,0,0,0,2.83,1.6,2.65,2.65,0,0,0,2.39-1.26A6.15,6.15,0,0,0,481.2,726Z"/><path class="cls-2" d="M499.62,705.27h-5.48V734.8h-3V705.27h-5.43v-4.81h13.93Z"/><path class="cls-2" d="M514.76,700.46v22.95a17.78,17.78,0,0,1-1.79,8.67q-1.79,3.2-4.77,3.2t-4.79-3.15q-1.77-3.15-1.77-8.74V700.46h3v23a12.27,12.27,0,0,0,.89,5.26,2.83,2.83,0,0,0,2.63,1.82q3.52,0,3.52-7.26V700.46Z"/><path class="cls-2" d="M518,734.8V700.46h5.19a5.41,5.41,0,0,1,4.13,2,14,14,0,0,1,2.79,5.75,33.41,33.41,0,0,1,1,8.54v1.72a33.24,33.24,0,0,1-1,8.58,13.52,13.52,0,0,1-2.83,5.71,5.58,5.58,0,0,1-4.21,2Zm3.05-29.53V730h2q2.4,0,3.68-2.94a22,22,0,0,0,1.31-8.43v-1.91a22.87,22.87,0,0,0-1.24-8.54q-1.24-2.95-3.61-2.95Z"/><path class="cls-2" d="M544.42,719.47h-7.21V730h8.43v4.76H534.15V700.46h11.4v4.81h-8.35v9.48h7.21Z"/><path class="cls-2" d="M562,734.8H559l-7.83-24.36V734.8h-3.05V700.46h3.05L559,724.92V700.46h3Z"/><path class="cls-2" d="M578,705.27h-5.48V734.8h-3V705.27h-5.43v-4.81H578Z"/><path class="cls-2" d="M589.28,726a6.29,6.29,0,0,0-.81-3.49,8.89,8.89,0,0,0-2.94-2.48,12.46,12.46,0,0,1-3.38-2.78,11.8,11.8,0,0,1-2.4-7.69,12.41,12.41,0,0,1,1.73-6.84A5.18,5.18,0,0,1,586,700a4.69,4.69,0,0,1,3.27,1.32,8.81,8.81,0,0,1,2.26,3.76,16.94,16.94,0,0,1,.82,5.41h-3a8.58,8.58,0,0,0-.86-4.21,2.7,2.7,0,0,0-2.47-1.52,2.63,2.63,0,0,0-2.32,1.25,6.29,6.29,0,0,0-.83,3.49,5.31,5.31,0,0,0,.89,3.15,9.21,9.21,0,0,0,2.94,2.45,11.92,11.92,0,0,1,3.29,2.71,9.84,9.84,0,0,1,1.82,3.49,16.44,16.44,0,0,1,.58,4.61,12.2,12.2,0,0,1-1.68,6.83,5.28,5.28,0,0,1-8.07,1.16,9,9,0,0,1-2.48-3.81,16.49,16.49,0,0,1-.89-5.66h3.05a8.65,8.65,0,0,0,1,4.53,3.14,3.14,0,0,0,2.83,1.6,2.65,2.65,0,0,0,2.39-1.26A6.15,6.15,0,0,0,589.28,726Z"/><path class="cls-2" d="M613.12,705.27h-5.48V734.8h-3V705.27h-5.43v-4.81h13.93Z"/><path class="cls-2" d="M629.1,718.53a39.12,39.12,0,0,1-.89,8.86,14.49,14.49,0,0,1-2.55,5.85,4.58,4.58,0,0,1-7.62,0,14.52,14.52,0,0,1-2.58-5.81,37.73,37.73,0,0,1-.92-8.7v-1.93a38.69,38.69,0,0,1,.91-8.87A14.66,14.66,0,0,1,618,702a4.58,4.58,0,0,1,7.61,0,14.36,14.36,0,0,1,2.56,5.8,38.61,38.61,0,0,1,.92,8.81ZM626,716.73a26.87,26.87,0,0,0-1.1-8.75q-1.1-3-3.13-3t-3.09,3a26.14,26.14,0,0,0-1.14,8.57v2a26.58,26.58,0,0,0,1.13,8.75q1.13,3.09,3.13,3.09t3.12-3a27.3,27.3,0,0,0,1.09-8.82Z"/><path class="cls-2" d="M648.12,726.81h-6.8l-1.42,8h-3.17l6.63-34.34h2.74l6.64,34.34h-3.18ZM642.17,722h5.09l-2.54-14.25Z"/><path class="cls-2" d="M668.66,734.8h-3.05l-7.83-24.36V734.8h-3.05V700.46h3.05l7.85,24.46V700.46h3Z"/><path class="cls-2" d="M672.26,734.8V700.46h5.19a5.41,5.41,0,0,1,4.13,2,14,14,0,0,1,2.79,5.75,33.41,33.41,0,0,1,1,8.54v1.72a33.24,33.24,0,0,1-1,8.58,13.52,13.52,0,0,1-2.83,5.71,5.58,5.58,0,0,1-4.21,2Zm3.05-29.53V730h2q2.4,0,3.68-2.94a22,22,0,0,0,1.31-8.43v-1.91a22.87,22.87,0,0,0-1.24-8.54q-1.24-2.95-3.61-2.95Z"/><path class="cls-2" d="M706.51,705.27H701V734.8h-3V705.27h-5.43v-4.81h13.93Z"/><path class="cls-2" d="M722.76,734.8h-3V719.56h-7.85V734.8h-3.05V700.46h3.05v14.29h7.85V700.46h3Z"/><path class="cls-2" d="M732.81,721.59h-3.4V734.8h-3.05V700.46h6.17a5.22,5.22,0,0,1,4.69,2.67q1.65,2.67,1.65,7.72a16.93,16.93,0,0,1-.85,5.77,8.11,8.11,0,0,1-2.37,3.58l3.94,14.3v.31h-3.27Zm-3.4-4.81h3.14a2.67,2.67,0,0,0,2.41-1.52,8.43,8.43,0,0,0,.87-4.16,9.26,9.26,0,0,0-.8-4.27,2.67,2.67,0,0,0-2.39-1.56h-3.22Z"/><path class="cls-2" d="M755.79,718.53a39.12,39.12,0,0,1-.89,8.86,14.49,14.49,0,0,1-2.55,5.85,4.58,4.58,0,0,1-7.62,0,14.52,14.52,0,0,1-2.58-5.81,37.73,37.73,0,0,1-.92-8.7v-1.93a38.69,38.69,0,0,1,.91-8.87A14.66,14.66,0,0,1,744.7,702a4.58,4.58,0,0,1,7.61,0,14.36,14.36,0,0,1,2.56,5.8,38.61,38.61,0,0,1,.92,8.81Zm-3.05-1.79a26.87,26.87,0,0,0-1.1-8.75q-1.1-3-3.13-3t-3.09,3a26.14,26.14,0,0,0-1.14,8.57v2a26.58,26.58,0,0,0,1.13,8.75q1.13,3.09,3.13,3.09t3.12-3a27.3,27.3,0,0,0,1.09-8.82Z"/><path class="cls-2" d="M771.67,700.46v22.95a17.78,17.78,0,0,1-1.79,8.67q-1.79,3.2-4.77,3.2t-4.79-3.15q-1.77-3.15-1.77-8.74V700.46h3v23a12.28,12.28,0,0,0,.89,5.26,2.83,2.83,0,0,0,2.63,1.82q3.52,0,3.52-7.26V700.46Z"/><path class="cls-2" d="M788.38,730.34a8.11,8.11,0,0,1-2.64,3.68,6.28,6.28,0,0,1-3.83,1.25,5.07,5.07,0,0,1-3.91-2,13.52,13.52,0,0,1-2.62-5.6,36,36,0,0,1-1-8.5v-2.69q0-7.78,1.91-12.16t5.32-4.37a5.24,5.24,0,0,1,4.66,2.84,18.26,18.26,0,0,1,2.07,8.17h-3q-.51-6.2-3.68-6.2-2.05,0-3.12,2.89a26.18,26.18,0,0,0-1.1,8.47v2.64a24.61,24.61,0,0,0,1.2,8.64q1.2,3.07,3.33,3.07a3.42,3.42,0,0,0,3.33-2.08v-6.72h-3.62v-4.53h6.66Z"/><path class="cls-2" d="M805.68,734.8h-3V719.56h-7.85V734.8h-3.05V700.46h3.05v14.29h7.85V700.46h3Z"/><path class="cls-2" d="M828.83,723.62a18.85,18.85,0,0,1-2.07,8.57,5.43,5.43,0,0,1-4.81,3.08,4.7,4.7,0,0,1-3.7-1.95,13.78,13.78,0,0,1-2.47-5.53,36.75,36.75,0,0,1-.9-8.33v-3.21a37.25,37.25,0,0,1,.88-8.56,14.08,14.08,0,0,1,2.53-5.71,4.84,4.84,0,0,1,3.8-2q2.91,0,4.68,3.08t2.06,8.71h-3a13.61,13.61,0,0,0-1.1-5.34,2.81,2.81,0,0,0-2.6-1.64q-2,0-3.06,2.84a25.31,25.31,0,0,0-1.09,8.35v3a27.19,27.19,0,0,0,1,8.5q1,2.93,3,2.93a2.92,2.92,0,0,0,2.7-1.58,13,13,0,0,0,1.15-5.26Z"/><path class="cls-2" d="M845.57,718.53a39.12,39.12,0,0,1-.89,8.86,14.49,14.49,0,0,1-2.55,5.85,4.58,4.58,0,0,1-7.62,0,14.52,14.52,0,0,1-2.58-5.81,37.73,37.73,0,0,1-.92-8.7v-1.93a38.69,38.69,0,0,1,.91-8.87,14.66,14.66,0,0,1,2.57-5.88,4.58,4.58,0,0,1,7.61,0,14.36,14.36,0,0,1,2.56,5.8,38.61,38.61,0,0,1,.92,8.81Zm-3.05-1.79a26.87,26.87,0,0,0-1.1-8.75q-1.1-3-3.13-3t-3.09,3a26.14,26.14,0,0,0-1.14,8.57v2a26.58,26.58,0,0,0,1.13,8.75q1.13,3.09,3.13,3.09t3.12-3a27.3,27.3,0,0,0,1.09-8.82Z"/><path class="cls-2" d="M851.66,730h8v4.76h-11V700.46h3.05Z"/><path class="cls-2" d="M865,730h8v4.76H862V700.46H865Z"/><path class="cls-2" d="M885.6,719.47h-7.21V730h8.43v4.76H875.34V700.46h11.4v4.81h-8.35v9.48h7.21Z"/><path class="cls-2" d="M902.76,730.34a8.11,8.11,0,0,1-2.64,3.68,6.28,6.28,0,0,1-3.83,1.25,5.07,5.07,0,0,1-3.91-2,13.52,13.52,0,0,1-2.62-5.6,36,36,0,0,1-1-8.5v-2.69q0-7.78,1.91-12.16T896,700a5.24,5.24,0,0,1,4.66,2.84,18.26,18.26,0,0,1,2.07,8.17h-3q-.51-6.2-3.68-6.2-2.05,0-3.12,2.89a26.18,26.18,0,0,0-1.1,8.47v2.64a24.61,24.61,0,0,0,1.2,8.64q1.2,3.07,3.33,3.07a3.42,3.42,0,0,0,3.33-2.08v-6.72H896.1v-4.53h6.66Z"/><path class="cls-2" d="M916.38,719.47h-7.21V730h8.43v4.76H906.11V700.46h11.4v4.81h-8.35v9.48h7.21Z"/></g></g></svg>