<svg xmlns="http://www.w3.org/2000/svg" viewBox="0 0 1000 1000"><defs><style>.cls-1{fill:#ff1d25;}.cls-2{fill:#1bc2ef;}</style></defs><title>lgr-colored</title><g id="lgr-colored"><polygon class="cls-1" points="40.74 253.33 40.78 384.77 93.01 384.77 93.01 360.24 69.63 360.19 69.63 253.33 40.74 253.33"/><polygon class="cls-1" points="146.9 253.43 96.53 253.43 96.53 384.87 146.9 384.77 146.9 361.01 121.23 361.01 121.23 328.27 139.85 328.27 139.85 304.71 121.23 304.71 121.23 274.64 146.9 274.64 146.9 253.43"/><polygon class="cls-1" points="151.53 253.24 209.89 253.24 209.89 276.67 193.59 276.67 193.59 384.77 167.78 384.77 167.78 276.67 151.53 276.67 151.53 253.24"/><rect class="cls-1" x="212.22" y="253.27" width="21.03" height="23.44"/><polygon class="cls-1" points="216.92 291.03 209.28 291.03 218.28 276.7 233.25 276.7 216.92 291.03"/><polygon class="cls-1" points="106.93 390.98 158.53 390.98 158.53 414.64 132.78 414.64 132.78 442.76 149.11 442.76 149.11 465.88 132.78 465.88 132.78 498.75 158.53 498.75 158.53 524.4 106.93 524.4 106.93 390.98"/><polygon class="cls-1" points="160.84 390.98 223.96 390.98 223.96 414.68 205.24 414.68 205.24 524.4 177.11 524.4 177.11 414.68 160.84 414.68 160.84 390.98"/><polygon class="cls-1" points="501.98 390.98 385.53 390.98 385.53 692.46 501.98 692.23 501.98 637.75 442.65 637.75 442.65 562.63 485.7 562.63 485.7 508.6 442.65 508.6 442.65 439.63 501.98 439.63 501.98 390.98"/><polygon class="cls-1" points="864.31 390.98 806.31 390.98 806.31 395.58 852.7 561.26 852.7 692.57 913.55 692.57 913.55 561.26 960.7 395.58 960.7 390.98 904.09 390.98 885.53 489.14 864.31 390.98"/><path class="cls-1" d="M616.63,391H543.55l-36.9,301.6h51.42L568.52,644h23.34L602,692.57h54.61Zm-48.05,201.2,11-97,12,97Z"/><path class="cls-1" d="M39.3,495.13V418.75a26.4,26.4,0,0,1,9-20A34.71,34.71,0,0,1,71.11,390c9.51.07,18.46,4.47,25,11.32a23.07,23.07,0,0,1,6.32,15.93v25.55H76.68l.11-24.1A1.75,1.75,0,0,0,75,416.92H69a1.75,1.75,0,0,0-1.75,1.75v82.88A1.75,1.75,0,0,0,69,503.32h5.89a1.75,1.75,0,0,0,1.75-1.75V477.69H69.63V459h32.79v65.47H86v-7.05H81.38a22.94,22.94,0,0,1-14,7.05,21.33,21.33,0,0,1-3.21.1,24.61,24.61,0,0,1-5.19-.88C53.34,522,47.68,515.62,46.32,514l-.06-.07A29,29,0,0,1,39.3,495.13Z"/><polygon class="cls-1" points="160.89 391.11 224.25 391.11 224.25 414.53 205.95 414.53 205.95 524.47 177.13 524.47 177.13 414.53 160.89 414.53 160.89 391.11"/><path class="cls-1" d="M747.75,391H663.41v301.6h84.83c29.61,0,57.63-24,57.68-53.59h0l.31-194h0C806.27,415.17,777.57,391,747.75,391Zm0,236a12,12,0,0,1-12,12H723.85V445h11.91a12,12,0,0,1,12,12Z"/><path class="cls-1" d="M371.69,674.54a88.54,88.54,0,0,1-3-30c1.05-21.56,1.17-52.49,2.16-74.65a15.13,15.13,0,0,0-.46-4.43c-.88-3.42-2.31-8.25-4.7-11.91a40.14,40.14,0,0,0-16-14,31.54,31.54,0,0,0,13-13A30.6,30.6,0,0,0,366,515.82c-.18-51.7-.43-89.37-.54-94.79a22.59,22.59,0,0,0-.87-5.84,23.47,23.47,0,0,0-3.86-7.65,36.76,36.76,0,0,0-8-8c-12-8.6-31.64-9-31.64-9-20.38-.38-49.36-.74-84.83,0V692.49h54.89c.19-39.65.39-91.3.58-130.95h14a8.22,8.22,0,0,1,5.38,4.18,7.81,7.81,0,0,1,.62,4.82c0,1.1,0,2.86,0,5,0,5.68.1,20.89,1,43,.4,10,1.61,24.95,2,30,.73,9.33,1.26,15.81,3,24a128.83,128.83,0,0,0,6,20l53.25-.05ZM314.19,505a12,12,0,0,1-12,12h-9V442h9a12,12,0,0,1,12,12Z"/><path id="s" class="cls-1" d="M292.74,333.82A31.79,31.79,0,0,1,299,352.77v14.79h0a17.11,17.11,0,0,1-17,17.21H252a17.11,17.11,0,0,1-17-17.21h0v-24.3h24V357.6a5.87,5.87,0,0,0,5.83,5.9h3.42a5.78,5.78,0,0,0,5.75-5.82v-9.14a5.31,5.31,0,0,0-.54-2.36c-2-4-6-9.32-10.46-15.09-4.76-6.14-6.94-8.55-11-13.16a78.88,78.88,0,0,1-14-23.29,43.2,43.2,0,0,1-1-15.19c.48-4.26,1.28-11.24,6-17.21,8.25-10.42,22.48-10.16,25.5-10.13,3.27,0,14.9.18,23.5,9.11,10,10.4,7.43,30.5,7,34.43H275V280.14a5.91,5.91,0,0,0-1.66-4.06,5.75,5.75,0,0,0-4-1.68h-1.66a7.66,7.66,0,0,0-4,1.68,7.91,7.91,0,0,0-2.66,4.39,48.65,48.65,0,0,0,0,5.06c.07,1.26.07,2.39.15,3.44a8.81,8.81,0,0,0,2.12,5.12Z"/><g id="text"><path class="cls-2" d="M243.87,726a6.32,6.32,0,0,0-.81-3.49,8.84,8.84,0,0,0-2.92-2.48,12.41,12.41,0,0,1-3.36-2.78,11.84,11.84,0,0,1-2.39-7.69,12.47,12.47,0,0,1,1.72-6.84,5.14,5.14,0,0,1,4.47-2.69,4.65,4.65,0,0,1,3.25,1.32,8.81,8.81,0,0,1,2.24,3.76,17,17,0,0,1,.81,5.41h-3a8.63,8.63,0,0,0-.86-4.21,2.68,2.68,0,0,0-2.45-1.52,2.61,2.61,0,0,0-2.31,1.25,6.32,6.32,0,0,0-.82,3.49,5.34,5.34,0,0,0,.89,3.15,9.17,9.17,0,0,0,2.92,2.45,11.86,11.86,0,0,1,3.27,2.71,9.86,9.86,0,0,1,1.81,3.49,16.54,16.54,0,0,1,.58,4.61,12.26,12.26,0,0,1-1.67,6.83,5.23,5.23,0,0,1-8,1.16,9,9,0,0,1-2.47-3.81,16.58,16.58,0,0,1-.88-5.66h3a8.69,8.69,0,0,0,1,4.53,3.12,3.12,0,0,0,2.82,1.6,2.63,2.63,0,0,0,2.38-1.26A6.18,6.18,0,0,0,243.87,726Z"/><path class="cls-2" d="M262.18,705.27h-5.44V734.8h-3V705.27h-5.39v-4.81h13.85Z"/><path class="cls-2" d="M277.23,700.46v22.95a17.86,17.86,0,0,1-1.78,8.67q-1.78,3.2-4.74,3.2T266,732.12q-1.76-3.15-1.76-8.74V700.46h3v23a12.34,12.34,0,0,0,.89,5.26,2.81,2.81,0,0,0,2.61,1.82q3.5,0,3.5-7.26V700.46Z"/><path class="cls-2" d="M280.47,734.8V700.46h5.15a5.36,5.36,0,0,1,4.11,2,14,14,0,0,1,2.78,5.75,33.62,33.62,0,0,1,1,8.54v1.72a33.41,33.41,0,0,1-1,8.58,13.54,13.54,0,0,1-2.82,5.71,5.54,5.54,0,0,1-4.19,2Zm3-29.53V730h2q2.39,0,3.66-2.94a22.15,22.15,0,0,0,1.3-8.43v-1.91a23,23,0,0,0-1.23-8.54q-1.23-2.95-3.58-2.95Z"/><path class="cls-2" d="M306.71,719.47h-7.17V730h8.38v4.76H296.51V700.46h11.33v4.81h-8.3v9.48h7.17Z"/><path class="cls-2" d="M324.24,734.8h-3l-7.78-24.36V734.8h-3V700.46h3l7.8,24.46V700.46h3Z"/><path class="cls-2" d="M340.08,705.27h-5.44V734.8h-3V705.27h-5.39v-4.81h13.85Z"/><path class="cls-2" d="M351.31,726a6.32,6.32,0,0,0-.81-3.49,8.84,8.84,0,0,0-2.92-2.48,12.41,12.41,0,0,1-3.36-2.78,11.84,11.84,0,0,1-2.39-7.69,12.47,12.47,0,0,1,1.72-6.84A5.14,5.14,0,0,1,348,700a4.65,4.65,0,0,1,3.25,1.32,8.81,8.81,0,0,1,2.24,3.76,17,17,0,0,1,.81,5.41h-3a8.63,8.63,0,0,0-.86-4.21,2.68,2.68,0,0,0-2.45-1.52,2.61,2.61,0,0,0-2.31,1.25,6.32,6.32,0,0,0-.82,3.49,5.34,5.34,0,0,0,.89,3.15,9.17,9.17,0,0,0,2.92,2.45,11.86,11.86,0,0,1,3.27,2.71,9.86,9.86,0,0,1,1.81,3.49,16.54,16.54,0,0,1,.58,4.61,12.26,12.26,0,0,1-1.67,6.83,5.23,5.23,0,0,1-8,1.16,9,9,0,0,1-2.47-3.81,16.58,16.58,0,0,1-.88-5.66h3a8.69,8.69,0,0,0,1,4.53,3.12,3.12,0,0,0,2.82,1.6,2.63,2.63,0,0,0,2.38-1.26A6.18,6.18,0,0,0,351.31,726Z"/><path class="cls-2" d="M377,734.8h-3V719.56h-7.8V734.8h-3V700.46h3v14.29H374V700.46h3Z"/><path class="cls-2" d="M390.76,719.47h-7.17V730H392v4.76H380.56V700.46h11.33v4.81h-8.3v9.48h7.17Z"/><path class="cls-2" d="M397.47,730h7.92v4.76h-11V700.46h3Z"/><path class="cls-2" d="M410.75,722.06V734.8h-3V700.46h6.68a5.2,5.2,0,0,1,4.65,3,15.88,15.88,0,0,1,1.72,7.93q0,5.05-1.68,7.86a5.24,5.24,0,0,1-4.72,2.81Zm0-4.81h3.64a2.69,2.69,0,0,0,2.47-1.5,8.9,8.9,0,0,0,.85-4.33,9.7,9.7,0,0,0-.86-4.45,2.73,2.73,0,0,0-2.37-1.71h-3.73Z"/><path class="cls-2" d="M426.61,734.8h-3V700.46h3Z"/><path class="cls-2" d="M444.19,734.8h-3l-7.78-24.36V734.8h-3V700.46h3l7.8,24.46V700.46h3Z"/><path class="cls-2" d="M461.15,730.34a8.11,8.11,0,0,1-2.62,3.68,6.22,6.22,0,0,1-3.81,1.25,5,5,0,0,1-3.88-2,13.56,13.56,0,0,1-2.61-5.6,36.17,36.17,0,0,1-1-8.5v-2.69q0-7.78,1.89-12.16t5.29-4.37a5.21,5.21,0,0,1,4.63,2.84,18.34,18.34,0,0,1,2.06,8.17h-3q-.5-6.2-3.66-6.2-2,0-3.1,2.89a26.35,26.35,0,0,0-1.1,8.47v2.64a24.74,24.74,0,0,0,1.19,8.64q1.19,3.07,3.31,3.07a3.39,3.39,0,0,0,3.31-2.08v-6.72h-3.6v-4.53h6.62Z"/><path class="cls-2" d="M479.72,726a6.32,6.32,0,0,0-.81-3.49A8.84,8.84,0,0,0,476,720a12.41,12.41,0,0,1-3.36-2.78,11.84,11.84,0,0,1-2.39-7.69,12.47,12.47,0,0,1,1.72-6.84,5.14,5.14,0,0,1,4.47-2.69,4.65,4.65,0,0,1,3.25,1.32,8.81,8.81,0,0,1,2.24,3.76,17,17,0,0,1,.81,5.41h-3a8.63,8.63,0,0,0-.86-4.21,2.68,2.68,0,0,0-2.45-1.52A2.61,2.61,0,0,0,474.1,706a6.32,6.32,0,0,0-.82,3.49,5.34,5.34,0,0,0,.89,3.15,9.17,9.17,0,0,0,2.92,2.45,11.86,11.86,0,0,1,3.27,2.71,9.86,9.86,0,0,1,1.81,3.49,16.54,16.54,0,0,1,.58,4.61,12.26,12.26,0,0,1-1.67,6.83,5.23,5.23,0,0,1-8,1.16,9,9,0,0,1-2.47-3.81,16.58,16.58,0,0,1-.88-5.66h3a8.69,8.69,0,0,0,1,4.53,3.12,3.12,0,0,0,2.82,1.6,2.63,2.63,0,0,0,2.38-1.26A6.18,6.18,0,0,0,479.72,726Z"/><path class="cls-2" d="M498,705.27h-5.44V734.8h-3V705.27h-5.39v-4.81H498Z"/><path class="cls-2" d="M513.08,700.46v22.95a17.88,17.88,0,0,1-1.78,8.67q-1.78,3.2-4.74,3.2t-4.76-3.15Q500,729,500,723.39V700.46h3v23a12.34,12.34,0,0,0,.89,5.26,2.81,2.81,0,0,0,2.61,1.82q3.5,0,3.5-7.26V700.46Z"/><path class="cls-2" d="M516.32,734.8V700.46h5.15a5.37,5.37,0,0,1,4.11,2,14,14,0,0,1,2.77,5.75,33.6,33.6,0,0,1,1,8.54v1.72a33.43,33.43,0,0,1-1,8.58,13.54,13.54,0,0,1-2.82,5.71,5.54,5.54,0,0,1-4.19,2Zm3-29.53V730h2q2.38,0,3.66-2.94a22.15,22.15,0,0,0,1.3-8.43v-1.91a23,23,0,0,0-1.23-8.54q-1.23-2.95-3.58-2.95Z"/><path class="cls-2" d="M542.56,719.47h-7.17V730h8.38v4.76H532.36V700.46h11.33v4.81h-8.3v9.48h7.17Z"/><path class="cls-2" d="M560.08,734.8h-3l-7.78-24.36V734.8h-3V700.46h3l7.8,24.46V700.46h3Z"/><path class="cls-2" d="M575.93,705.27h-5.44V734.8h-3V705.27h-5.39v-4.81h13.85Z"/><path class="cls-2" d="M587.15,726a6.33,6.33,0,0,0-.81-3.49,8.86,8.86,0,0,0-2.92-2.48,12.4,12.4,0,0,1-3.36-2.78,11.84,11.84,0,0,1-2.39-7.69,12.48,12.48,0,0,1,1.72-6.84,5.14,5.14,0,0,1,4.47-2.69,4.65,4.65,0,0,1,3.25,1.32,8.83,8.83,0,0,1,2.24,3.76,17,17,0,0,1,.82,5.41h-3a8.63,8.63,0,0,0-.86-4.21,2.68,2.68,0,0,0-2.45-1.52,2.61,2.61,0,0,0-2.31,1.25,6.33,6.33,0,0,0-.82,3.49,5.34,5.34,0,0,0,.89,3.15,9.17,9.17,0,0,0,2.92,2.45,11.86,11.86,0,0,1,3.27,2.71,9.86,9.86,0,0,1,1.81,3.49,16.52,16.52,0,0,1,.58,4.61,12.26,12.26,0,0,1-1.67,6.83,5.23,5.23,0,0,1-8,1.16,9,9,0,0,1-2.47-3.81,16.57,16.57,0,0,1-.88-5.66h3a8.69,8.69,0,0,0,1,4.53,3.12,3.12,0,0,0,2.82,1.6,2.63,2.63,0,0,0,2.38-1.26A6.18,6.18,0,0,0,587.15,726Z"/><path class="cls-2" d="M610.85,705.27h-5.44V734.8h-3V705.27H597v-4.81h13.85Z"/><path class="cls-2" d="M626.74,718.53a39.31,39.31,0,0,1-.89,8.86,14.51,14.51,0,0,1-2.54,5.85,4.54,4.54,0,0,1-7.58,0,14.56,14.56,0,0,1-2.57-5.81,37.91,37.91,0,0,1-.92-8.7v-1.93a38.93,38.93,0,0,1,.91-8.87,14.71,14.71,0,0,1,2.55-5.88,4.54,4.54,0,0,1,7.56,0,14.4,14.4,0,0,1,2.55,5.8,38.79,38.79,0,0,1,.91,8.81Zm-3-1.79a27,27,0,0,0-1.1-8.75q-1.1-3-3.11-3t-3.07,3a26.3,26.3,0,0,0-1.13,8.57v2a26.71,26.71,0,0,0,1.12,8.75q1.12,3.09,3.11,3.09t3.1-3a27.45,27.45,0,0,0,1.08-8.82Z"/><path class="cls-2" d="M645.64,726.81h-6.76l-1.42,8h-3.15l6.59-34.34h2.72l6.61,34.34h-3.17ZM639.73,722h5.06l-2.53-14.25Z"/><path class="cls-2" d="M666.05,734.8h-3l-7.78-24.36V734.8h-3V700.46h3l7.8,24.46V700.46h3Z"/><path class="cls-2" d="M669.64,734.8V700.46h5.15a5.37,5.37,0,0,1,4.11,2,14,14,0,0,1,2.77,5.75,33.6,33.6,0,0,1,1,8.54v1.72a33.43,33.43,0,0,1-1,8.58,13.54,13.54,0,0,1-2.82,5.71,5.54,5.54,0,0,1-4.19,2Zm3-29.53V730h2q2.38,0,3.66-2.94a22.15,22.15,0,0,0,1.3-8.43v-1.91a23,23,0,0,0-1.23-8.54q-1.23-2.95-3.58-2.95Z"/><path class="cls-2" d="M703.68,705.27h-5.44V734.8h-3V705.27h-5.39v-4.81h13.85Z"/><path class="cls-2" d="M719.83,734.8h-3V719.56H709V734.8h-3V700.46h3v14.29h7.8V700.46h3Z"/><path class="cls-2" d="M729.83,721.59h-3.38V734.8h-3V700.46h6.14a5.19,5.19,0,0,1,4.66,2.67q1.64,2.67,1.64,7.72a17,17,0,0,1-.85,5.77,8.11,8.11,0,0,1-2.36,3.58l3.92,14.3v.31h-3.25Zm-3.38-4.81h3.12a2.65,2.65,0,0,0,2.4-1.52,8.46,8.46,0,0,0,.86-4.16,9.3,9.3,0,0,0-.8-4.27,2.65,2.65,0,0,0-2.38-1.56h-3.2Z"/><path class="cls-2" d="M752.67,718.53a39.31,39.31,0,0,1-.89,8.86,14.51,14.51,0,0,1-2.54,5.85,4.54,4.54,0,0,1-7.58,0,14.56,14.56,0,0,1-2.57-5.81,37.91,37.91,0,0,1-.92-8.7v-1.93a38.93,38.93,0,0,1,.91-8.87,14.71,14.71,0,0,1,2.55-5.88,4.54,4.54,0,0,1,7.56,0,14.4,14.4,0,0,1,2.55,5.8,38.79,38.79,0,0,1,.91,8.81Zm-3-1.79a27,27,0,0,0-1.1-8.75q-1.1-3-3.11-3t-3.07,3a26.3,26.3,0,0,0-1.13,8.57v2a26.71,26.71,0,0,0,1.12,8.75q1.12,3.09,3.11,3.09t3.1-3a27.45,27.45,0,0,0,1.08-8.82Z"/><path class="cls-2" d="M768.45,700.46v22.95a17.86,17.86,0,0,1-1.78,8.67q-1.78,3.2-4.74,3.2t-4.76-3.15q-1.76-3.15-1.76-8.74V700.46h3v23a12.33,12.33,0,0,0,.89,5.26,2.81,2.81,0,0,0,2.61,1.82q3.5,0,3.5-7.26V700.46Z"/><path class="cls-2" d="M785.07,730.34a8.11,8.11,0,0,1-2.62,3.68,6.22,6.22,0,0,1-3.81,1.25,5,5,0,0,1-3.88-2,13.56,13.56,0,0,1-2.61-5.6,36.2,36.2,0,0,1-1-8.5v-2.69q0-7.78,1.89-12.16t5.29-4.37a5.21,5.21,0,0,1,4.63,2.84,18.33,18.33,0,0,1,2.06,8.17h-3q-.5-6.2-3.66-6.2-2,0-3.1,2.89a26.38,26.38,0,0,0-1.1,8.47v2.64a24.73,24.73,0,0,0,1.19,8.64q1.19,3.07,3.31,3.07a3.39,3.39,0,0,0,3.31-2.08v-6.72h-3.6v-4.53h6.62Z"/><path class="cls-2" d="M802.26,734.8h-3V719.56h-7.8V734.8h-3V700.46h3v14.29h7.8V700.46h3Z"/><path class="cls-2" d="M825.28,723.62a18.91,18.91,0,0,1-2.06,8.57,5.4,5.4,0,0,1-4.78,3.08,4.66,4.66,0,0,1-3.67-1.95,13.82,13.82,0,0,1-2.45-5.53,37.05,37.05,0,0,1-.9-8.33v-3.21a37.48,37.48,0,0,1,.88-8.56,14.12,14.12,0,0,1,2.51-5.71,4.8,4.8,0,0,1,3.78-2q2.89,0,4.65,3.08t2,8.71h-3a13.65,13.65,0,0,0-1.1-5.34,2.79,2.79,0,0,0-2.58-1.64q-2,0-3,2.84a25.44,25.44,0,0,0-1.08,8.35v3a27.37,27.37,0,0,0,1,8.5q1,2.93,3,2.93a2.9,2.9,0,0,0,2.69-1.58,13,13,0,0,0,1.14-5.26Z"/><path class="cls-2" d="M841.91,718.53a39.31,39.31,0,0,1-.89,8.86,14.51,14.51,0,0,1-2.54,5.85,4.54,4.54,0,0,1-7.58,0,14.56,14.56,0,0,1-2.57-5.81,37.91,37.91,0,0,1-.92-8.7v-1.93a38.93,38.93,0,0,1,.91-8.87,14.71,14.71,0,0,1,2.55-5.88,4.54,4.54,0,0,1,7.56,0,14.4,14.4,0,0,1,2.55,5.8,38.79,38.79,0,0,1,.91,8.81Zm-3-1.79a27,27,0,0,0-1.1-8.75q-1.1-3-3.11-3t-3.07,3a26.3,26.3,0,0,0-1.13,8.57v2a26.71,26.71,0,0,0,1.12,8.75q1.12,3.09,3.11,3.09t3.1-3a27.45,27.45,0,0,0,1.08-8.82Z"/><path class="cls-2" d="M848,730h7.92v4.76h-11V700.46h3Z"/><path class="cls-2" d="M861.25,730h7.92v4.76h-11V700.46h3Z"/><path class="cls-2" d="M881.7,719.47h-7.17V730h8.38v4.76H871.5V700.46h11.33v4.81h-8.3v9.48h7.17Z"/><path class="cls-2" d="M898.76,730.34a8.11,8.11,0,0,1-2.62,3.68,6.22,6.22,0,0,1-3.81,1.25,5,5,0,0,1-3.88-2,13.56,13.56,0,0,1-2.61-5.6,36.2,36.2,0,0,1-1-8.5v-2.69q0-7.78,1.89-12.16t5.29-4.37a5.21,5.21,0,0,1,4.63,2.84,18.33,18.33,0,0,1,2.06,8.17h-3q-.5-6.2-3.66-6.2-2,0-3.1,2.89a26.38,26.38,0,0,0-1.1,8.47v2.64a24.73,24.73,0,0,0,1.19,8.64q1.19,3.07,3.31,3.07a3.39,3.39,0,0,0,3.31-2.08v-6.72h-3.6v-4.53h6.62Z"/><path class="cls-2" d="M912.29,719.47h-7.17V730h8.38v4.76H902.09V700.46h11.33v4.81h-8.3v9.48h7.17Z"/></g></g></svg>