<svg xmlns="http://www.w3.org/2000/svg" viewBox="0 0 1000 1000"><defs><style>.cls-1{fill:#1bc2ef;}.cls-10,.cls-11,.cls-12,.cls-2,.cls-3,.cls-6,.cls-7,.cls-8{fill:none;}.cls-10,.cls-11,.cls-12,.cls-13,.cls-14,.cls-2,.cls-3,.cls-4,.cls-6,.cls-7,.cls-8,.cls-9{stroke:#ff1d25;stroke-miterlimit:10;}.cls-2{stroke-width:24px;}.cls-3{stroke-width:28px;}.cls-13,.cls-14,.cls-4,.cls-5,.cls-9{fill:#ff1d25;}.cls-6{stroke-width:25px;}.cls-7{stroke-width:21px;}.cls-8{stroke-width:30px;}.cls-9{stroke-width:2px;}.cls-10{stroke-width:59px;}.cls-11{stroke-width:51px;}.cls-12{stroke-width:53px;}.cls-13{stroke-width:5px;}.cls-14{stroke-width:0.75px;}</style></defs><title>lgr-colored</title><g id="lgr-colored"><g id="text"><path class="cls-1" d="M248.82,750.34a6.29,6.29,0,0,0-.81-3.49,8.89,8.89,0,0,0-2.94-2.48,12.46,12.46,0,0,1-3.38-2.78,11.79,11.79,0,0,1-2.4-7.69,12.42,12.42,0,0,1,1.73-6.84,5.18,5.18,0,0,1,4.49-2.69,4.69,4.69,0,0,1,3.27,1.32,8.81,8.81,0,0,1,2.25,3.76,16.91,16.91,0,0,1,.82,5.41h-3a8.59,8.59,0,0,0-.86-4.21,2.7,2.7,0,0,0-2.47-1.52,2.63,2.63,0,0,0-2.32,1.25,6.29,6.29,0,0,0-.83,3.49,5.32,5.32,0,0,0,.89,3.15,9.22,9.22,0,0,0,2.94,2.45,11.91,11.91,0,0,1,3.29,2.71,9.84,9.84,0,0,1,1.82,3.49,16.44,16.44,0,0,1,.58,4.61,12.2,12.2,0,0,1-1.68,6.83,5.28,5.28,0,0,1-8.07,1.16,9,9,0,0,1-2.48-3.81,16.49,16.49,0,0,1-.89-5.66h3.05a8.64,8.64,0,0,0,1,4.53,3.14,3.14,0,0,0,2.83,1.6,2.65,2.65,0,0,0,2.39-1.26A6.15,6.15,0,0,0,248.82,750.34Z"/><path class="cls-1" d="M267.23,729.66h-5.48v29.53h-3V729.66H253.3v-4.81h13.93Z"/><path class="cls-1" d="M282.38,724.85V747.8a17.77,17.77,0,0,1-1.79,8.67q-1.79,3.2-4.77,3.2T271,756.51q-1.77-3.15-1.77-8.74V724.85h3v23a12.27,12.27,0,0,0,.89,5.26,2.83,2.83,0,0,0,2.63,1.82q3.52,0,3.52-7.26V724.85Z"/><path class="cls-1" d="M285.63,759.19V724.85h5.19a5.41,5.41,0,0,1,4.13,2,14,14,0,0,1,2.79,5.75,33.41,33.41,0,0,1,1,8.54v1.72a33.22,33.22,0,0,1-1,8.58,13.51,13.51,0,0,1-2.83,5.71,5.58,5.58,0,0,1-4.21,2Zm3.05-29.53v24.76h2q2.4,0,3.68-2.94a22,22,0,0,0,1.31-8.43v-1.91a22.87,22.87,0,0,0-1.24-8.54q-1.24-2.95-3.61-2.95Z"/><path class="cls-1" d="M312,743.86h-7.21v10.57h8.43v4.76H301.77V724.85h11.4v4.81h-8.35v9.48H312Z"/><path class="cls-1" d="M329.66,759.19h-3.05l-7.83-24.36v24.36h-3.05V724.85h3.05l7.85,24.46V724.85h3Z"/><path class="cls-1" d="M345.61,729.66h-5.48v29.53h-3V729.66h-5.43v-4.81h13.93Z"/><path class="cls-1" d="M356.89,750.34a6.29,6.29,0,0,0-.81-3.49,8.89,8.89,0,0,0-2.94-2.48,12.46,12.46,0,0,1-3.38-2.78,11.79,11.79,0,0,1-2.4-7.69,12.42,12.42,0,0,1,1.73-6.84,5.18,5.18,0,0,1,4.49-2.69,4.69,4.69,0,0,1,3.27,1.32,8.81,8.81,0,0,1,2.25,3.76,16.91,16.91,0,0,1,.82,5.41h-3a8.59,8.59,0,0,0-.86-4.21,2.7,2.7,0,0,0-2.47-1.52,2.63,2.63,0,0,0-2.32,1.25,6.29,6.29,0,0,0-.83,3.49,5.32,5.32,0,0,0,.89,3.15,9.22,9.22,0,0,0,2.94,2.45,11.91,11.91,0,0,1,3.29,2.71,9.84,9.84,0,0,1,1.82,3.49,16.44,16.44,0,0,1,.58,4.61,12.2,12.2,0,0,1-1.68,6.83,5.28,5.28,0,0,1-8.07,1.16,9,9,0,0,1-2.48-3.81,16.49,16.49,0,0,1-.89-5.66h3.05a8.64,8.64,0,0,0,1,4.53,3.14,3.14,0,0,0,2.83,1.6,2.65,2.65,0,0,0,2.39-1.26A6.15,6.15,0,0,0,356.89,750.34Z"/><path class="cls-1" d="M382.71,759.19h-3V744h-7.85v15.24h-3.05V724.85h3.05v14.29h7.85V724.85h3Z"/><path class="cls-1" d="M396.58,743.86h-7.21v10.57h8.43v4.76H386.32V724.85h11.4v4.81h-8.35v9.48h7.21Z"/><path class="cls-1" d="M403.34,754.42h8v4.76h-11V724.85h3.05Z"/><path class="cls-1" d="M416.7,746.45v12.74h-3.05V724.85h6.72a5.24,5.24,0,0,1,4.67,3,15.81,15.81,0,0,1,1.73,7.93q0,5.05-1.69,7.86a5.28,5.28,0,0,1-4.75,2.81Zm0-4.81h3.67a2.71,2.71,0,0,0,2.48-1.5,8.86,8.86,0,0,0,.86-4.33,9.65,9.65,0,0,0-.87-4.45,2.75,2.75,0,0,0-2.39-1.71H416.7Z"/><path class="cls-1" d="M432.65,759.19h-3V724.85h3Z"/><path class="cls-1" d="M450.33,759.19h-3.05l-7.83-24.36v24.36H436.4V724.85h3.05l7.85,24.46V724.85h3Z"/><path class="cls-1" d="M467.4,754.73a8.11,8.11,0,0,1-2.64,3.68,6.28,6.28,0,0,1-3.83,1.25,5.07,5.07,0,0,1-3.91-2,13.52,13.52,0,0,1-2.62-5.6,35.94,35.94,0,0,1-1-8.5v-2.69q0-7.78,1.91-12.16t5.32-4.37a5.24,5.24,0,0,1,4.66,2.84,18.26,18.26,0,0,1,2.07,8.17h-3q-.51-6.2-3.68-6.2-2.05,0-3.12,2.89a26.22,26.22,0,0,0-1.1,8.47v2.64a24.6,24.6,0,0,0,1.2,8.64q1.2,3.07,3.33,3.07a3.42,3.42,0,0,0,3.33-2.08V746.1h-3.62v-4.53h6.66Z"/><path class="cls-1" d="M486.08,750.34a6.29,6.29,0,0,0-.81-3.49,8.89,8.89,0,0,0-2.94-2.48,12.46,12.46,0,0,1-3.38-2.78,11.79,11.79,0,0,1-2.4-7.69,12.42,12.42,0,0,1,1.73-6.84,5.18,5.18,0,0,1,4.49-2.69A4.69,4.69,0,0,1,486,725.7a8.81,8.81,0,0,1,2.25,3.76,16.91,16.91,0,0,1,.82,5.41h-3a8.59,8.59,0,0,0-.86-4.21,2.7,2.7,0,0,0-2.47-1.52,2.63,2.63,0,0,0-2.32,1.25,6.29,6.29,0,0,0-.83,3.49,5.32,5.32,0,0,0,.89,3.15,9.22,9.22,0,0,0,2.94,2.45,11.91,11.91,0,0,1,3.29,2.71,9.84,9.84,0,0,1,1.82,3.49,16.44,16.44,0,0,1,.58,4.61,12.2,12.2,0,0,1-1.68,6.83,5.28,5.28,0,0,1-8.07,1.16,9,9,0,0,1-2.48-3.81,16.49,16.49,0,0,1-.89-5.66h3.05a8.64,8.64,0,0,0,1,4.53,3.14,3.14,0,0,0,2.83,1.6,2.65,2.65,0,0,0,2.39-1.26A6.15,6.15,0,0,0,486.08,750.34Z"/><path class="cls-1" d="M504.49,729.66H499v29.53h-3V729.66h-5.43v-4.81h13.93Z"/><path class="cls-1" d="M519.64,724.85V747.8a17.78,17.78,0,0,1-1.79,8.67q-1.79,3.2-4.77,3.2t-4.79-3.15q-1.77-3.15-1.77-8.74V724.85h3v23a12.26,12.26,0,0,0,.89,5.26,2.83,2.83,0,0,0,2.63,1.82q3.52,0,3.52-7.26V724.85Z"/><path class="cls-1" d="M522.9,759.19V724.85h5.19a5.41,5.41,0,0,1,4.13,2,14,14,0,0,1,2.79,5.75,33.41,33.41,0,0,1,1,8.54v1.72a33.24,33.24,0,0,1-1,8.58,13.52,13.52,0,0,1-2.83,5.71,5.58,5.58,0,0,1-4.21,2Zm3.05-29.53v24.76h2q2.4,0,3.68-2.94a22,22,0,0,0,1.31-8.43v-1.91a22.87,22.87,0,0,0-1.24-8.54q-1.24-2.95-3.61-2.95Z"/><path class="cls-1" d="M549.29,743.86h-7.21v10.57h8.43v4.76H539V724.85h11.4v4.81h-8.35v9.48h7.21Z"/><path class="cls-1" d="M566.93,759.19h-3.05L556,734.82v24.36H553V724.85H556l7.85,24.46V724.85h3Z"/><path class="cls-1" d="M582.87,729.66h-5.48v29.53h-3V729.66h-5.43v-4.81h13.93Z"/><path class="cls-1" d="M594.16,750.34a6.29,6.29,0,0,0-.81-3.49,8.89,8.89,0,0,0-2.94-2.48,12.46,12.46,0,0,1-3.38-2.78,11.8,11.8,0,0,1-2.4-7.69,12.41,12.41,0,0,1,1.73-6.84,5.18,5.18,0,0,1,4.49-2.69,4.69,4.69,0,0,1,3.27,1.32,8.81,8.81,0,0,1,2.26,3.76,16.94,16.94,0,0,1,.82,5.41h-3a8.58,8.58,0,0,0-.86-4.21,2.7,2.7,0,0,0-2.47-1.52,2.63,2.63,0,0,0-2.32,1.25,6.29,6.29,0,0,0-.83,3.49,5.31,5.31,0,0,0,.89,3.15,9.21,9.21,0,0,0,2.94,2.45,11.92,11.92,0,0,1,3.29,2.71,9.84,9.84,0,0,1,1.82,3.49,16.44,16.44,0,0,1,.58,4.61,12.2,12.2,0,0,1-1.68,6.83,5.28,5.28,0,0,1-8.07,1.16,9,9,0,0,1-2.48-3.81,16.49,16.49,0,0,1-.89-5.66h3.05a8.65,8.65,0,0,0,1,4.53,3.14,3.14,0,0,0,2.83,1.6,2.65,2.65,0,0,0,2.39-1.26A6.15,6.15,0,0,0,594.16,750.34Z"/><path class="cls-1" d="M618,729.66h-5.48v29.53h-3V729.66h-5.43v-4.81H618Z"/><path class="cls-1" d="M634,742.91a39.12,39.12,0,0,1-.89,8.86,14.49,14.49,0,0,1-2.55,5.85,4.58,4.58,0,0,1-7.62,0,14.52,14.52,0,0,1-2.58-5.81,37.73,37.73,0,0,1-.92-8.7v-1.93a38.69,38.69,0,0,1,.91-8.87,14.66,14.66,0,0,1,2.57-5.88,4.58,4.58,0,0,1,7.61,0,14.36,14.36,0,0,1,2.56,5.8A38.61,38.61,0,0,1,634,741Zm-3.05-1.79a26.87,26.87,0,0,0-1.1-8.75q-1.1-3-3.13-3t-3.09,3a26.14,26.14,0,0,0-1.14,8.57v2a26.58,26.58,0,0,0,1.13,8.75q1.13,3.09,3.13,3.09t3.12-3a27.3,27.3,0,0,0,1.09-8.82Z"/><path class="cls-1" d="M653,751.19h-6.8l-1.42,8H641.6l6.63-34.34H651l6.64,34.34h-3.18Zm-5.95-4.81h5.09l-2.54-14.25Z"/><path class="cls-1" d="M673.53,759.19h-3.05l-7.83-24.36v24.36h-3.05V724.85h3.05l7.85,24.46V724.85h3Z"/><path class="cls-1" d="M677.14,759.19V724.85h5.19a5.41,5.41,0,0,1,4.13,2,14,14,0,0,1,2.79,5.75,33.41,33.41,0,0,1,1,8.54v1.72a33.24,33.24,0,0,1-1,8.58,13.52,13.52,0,0,1-2.83,5.71,5.58,5.58,0,0,1-4.21,2Zm3.05-29.53v24.76h2q2.4,0,3.68-2.94a22,22,0,0,0,1.31-8.43v-1.91a22.87,22.87,0,0,0-1.24-8.54q-1.24-2.95-3.61-2.95Z"/><path class="cls-1" d="M711.39,729.66h-5.48v29.53h-3V729.66h-5.43v-4.81h13.93Z"/><path class="cls-1" d="M727.63,759.19h-3V744h-7.85v15.24h-3.05V724.85h3.05v14.29h7.85V724.85h3Z"/><path class="cls-1" d="M737.69,746h-3.4v13.21h-3.05V724.85h6.17a5.22,5.22,0,0,1,4.69,2.67q1.65,2.67,1.65,7.72a16.93,16.93,0,0,1-.85,5.77,8.11,8.11,0,0,1-2.37,3.58l3.94,14.3v.31h-3.27Zm-3.4-4.81h3.14a2.67,2.67,0,0,0,2.41-1.52,8.43,8.43,0,0,0,.87-4.16,9.26,9.26,0,0,0-.8-4.27,2.67,2.67,0,0,0-2.39-1.56h-3.22Z"/><path class="cls-1" d="M760.67,742.91a39.12,39.12,0,0,1-.89,8.86,14.49,14.49,0,0,1-2.55,5.85,4.58,4.58,0,0,1-7.62,0,14.52,14.52,0,0,1-2.58-5.81,37.73,37.73,0,0,1-.92-8.7v-1.93a38.69,38.69,0,0,1,.91-8.87,14.66,14.66,0,0,1,2.57-5.88,4.58,4.58,0,0,1,7.61,0,14.36,14.36,0,0,1,2.56,5.8,38.61,38.61,0,0,1,.92,8.81Zm-3.05-1.79a26.87,26.87,0,0,0-1.1-8.75q-1.1-3-3.13-3t-3.09,3a26.14,26.14,0,0,0-1.14,8.57v2a26.58,26.58,0,0,0,1.13,8.75q1.13,3.09,3.13,3.09t3.12-3a27.3,27.3,0,0,0,1.09-8.82Z"/><path class="cls-1" d="M776.55,724.85V747.8a17.78,17.78,0,0,1-1.79,8.67q-1.79,3.2-4.77,3.2t-4.79-3.15q-1.77-3.15-1.77-8.74V724.85h3v23a12.28,12.28,0,0,0,.89,5.26,2.83,2.83,0,0,0,2.63,1.82q3.52,0,3.52-7.26V724.85Z"/><path class="cls-1" d="M793.26,754.73a8.11,8.11,0,0,1-2.64,3.68,6.28,6.28,0,0,1-3.83,1.25,5.07,5.07,0,0,1-3.91-2,13.52,13.52,0,0,1-2.62-5.6,36,36,0,0,1-1-8.5v-2.69q0-7.78,1.91-12.16t5.32-4.37a5.24,5.24,0,0,1,4.66,2.84,18.26,18.26,0,0,1,2.07,8.17h-3q-.51-6.2-3.68-6.2-2.05,0-3.12,2.89a26.18,26.18,0,0,0-1.1,8.47v2.64a24.61,24.61,0,0,0,1.2,8.64q1.2,3.07,3.33,3.07a3.42,3.42,0,0,0,3.33-2.08V746.1h-3.62v-4.53h6.66Z"/><path class="cls-1" d="M810.56,759.19h-3V744h-7.85v15.24h-3.05V724.85h3.05v14.29h7.85V724.85h3Z"/><path class="cls-1" d="M833.71,748a18.85,18.85,0,0,1-2.07,8.57,5.43,5.43,0,0,1-4.81,3.08,4.7,4.7,0,0,1-3.7-1.95,13.78,13.78,0,0,1-2.47-5.53,36.75,36.75,0,0,1-.9-8.33v-3.21a37.25,37.25,0,0,1,.88-8.56,14.08,14.08,0,0,1,2.53-5.71,4.84,4.84,0,0,1,3.8-2q2.91,0,4.68,3.08t2.06,8.71h-3a13.61,13.61,0,0,0-1.1-5.34,2.81,2.81,0,0,0-2.6-1.64q-2,0-3.06,2.84a25.31,25.31,0,0,0-1.09,8.35v3a27.19,27.19,0,0,0,1,8.5q1,2.93,3,2.93a2.92,2.92,0,0,0,2.7-1.58,13,13,0,0,0,1.15-5.26Z"/><path class="cls-1" d="M850.45,742.91a39.12,39.12,0,0,1-.89,8.86,14.49,14.49,0,0,1-2.55,5.85,4.58,4.58,0,0,1-7.62,0,14.52,14.52,0,0,1-2.58-5.81,37.73,37.73,0,0,1-.92-8.7v-1.93a38.69,38.69,0,0,1,.91-8.87,14.66,14.66,0,0,1,2.57-5.88,4.58,4.58,0,0,1,7.61,0,14.36,14.36,0,0,1,2.56,5.8,38.61,38.61,0,0,1,.92,8.81Zm-3.05-1.79a26.87,26.87,0,0,0-1.1-8.75q-1.1-3-3.13-3t-3.09,3a26.14,26.14,0,0,0-1.14,8.57v2a26.58,26.58,0,0,0,1.13,8.75q1.13,3.09,3.13,3.09t3.12-3a27.3,27.3,0,0,0,1.09-8.82Z"/><path class="cls-1" d="M856.54,754.42h8v4.76h-11V724.85h3.05Z"/><path class="cls-1" d="M869.9,754.42h8v4.76h-11V724.85h3.05Z"/><path class="cls-1" d="M890.48,743.86h-7.21v10.57h8.43v4.76H880.21V724.85h11.4v4.81h-8.35v9.48h7.21Z"/><path class="cls-1" d="M907.64,754.73a8.11,8.11,0,0,1-2.64,3.68,6.28,6.28,0,0,1-3.83,1.25,5.07,5.07,0,0,1-3.91-2,13.52,13.52,0,0,1-2.62-5.6,36,36,0,0,1-1-8.5v-2.69q0-7.78,1.91-12.16t5.32-4.37a5.24,5.24,0,0,1,4.66,2.84,18.26,18.26,0,0,1,2.07,8.17h-3q-.51-6.2-3.68-6.2-2.05,0-3.12,2.89a26.18,26.18,0,0,0-1.1,8.47v2.64a24.61,24.61,0,0,0,1.2,8.64q1.2,3.07,3.33,3.07a3.42,3.42,0,0,0,3.33-2.08V746.1H901v-4.53h6.66Z"/><path class="cls-1" d="M921.25,743.86H914v10.57h8.43v4.76H911V724.85h11.4v4.81H914v9.48h7.21Z"/></g><g id="Let_s_Get" data-name="Let&apos;s Get"><g id="l"><line class="cls-2" x1="54.39" y1="391.08" x2="92" y2="391.08"/><line class="cls-3" x1="54.39" y1="271" x2="54.39" y2="403"/></g><g id="e"><line class="cls-2" x1="122" y1="334.19" x2="142" y2="334.19"/><polyline class="cls-3" points="111.42 389 110.28 389 110.28 333.89 110.28 271"/><line class="cls-2" x1="148" y1="391" x2="111.42" y2="391"/><line class="cls-2" x1="110" y1="283" x2="148" y2="283"/></g><g id="t"><line class="cls-3" x1="181" y1="293" x2="180.15" y2="403.07"/><line class="cls-2" x1="151" y1="283" x2="210" y2="283"/></g><g id="_" data-name="&apos;"><rect class="cls-4" x="213.5" y="271.5" width="21" height="23"/><polygon class="cls-5" points="235 295 218 309 212 309 220 295 235 295"/></g><path id="s" class="cls-4" d="M293.25,352.19a31.14,31.14,0,0,1,6.25,18.71v14.6h0a17,17,0,0,1-17,17h-30a17,17,0,0,1-17-17h0v-24h24v14.17a5.83,5.83,0,0,0,5.83,5.83h3.42a5.75,5.75,0,0,0,5.75-5.75v-9a5.19,5.19,0,0,0-.54-2.33c-2-3.9-6-9.21-10.46-14.9-4.76-6.06-6.94-8.44-11-13a77.74,77.74,0,0,1-14-23,42.15,42.15,0,0,1-1-15c.48-4.21,1.28-11.1,6-17,8.25-10.29,22.48-10,25.5-10,3.27,0,14.9.18,23.5,9,10,10.27,7.43,30.12,7,34h-24V299.17a5.67,5.67,0,0,0-5.67-5.67h-1.66a7.63,7.63,0,0,0-6.67,6,47.45,47.45,0,0,0,0,5c.07,1.24.07,2.36.15,3.39a8.64,8.64,0,0,0,2.12,5.06Z"/><path id="g" class="cls-4" d="M86.45,543.5c4.27.15,8.15-.09,12.33,0a1.7,1.7,0,0,0,1.74-1.68L101,479H70.5v18.5h5v25a6.41,6.41,0,0,1-2,2,6.77,6.77,0,0,1-7,0,6.41,6.41,0,0,1-2-2v-87a6.41,6.41,0,0,1,2-2,6.77,6.77,0,0,1,7,0,6.41,6.41,0,0,1,2,2v28h25V438.76A28.51,28.51,0,0,0,85,413.4h0A34.39,34.39,0,0,0,75.7,410a33.68,33.68,0,0,0-15.2.5,42.83,42.83,0,0,0-12,7l-.12.1A23.5,23.5,0,0,0,40,435.8l.46,89.7h0a10.48,10.48,0,0,0,1.78,5.91A35.17,35.17,0,0,0,53.57,542a11.49,11.49,0,0,0,5.83,1.54H77.5a8.12,8.12,0,0,0,5-2c1.15-1.07,1.91-2.6,3-2.46.51.06,1,.38,1,.58C86.49,540.87,86.48,542.84,86.45,543.5Z"/><g id="e-2" data-name="e"><line class="cls-6" x1="131.76" y1="474.19" x2="150" y2="474.19"/><polyline class="cls-6" points="129.52 421.5 119.5 421.5 119.28 478.19 131.76 478.19"/><line class="cls-7" x1="157" y1="419.5" x2="129" y2="419.5"/><polyline class="cls-6" points="157.5 531.5 119.5 531.5 119.28 473.19"/></g><g id="t-2" data-name="t"><line class="cls-8" x1="191" y1="429" x2="191.15" y2="544"/><line class="cls-7" x1="162" y1="419.5" x2="221" y2="419.5"/></g></g><path class="cls-9" d="M374,695a88.54,88.54,0,0,1-3-30c1.05-21.56,1.17-52.49,2.16-74.65a15.13,15.13,0,0,0-.46-4.43c-.88-3.42-2.31-8.25-4.7-11.91a40.14,40.14,0,0,0-16-14,31.54,31.54,0,0,0,13-13,30.6,30.6,0,0,0,3.27-10.72c-.18-51.7-.43-89.37-.54-94.79a22.59,22.59,0,0,0-.87-5.84A23.47,23.47,0,0,0,363,428a36.76,36.76,0,0,0-8-8c-12-8.6-31.64-9-31.64-9-20.38-.38-49.36-.74-84.83,0V712.95h54.89c.19-39.65.39-91.3.58-130.95h14a8.22,8.22,0,0,1,5.38,4.18A7.81,7.81,0,0,1,314,591c0,1.1,0,2.86,0,5,0,5.68.1,20.89,1,43,.4,10,1.61,24.95,2,30,.73,9.33,1.26,15.81,3,24a128.83,128.83,0,0,0,6,20l53.25-.05ZM316.5,525.5a12,12,0,0,1-12,12h-9v-75h9a12,12,0,0,1,12,12Z"/><g id="E-3" data-name="E"><line class="cls-10" x1="416.75" y1="409" x2="416.99" y2="713.5"/><line class="cls-11" x1="418.28" y1="687.55" x2="506.5" y2="687.55"/><line class="cls-11" x1="418.28" y1="434.55" x2="506.5" y2="434.55"/><line class="cls-12" x1="438.94" y1="555.18" x2="486.68" y2="555.18"/></g><path class="cls-13" d="M624,411.5H553l-38,299h50l7.5-48h29l5,48h57Zm-47,192,12-93,8,93Z"/><path class="cls-4" d="M758.5,409.5h-86v303h86a58,58,0,0,0,58-58v-187A58,58,0,0,0,758.5,409.5Zm-2,238a12,12,0,0,1-12,12h-13v-194h13a12,12,0,0,1,12,12Z"/><polygon id="Y" class="cls-14" points="810 409 858 574.1 858 710 917 710 917 574.1 967 409 909 409 890 505.64 868 409 810 409"/></g></svg>