<svg xmlns="http://www.w3.org/2000/svg" viewBox="0 0 1000 1000"><defs><style>.cls-1{font-size:19.96px;fill:#ccc;font-family:Roboto-Medium, Roboto;}.cls-2{letter-spacing:-0.01em;}.cls-3{letter-spacing:-0.01em;}.cls-4{letter-spacing:-0.01em;}.cls-5{letter-spacing:-0.01em;}.cls-6{letter-spacing:0em;}.cls-7{letter-spacing:-0.03em;}.cls-8{letter-spacing:-0.01em;}.cls-10,.cls-11,.cls-12,.cls-13,.cls-14,.cls-15,.cls-16,.cls-17,.cls-18,.cls-19,.cls-20,.cls-9{fill:#999;stroke:#999;stroke-miterlimit:10;}.cls-9{stroke-width:24px;}.cls-10{stroke-width:28px;}.cls-12{stroke-width:25px;}.cls-13{stroke-width:21px;}.cls-14{stroke-width:30px;}.cls-15{stroke-width:2px;}.cls-16{stroke-width:59px;}.cls-17{stroke-width:51px;}.cls-18{stroke-width:53px;}.cls-19{stroke-width:5px;}.cls-20{stroke-width:0.75px;}</style></defs><title>lgr-greyscale</title><g id="lgr-colored"><text class="cls-1" transform="translate(240 759.41) scale(1.24 2.42)">STUDE<tspan class="cls-2" x="61.5" y="0">N</tspan><tspan class="cls-3" x="75.39" y="0">T</tspan><tspan x="87.34" y="0">S HELPING STUDE</tspan><tspan class="cls-4" x="253.24" y="0">N</tspan><tspan class="cls-5" x="267.13" y="0">T</tspan><tspan class="cls-6" x="279.09" y="0">S</tspan><tspan class="cls-7" x="291.14" y="0"> </tspan><tspan class="cls-8" x="295.52" y="0">T</tspan><tspan class="cls-6" x="307.36" y="0">O AND</tspan><tspan class="cls-7" x="366.61" y="0"> </tspan><tspan x="370.99" y="0">THROUGH COLLEGE</tspan></text><g id="Let_s_Get" data-name="Let&apos;s Get"><g id="l"><line class="cls-9" x1="54.37" y1="391.31" x2="91.97" y2="391.31"/><line class="cls-10" x1="54.37" y1="271.22" x2="54.37" y2="403.22"/></g><g id="e"><line class="cls-9" x1="121.97" y1="334.42" x2="141.97" y2="334.42"/><polyline class="cls-10" points="111.39 389.22 110.26 389.22 110.26 334.12 110.26 271.22"/><line class="cls-9" x1="147.97" y1="391.22" x2="111.39" y2="391.22"/><line class="cls-9" x1="109.97" y1="283.22" x2="147.97" y2="283.22"/></g><g id="t"><line class="cls-10" x1="180.97" y1="293.22" x2="180.12" y2="403.3"/><line class="cls-9" x1="150.97" y1="283.22" x2="209.97" y2="283.22"/></g><g id="_" data-name="&apos;"><rect class="cls-11" x="213.47" y="271.72" width="21" height="23"/><polygon class="cls-11" points="234.97 295.22 217.97 309.22 211.97 309.22 219.97 295.22 234.97 295.22"/></g><path id="s" class="cls-11" d="M293.23,352.41a31.14,31.14,0,0,1,6.25,18.71v14.6h0a17,17,0,0,1-17,17h-30a17,17,0,0,1-17-17h0v-24h24v14.17a5.83,5.83,0,0,0,5.83,5.83h3.42a5.75,5.75,0,0,0,5.75-5.75v-9a5.19,5.19,0,0,0-.54-2.33c-2-3.9-6-9.21-10.46-14.9-4.76-6.06-6.94-8.44-11-13a77.74,77.74,0,0,1-14-23,42.15,42.15,0,0,1-1-15c.48-4.21,1.28-11.1,6-17,8.25-10.29,22.48-10,25.5-10,3.27,0,14.9.18,23.5,9,10,10.27,7.43,30.12,7,34h-24V299.39a5.67,5.67,0,0,0-5.67-5.67h-1.66a7.63,7.63,0,0,0-6.67,6,47.45,47.45,0,0,0,0,5c.07,1.24.07,2.36.15,3.39a8.64,8.64,0,0,0,2.12,5.06Z"/><path id="g" class="cls-11" d="M86.42,543.72c4.27.15,8.15-.09,12.33,0a1.7,1.7,0,0,0,1.74-1.68l.49-62.78H70.47v18.5h5v25a6.41,6.41,0,0,1-2,2,6.77,6.77,0,0,1-7,0,6.41,6.41,0,0,1-2-2v-87a6.41,6.41,0,0,1,2-2,6.77,6.77,0,0,1,7,0,6.41,6.41,0,0,1,2,2v28h25V439A28.51,28.51,0,0,0,85,413.62h0a34.39,34.39,0,0,0-9.32-3.4,33.68,33.68,0,0,0-15.2.5,42.83,42.83,0,0,0-12,7l-.12.1A23.5,23.5,0,0,0,40,436l.46,89.7h0a10.48,10.48,0,0,0,1.78,5.91,35.17,35.17,0,0,0,11.28,10.55,11.49,11.49,0,0,0,5.83,1.54H77.47a8.12,8.12,0,0,0,5-2c1.15-1.07,1.91-2.6,3-2.46.51.06,1,.38,1,.58C86.47,541.09,86.45,543.06,86.42,543.72Z"/><g id="e-2" data-name="e"><line class="cls-12" x1="131.73" y1="474.42" x2="149.97" y2="474.42"/><polyline class="cls-12" points="129.49 421.72 119.47 421.72 119.26 478.42 131.73 478.42"/><line class="cls-13" x1="156.97" y1="419.72" x2="128.97" y2="419.72"/><polyline class="cls-12" points="157.47 531.72 119.47 531.72 119.26 473.42"/></g><g id="t-2" data-name="t"><line class="cls-14" x1="190.97" y1="429.22" x2="191.12" y2="544.22"/><line class="cls-13" x1="161.97" y1="419.72" x2="220.97" y2="419.72"/></g></g><path class="cls-15" d="M378.15,695.22a88.54,88.54,0,0,1-3-30c1.05-21.56,1.17-52.49,2.16-74.65a15.13,15.13,0,0,0-.46-4.43c-.88-3.42-2.31-8.25-4.7-11.91a40.14,40.14,0,0,0-16-14,31.54,31.54,0,0,0,13-13,30.6,30.6,0,0,0,3.27-10.72V441.69a31.48,31.48,0,0,0-13.27-21.47c-3.73-2.21-9.7-3.35-17.51-5.82a99.57,99.57,0,0,0-14.13-3.15c-12.17-1.74-43.45-2.09-84.83,0V713.17h54.89c.19-39.65.39-91.3.58-130.95h14a8.22,8.22,0,0,1,5.38,4.18,7.81,7.81,0,0,1,.62,4.82c0,1.1,0,2.86,0,5,0,5.68.1,20.89,1,43,.4,10,1.61,24.95,2,30,.73,9.33,1.26,15.81,3,24a128.83,128.83,0,0,0,6,20l53.25-.05Zm-57.5-169.5a12,12,0,0,1-12,12h-9v-75h9a12,12,0,0,1,12,12Z"/><g id="E-3" data-name="E"><line class="cls-16" x1="418.9" y1="409.22" x2="419.14" y2="713.72"/><line class="cls-17" x1="420.43" y1="687.77" x2="508.65" y2="687.77"/><line class="cls-17" x1="420.43" y1="434.77" x2="508.65" y2="434.77"/><line class="cls-18" x1="441.08" y1="555.4" x2="488.83" y2="555.4"/></g><path class="cls-19" d="M626.15,411.72h-71l-38,299h50l7.5-48h29l5,48h57Zm-47,192,12-93,8,93Z"/><path class="cls-11" d="M760.65,409.72h-86v303h86a58,58,0,0,0,58-58v-187A58,58,0,0,0,760.65,409.72Zm-2,238a12,12,0,0,1-12,12h-13v-194h13a12,12,0,0,1,12,12Z"/><polygon id="Y" class="cls-20" points="812.15 409.22 860.15 574.32 860.15 710.22 919.15 710.22 919.15 574.32 969.15 409.22 911.15 409.22 892.15 505.87 870.15 409.22 812.15 409.22"/></g></svg>