<svg xmlns="http://www.w3.org/2000/svg" viewBox="0 0 1000 1000"><defs><style>.cls-1{font-size:19.96px;fill:#1bc2ef;font-family:Roboto-Medium, Roboto;}.cls-2{letter-spacing:-0.01em;}.cls-3{letter-spacing:-0.01em;}.cls-4{letter-spacing:-0.01em;}.cls-5{letter-spacing:-0.01em;}.cls-6{letter-spacing:0em;}.cls-7{letter-spacing:-0.03em;}.cls-8{letter-spacing:-0.01em;}.cls-10,.cls-13,.cls-14,.cls-15,.cls-17,.cls-18,.cls-19,.cls-9{fill:none;}.cls-10,.cls-11,.cls-13,.cls-14,.cls-15,.cls-16,.cls-17,.cls-18,.cls-19,.cls-20,.cls-21,.cls-9{stroke:#ff1d25;stroke-miterlimit:10;}.cls-9{stroke-width:24px;}.cls-10{stroke-width:28px;}.cls-11,.cls-12,.cls-16,.cls-20,.cls-21{fill:#ff1d25;}.cls-13{stroke-width:25px;}.cls-14{stroke-width:21px;}.cls-15{stroke-width:30px;}.cls-16{stroke-width:2px;}.cls-17{stroke-width:59px;}.cls-18{stroke-width:51px;}.cls-19{stroke-width:53px;}.cls-20{stroke-width:5px;}.cls-21{stroke-width:0.75px;}</style></defs><title>lgr-colored</title><g id="lgr-colored"><text class="cls-1" transform="translate(231.85 759.19) scale(1.24 2.42)">STUDE<tspan class="cls-2" x="61.5" y="0">N</tspan><tspan class="cls-3" x="75.39" y="0">T</tspan><tspan x="87.34" y="0">S HELPING STUDE</tspan><tspan class="cls-4" x="253.24" y="0">N</tspan><tspan class="cls-5" x="267.13" y="0">T</tspan><tspan class="cls-6" x="279.09" y="0">S</tspan><tspan class="cls-7" x="291.14" y="0"> </tspan><tspan class="cls-8" x="295.52" y="0">T</tspan><tspan class="cls-6" x="307.36" y="0">O AND</tspan><tspan class="cls-7" x="366.61" y="0"> </tspan><tspan x="370.99" y="0">THROUGH COLLEGE</tspan></text><g id="Let_s_Get" data-name="Let&apos;s Get"><g id="l"><line class="cls-9" x1="53.39" y1="391.08" x2="91" y2="391.08"/><line class="cls-10" x1="53.39" y1="271" x2="53.39" y2="403"/></g><g id="e"><line class="cls-9" x1="121" y1="334.19" x2="141" y2="334.19"/><polyline class="cls-10" points="110.42 389 109.28 389 109.28 333.89 109.28 271"/><line class="cls-9" x1="147" y1="391" x2="110.42" y2="391"/><line class="cls-9" x1="109" y1="283" x2="147" y2="283"/></g><g id="t"><line class="cls-10" x1="180" y1="293" x2="179.15" y2="403.07"/><line class="cls-9" x1="150" y1="283" x2="209" y2="283"/></g><g id="_" data-name="&apos;"><rect class="cls-11" x="212.5" y="271.5" width="21" height="23"/><polygon class="cls-12" points="234 295 217 309 211 309 219 295 234 295"/></g><path id="s" class="cls-11" d="M292.25,352.19a31.14,31.14,0,0,1,6.25,18.71v14.6h0a17,17,0,0,1-17,17h-30a17,17,0,0,1-17-17h0v-24h24v14.17a5.83,5.83,0,0,0,5.83,5.83h3.42a5.75,5.75,0,0,0,5.75-5.75v-9a5.19,5.19,0,0,0-.54-2.33c-2-3.9-6-9.21-10.46-14.9-4.76-6.06-6.94-8.44-11-13a77.74,77.74,0,0,1-14-23,42.15,42.15,0,0,1-1-15c.48-4.21,1.28-11.1,6-17,8.25-10.29,22.48-10,25.5-10,3.27,0,14.9.18,23.5,9,10,10.27,7.43,30.12,7,34h-24V299.17a5.67,5.67,0,0,0-5.67-5.67h-1.66a7.63,7.63,0,0,0-6.67,6,47.45,47.45,0,0,0,0,5c.07,1.24.07,2.36.15,3.39a8.64,8.64,0,0,0,2.12,5.06Z"/><path id="g" class="cls-11" d="M85.45,543.5c4.27.15,8.15-.09,12.33,0a1.7,1.7,0,0,0,1.74-1.68L100,479H69.5v18.5h5v25a6.41,6.41,0,0,1-2,2,6.77,6.77,0,0,1-7,0,6.41,6.41,0,0,1-2-2v-87a6.41,6.41,0,0,1,2-2,6.77,6.77,0,0,1,7,0,6.41,6.41,0,0,1,2,2v28h25V438.76A28.51,28.51,0,0,0,84,413.4h0A34.39,34.39,0,0,0,74.7,410a33.68,33.68,0,0,0-15.2.5,42.83,42.83,0,0,0-12,7l-.12.1A23.5,23.5,0,0,0,39,435.8l.46,89.7h0a10.48,10.48,0,0,0,1.78,5.91A35.17,35.17,0,0,0,52.57,542a11.49,11.49,0,0,0,5.83,1.54H76.5a8.12,8.12,0,0,0,5-2c1.15-1.07,1.91-2.6,3-2.46.51.06,1,.38,1,.58C85.49,540.87,85.48,542.84,85.45,543.5Z"/><g id="e-2" data-name="e"><line class="cls-13" x1="130.76" y1="474.19" x2="149" y2="474.19"/><polyline class="cls-13" points="128.52 421.5 118.5 421.5 118.28 478.19 130.76 478.19"/><line class="cls-14" x1="156" y1="419.5" x2="128" y2="419.5"/><polyline class="cls-13" points="156.5 531.5 118.5 531.5 118.28 473.19"/></g><g id="t-2" data-name="t"><line class="cls-15" x1="190" y1="429" x2="190.15" y2="544"/><line class="cls-14" x1="161" y1="419.5" x2="220" y2="419.5"/></g></g><path class="cls-16" d="M370,695a88.54,88.54,0,0,1-3-30c1.05-21.56,1.17-52.49,2.16-74.65a15.13,15.13,0,0,0-.46-4.43c-.88-3.42-2.31-8.25-4.7-11.91a40.14,40.14,0,0,0-16-14,31.54,31.54,0,0,0,13-13,30.6,30.6,0,0,0,3.27-10.72V441.47A31.48,31.48,0,0,0,351,420c-3.73-2.21-9.7-3.35-17.51-5.82A99.57,99.57,0,0,0,319.36,411c-12.17-1.74-43.45-2.09-84.83,0V712.95h54.89c.19-39.65.39-91.3.58-130.95h14a8.22,8.22,0,0,1,5.38,4.18A7.81,7.81,0,0,1,310,591c0,1.1,0,2.86,0,5,0,5.68.1,20.89,1,43,.4,10,1.61,24.95,2,30,.73,9.33,1.26,15.81,3,24a128.83,128.83,0,0,0,6,20l53.25-.05ZM312.5,525.5a12,12,0,0,1-12,12h-9v-75h9a12,12,0,0,1,12,12Z"/><g id="E-3" data-name="E"><line class="cls-17" x1="410.75" y1="409" x2="410.99" y2="713.5"/><line class="cls-18" x1="412.28" y1="687.55" x2="500.5" y2="687.55"/><line class="cls-18" x1="412.28" y1="434.55" x2="500.5" y2="434.55"/><line class="cls-19" x1="432.94" y1="555.18" x2="480.68" y2="555.18"/></g><path class="cls-20" d="M618,411.5H547l-38,299h50l7.5-48h29l5,48h57Zm-47,192,12-93,8,93Z"/><path class="cls-11" d="M752.5,409.5h-86v303h86a58,58,0,0,0,58-58v-187A58,58,0,0,0,752.5,409.5Zm-2,238a12,12,0,0,1-12,12h-13v-194h13a12,12,0,0,1,12,12Z"/><polygon id="Y" class="cls-21" points="804 409 852 574.1 852 710 911 710 911 574.1 961 409 903 409 884 505.64 862 409 804 409"/></g></svg>