<svg xmlns="http://www.w3.org/2000/svg" viewBox="0 0 1000 1000"><defs><style>.cls-1,.cls-18{font-size:100px;letter-spacing:0.06em;}.cls-1{fill:#baaea0;}.cls-1,.cls-12,.cls-16,.cls-18{font-family:PTSans-NarrowBold, PT Sans Narrow;font-weight:700;}.cls-2{letter-spacing:0.04em;}.cls-3{letter-spacing:0.02em;}.cls-4{letter-spacing:-0.02em;}.cls-5{letter-spacing:0.04em;}.cls-6{letter-spacing:0.03em;}.cls-7{letter-spacing:0.05em;}.cls-8{letter-spacing:0.03em;}.cls-9{letter-spacing:0.03em;}.cls-10{letter-spacing:0.06em;}.cls-11{fill:gray;stroke:gray;stroke-miterlimit:10;}.cls-12,.cls-16{font-size:161px;fill:#999;}.cls-12,.cls-17{letter-spacing:0.07em;}.cls-13{letter-spacing:0.05em;}.cls-14{letter-spacing:0.04em;}.cls-15{letter-spacing:-0.02em;}.cls-16{letter-spacing:0.06em;}.cls-18{fill:#e6e6e6;}</style></defs><title>nycares-greyscale</title><g id="nycares-colored"><g id="Text"><text class="cls-1" transform="translate(-1018.76 858.11)">THE<tspan class="cls-2" x="161.3" y="0"> </tspan><tspan class="cls-3" x="185.6" y="0">W</tspan><tspan class="cls-4" x="259.4" y="0">A</tspan><tspan class="cls-5" x="307.8" y="0">Y</tspan><tspan class="cls-6" x="360.9" y="0" xml:space="preserve"> T</tspan><tspan class="cls-7" x="434.5" y="0">O</tspan><tspan class="cls-8" x="494.5" y="0"> </tspan><tspan class="cls-9" x="518.39" y="0">V</tspan><tspan class="cls-10" x="571.39" y="0" xml:space="preserve">OLUNTEER  </tspan></text></g><path class="cls-11" d="M686.5,228.5c3,5,4.89,9.91,7.66,14.76a19.85,19.85,0,0,1,1.07,2.33,25.22,25.22,0,0,1,1.71,8.89c.31,11.45-1.64,17.81,1.56,19,1.71.65,4.14,1.76,9-2,3.56-2.76,6.34-4.61,8.37-6.6.41-.4.83-.81,1.27-1.18,12-10.14,22.21-17.93,29.36-23.21,10.13-7.49,19.91-15.45,30-23,8.76-6.56,14-10.37,18-18,3.3-6.36,4-12,6-12,2.51.06,4.43,8.7,5,14,.67,6.25-.18,11.29-1,16-.4,2.29-.86,4.4-1.34,6.29-1.38,5.46-5.33,8.54-6.84,10C776.5,252.5,781.5,248.5,774.5,254.5c-7.19,6.16-17.14,13.12-29,21-1.47,1.07-24.71,17.74-39.13,24.49-2.38,1.11-4.71,2.08-7.21,3a155.81,155.81,0,0,1-17.06,5.46h-12a28.94,28.94,0,0,1-19.94-8c-1.35-1.28-4.23-3.32-10.26-11.18C632,279.09,625.53,270.67,620.93,258a141.77,141.77,0,0,1-5.43-19.53c-.62-3.09-1.11-6.13-2.31-10.8-1-3.77-2.71-9.88-2.87-10.45l-.24-.83-.21-.71c-.21-.81-.49-1.81-.83-2.95a67.83,67.83,0,0,0-6.54-15.26A63.87,63.87,0,0,0,592.91,185l-25.76-31.15a1.42,1.42,0,0,1,1.63-2.22A253.77,253.77,0,0,1,613.5,169.5c10.79,5.58,19.25,13.13,24,16,6.2,3.75,11.4,7,15.27,9.53a17.39,17.39,0,0,1,1.42,1A260.75,260.75,0,0,1,676.5,215.5Z"/></g><g id="nycares-greyscale"><g id="Heart"><path class="cls-11" d="M641.5,404.5c5-6.62,34.84-44.44,88-50,58.09-6.07,97.82,31.5,108,42,8.38,8.65,42.79,45.38,39,101-3.87,56.82-44.61,89.11-51,94l-40,42-85,70-48.77,33H708.5c68.2,0,141-1,193-1,6.49,0,21.73-.91,26-6,47-56,71-153,71-225.5,0-79.92-45.62-148.29-111.61-196.73-32.39-23.77-83.51-14.4-135.12.68-30.77,9-61.15,27.54-86.27,27.54-65,0-51-21-103-11-35.75,6.87-65,23-84,49-22.39,30.63-25,45-25,92,0,0,0,.15.06.18.59.32,5.08-7,13.94-21.18l5-8a109.79,109.79,0,0,1,69-54,116.56,116.56,0,0,1,100,22Z"/></g><g id="Text-2" data-name="Text"><text class="cls-12" transform="translate(-5.76 592.11)">Ne<tspan class="cls-13" x="178.06" y="0">w</tspan><tspan class="cls-14" x="281.91" y="0"> </tspan><tspan class="cls-15" x="322" y="0">Y</tspan><tspan x="398.15" y="0">or</tspan><tspan class="cls-14" x="539.19" y="0">k</tspan></text><text class="cls-16" transform="translate(247.24 732.11)">C<tspan class="cls-17" x="83.4" y="0">ares</tspan></text><text class="cls-18" transform="translate(1.24 857.11)">THE<tspan class="cls-2" x="161.3" y="0"> </tspan><tspan class="cls-3" x="185.6" y="0">W</tspan><tspan class="cls-4" x="259.4" y="0">A</tspan><tspan class="cls-5" x="307.8" y="0">Y</tspan><tspan class="cls-6" x="360.9" y="0" xml:space="preserve"> T</tspan><tspan class="cls-7" x="434.5" y="0">O</tspan><tspan class="cls-8" x="494.5" y="0"> </tspan><tspan class="cls-9" x="518.39" y="0">V</tspan><tspan class="cls-10" x="571.39" y="0" xml:space="preserve">OLUNTEER  </tspan></text></g></g></svg>