<svg xmlns="http://www.w3.org/2000/svg" viewBox="0 0 1000 1000"><defs><style>.cls-1,.cls-3{fill:#999;}.cls-2{fill:#e6e6e6;}.cls-3{stroke:#999;stroke-miterlimit:10;}</style></defs><title>nycares-greyscale</title><g id="nycares-greyscale"><g id="Text"><path class="cls-1" d="M57.08,536.65l-7-18.59h-.76l2.42,18.29v52.3h-18V482.08H48.46l30.38,53.2,6.5,18.29h.91l-2.42-18V482.84h18V589.4H87.16Z"/><path class="cls-1" d="M176.64,583a29,29,0,0,1-10.28,5.44,43.69,43.69,0,0,1-13.6,2.12,31,31,0,0,1-13.53-2.72,23.8,23.8,0,0,1-9.29-7.86,35.6,35.6,0,0,1-5.37-12.47,72.66,72.66,0,0,1-1.74-16.7q0-20.41,8.09-30.15T153.36,511a30.88,30.88,0,0,1,9.37,1.44,20.56,20.56,0,0,1,8.09,4.84,24.63,24.63,0,0,1,5.74,9.07,40,40,0,0,1,2.19,14.28q0,3.33-.38,7.1t-1.13,8.16H140.51q.3,9.37,3.93,14.36t11.64,5a24.85,24.85,0,0,0,8.84-1.51A23.47,23.47,0,0,0,171,570.5Zm-23.58-56.68a9.48,9.48,0,0,0-8.62,4.61q-2.87,4.61-3.33,12.92H162q.45-8.62-1.81-13.07A7.49,7.49,0,0,0,153.06,526.37Z"/><path class="cls-1" d="M247.37,513.07,258,551.76l1.81,12.54h.6l1.51-12.7,7.1-38.54h16.32L266.72,589.4H252.51l-11.34-42.17L240,537.55h-.91l-1.06,10L227.12,589.4H212.46l-19.35-76.33h19.5L220.77,551l1.36,13.45h.6l2-13.6,9.22-37.79Z"/><path class="cls-1" d="M357.11,549.34l-28.42-66.5h22.67L366,522.89l1.51,11.49h.76L370,522.59l14.36-39.75h20.41l-28.57,66.35v39.45h-19Z"/><path class="cls-1" d="M404.57,550.85q0-20.1,7.86-29.93t21.92-9.82q15.11,0,22.52,10t7.41,29.78q0,20.26-7.86,30t-22.07,9.75Q404.56,590.61,404.57,550.85Zm18.59,0q0,11.34,2.57,17.53t8.62,6.2a9.09,9.09,0,0,0,8.54-5.37q2.79-5.36,2.8-18.36,0-11.64-2.57-17.68t-8.77-6q-5.29,0-8.24,5.37T423.16,550.85Z"/><path class="cls-1" d="M520.65,530.9a19.1,19.1,0,0,0-6.65-1.36,10.92,10.92,0,0,0-11,8.62v50.48H485V513.07h13.75l2.12,9.07h.6a17.5,17.5,0,0,1,5.67-7.78,13.79,13.79,0,0,1,8.54-2.8,17.69,17.69,0,0,1,7.1,1.51Z"/><path class="cls-1" d="M561.91,557.35h-4.23v31.29h-18V482.84h18v62.42l3.63-2.12,12.54-30.08h19.5L579.44,543l-6.5,5.14,7.1,5.14,15.42,35.37H575.21Z"/><path class="cls-1" d="M331.33,715.84a24.5,24.5,0,0,1-10.5,4.84,58.29,58.29,0,0,1-13.07,1.51,40.73,40.73,0,0,1-15.19-2.8,30.2,30.2,0,0,1-12.32-9.3q-5.29-6.5-8.31-17.08t-3-26q0-16,3.4-26.6t8.92-16.85a30.59,30.59,0,0,1,12.62-8.84,42,42,0,0,1,14.36-2.57,61,61,0,0,1,12.92,1.21,50,50,0,0,1,9,2.72l-3.78,16.78a26.4,26.4,0,0,0-6.73-2.34,44,44,0,0,0-9.14-.83q-10.43,0-16,9.07t-5.59,28.42a82.86,82.86,0,0,0,1.28,15.19,38.6,38.6,0,0,0,4.08,11.87,21.06,21.06,0,0,0,7.1,7.71,19,19,0,0,0,10.35,2.72,25.53,25.53,0,0,0,9.07-1.44,35.7,35.7,0,0,0,6.8-3.4Z"/><path class="cls-1" d="M349.46,649a41,41,0,0,1,11.34-4.38A65.15,65.15,0,0,1,376.22,643q12.85,0,17.91,6.65t5.06,18.89q0,7.11-.38,14T398.28,696q-.15,6.57.23,12.7a49.78,49.78,0,0,0,2,11.56H385.89L383,711h-.6a20.33,20.33,0,0,1-6.8,7.25,19.76,19.76,0,0,1-11,2.87q-8.92,0-14.06-6t-5.14-15.95q0-13.6,9.67-19.35T381.2,675q.75-8.76-1.13-12.7T372,658.4a43.88,43.88,0,0,0-9.37,1.06,34.7,34.7,0,0,0-8.62,3Zm21.61,56.68a10.37,10.37,0,0,0,6.65-2,13.47,13.47,0,0,0,3.78-4.46V686.67a29.68,29.68,0,0,0-6.65-.15,18.29,18.29,0,0,0-5.59,1.36,9,9,0,0,0-3.85,3.1,8.84,8.84,0,0,0-1.44,5.21q0,4.69,1.89,7.1A6.25,6.25,0,0,0,371.08,705.71Z"/><path class="cls-1" d="M457.83,662.33a19.1,19.1,0,0,0-6.65-1.36,10.92,10.92,0,0,0-11,8.62v50.48h-18V644.5h13.75l2.12,9.07h.6a17.5,17.5,0,0,1,5.67-7.78,13.79,13.79,0,0,1,8.54-2.8,17.69,17.69,0,0,1,7.1,1.51Z"/><path class="cls-1" d="M528,714.48a29,29,0,0,1-10.28,5.44,43.69,43.69,0,0,1-13.6,2.12,31,31,0,0,1-13.53-2.72,23.8,23.8,0,0,1-9.29-7.86A35.6,35.6,0,0,1,475.9,699a72.66,72.66,0,0,1-1.74-16.7q0-20.41,8.09-30.15t22.45-9.75a30.88,30.88,0,0,1,9.37,1.44,20.56,20.56,0,0,1,8.09,4.84,24.63,24.63,0,0,1,5.74,9.07A40,40,0,0,1,530.08,672q0,3.33-.38,7.1t-1.13,8.16H491.84q.3,9.37,3.93,14.36t11.64,5a24.85,24.85,0,0,0,8.84-1.51,23.47,23.47,0,0,0,6.12-3.17ZM504.39,657.8a9.48,9.48,0,0,0-8.62,4.61q-2.87,4.61-3.33,12.92h20.86q.45-8.62-1.81-13.07A7.49,7.49,0,0,0,504.39,657.8Z"/><path class="cls-1" d="M577.39,700a7.58,7.58,0,0,0-2-5.37,23.55,23.55,0,0,0-5.21-4.08q-3.17-1.89-6.73-3.85a35.84,35.84,0,0,1-6.73-4.84,23.31,23.31,0,0,1-5.21-7,22.9,22.9,0,0,1-2-10.28q0-10.58,5.74-16.32t16.93-5.74A52.91,52.91,0,0,1,584.65,644a33.57,33.57,0,0,1,9.37,3.55l-4.23,13.91a58.57,58.57,0,0,0-7-2.34,29.85,29.85,0,0,0-8-1.13q-7.41,0-7.41,6.2a6.21,6.21,0,0,0,2,4.76,28.35,28.35,0,0,0,5.21,3.7q3.17,1.81,6.73,3.78a34.33,34.33,0,0,1,6.73,4.91,22.6,22.6,0,0,1,7.25,17.61q0,10.43-6.35,16.78T570.14,722A49.46,49.46,0,0,1,558,720.53a31,31,0,0,1-9.6-3.93l5-14.51a39.55,39.55,0,0,0,7.33,3.17,27.76,27.76,0,0,0,8.69,1.36,9.79,9.79,0,0,0,5.74-1.59A5.74,5.74,0,0,0,577.39,700Z"/><path class="cls-2" d="M77.23,782.6H61.74v54.83H49.91V782.6H34.33V771.71h42.9Z"/><path class="cls-2" d="M117.5,809.63H99.57v27.79H87.74V771.71H99.57v27H117.5v-27h11.83v65.72H117.5Z"/><path class="cls-2" d="M143.32,771.71h32.86V782.6h-21v16.15h19.06v10.89H155.15v16.9h21.4v10.89H143.32Z"/><path class="cls-2" d="M227.06,807.85l.94,11.83h.38l1-12,8.82-36h8.26L255,807.85l1,11.83h.38l1-12,5.82-36h12l-14.74,66.19h-8.36L243,801.65l-1.22-10.23h-.47l-1.13,10.33L231,837.89h-8.73l-14.65-66.19h13Z"/><path class="cls-2" d="M307.89,822.4H292.4l-3.85,15H276.82l19.06-66.19h9.29l19.15,66.19H311.93Zm-13-9.58h10.89l-3.75-15.3-1.5-10.33h-.37l-1.6,10.42Z"/><path class="cls-2" d="M339.81,813l-17.65-41.31h14.08l9.11,24.88.94,7.13h.47l1-7.32,8.92-24.69h12.67l-17.74,41.21v24.5H339.81Z"/><path class="cls-2" d="M438,782.6H422.52v54.83H410.69V782.6H395.1V771.71H438Z"/><path class="cls-2" d="M444.2,804.57q0-16.71,5.73-25.44t17.46-8.73a21.75,21.75,0,0,1,10.51,2.39,19.44,19.44,0,0,1,7.23,6.85,33.1,33.1,0,0,1,4.18,10.8,67.54,67.54,0,0,1,1.36,14.13q0,16.71-5.87,25.44t-17.42,8.73a21.68,21.68,0,0,1-10.56-2.39,19.53,19.53,0,0,1-7.18-6.85,32.34,32.34,0,0,1-4.13-10.8A69.65,69.65,0,0,1,444.2,804.57Zm12.39,0a71,71,0,0,0,.56,9.25,28.42,28.42,0,0,0,1.88,7.37,13.31,13.31,0,0,0,3.33,4.88,7.3,7.3,0,0,0,5,1.78q5.44,0,8.17-5.54t2.72-17.74a69.45,69.45,0,0,0-.56-9.06,30.65,30.65,0,0,0-1.83-7.42,13,13,0,0,0-3.33-5,7.5,7.5,0,0,0-5.16-1.83Q456.59,781.28,456.59,804.57Z"/><path class="cls-2" d="M543.06,810.29l1.31,11.27h.38l1.5-11.36,9.58-38.49h12.49l-19.9,66.19h-9l-20.09-66.19h14Z"/><path class="cls-2" d="M572.72,804.57q0-16.71,5.73-25.44t17.46-8.73a21.75,21.75,0,0,1,10.51,2.39,19.44,19.44,0,0,1,7.23,6.85,33.1,33.1,0,0,1,4.18,10.8,67.54,67.54,0,0,1,1.36,14.13q0,16.71-5.87,25.44t-17.42,8.73a21.68,21.68,0,0,1-10.56-2.39,19.53,19.53,0,0,1-7.18-6.85,32.34,32.34,0,0,1-4.13-10.8A69.65,69.65,0,0,1,572.72,804.57Zm12.39,0a71,71,0,0,0,.56,9.25,28.42,28.42,0,0,0,1.88,7.37,13.31,13.31,0,0,0,3.33,4.88,7.3,7.3,0,0,0,5,1.78q5.44,0,8.17-5.54t2.72-17.74a69.45,69.45,0,0,0-.56-9.06,30.65,30.65,0,0,0-1.83-7.42,13,13,0,0,0-3.33-5,7.5,7.5,0,0,0-5.16-1.83Q585.11,781.28,585.11,804.57Z"/><path class="cls-2" d="M666.6,837.42H631.68V771.71h11.83v54.83H666.6Z"/><path class="cls-2" d="M706,771.71H717.2v42.62q0,12.77-5.21,18.49t-14.41,5.73q-10.8,0-15.82-5.59t-5-17V771.71h11.83v42.15q0,7.7,2.07,10.75t6.85,3.05q4.6,0,6.57-3.24t2-10.56Z"/><path class="cls-2" d="M745.37,805.13,741,793.58h-.47l1.5,11.36v32.48H730.91V771.24H740l18.87,33,4,11.36h.56L762,804.47V771.71h11.17v66.19H764Z"/><path class="cls-2" d="M826.57,782.6H811.08v54.83H799.25V782.6H783.67V771.71h42.9Z"/><path class="cls-2" d="M837.09,771.71h32.86V782.6h-21v16.15H868v10.89H848.92v16.9h21.4v10.89H837.09Z"/><path class="cls-2" d="M883,771.71h32.86V782.6h-21v16.15h19.06v10.89H894.82v16.9h21.4v10.89H883Z"/><path class="cls-2" d="M928.9,772.36a63.76,63.76,0,0,1,8.26-1.22q4.41-.37,7.6-.38a38.82,38.82,0,0,1,7.89.8,17.76,17.76,0,0,1,6.81,2.91,15.46,15.46,0,0,1,4.79,5.73,20.19,20.19,0,0,1,1.83,9.15q0,8-3,13a15.32,15.32,0,0,1-8.12,6.9l3.75,3,12.11,25.16H957.25L945.8,811.51l-5.07-1.22v27.13H928.9Zm11.83,29.85h4q4.41,0,6.67-2.68t2.25-8.31a11.76,11.76,0,0,0-1.88-6.9q-1.88-2.68-5.92-2.68-1.5,0-2.91.09a9.31,9.31,0,0,0-2.25.38Z"/></g><g id="Heart"><path class="cls-3" d="M634.66,412.51c4.73-6.21,32.71-41.72,82.61-46.94,54.54-5.7,91.84,29.57,101.39,39.43,7.87,8.12,40.17,42.61,36.61,94.82-3.64,53.35-41.88,83.65-47.88,88.25L769.84,627.5,690,693.21l-45.78,31h53.29c64,0,132.37-.94,181.19-.94,6.09,0,20.4-.85,24.41-5.63C947.28,665,969.81,574,969.81,505.92c0-75-36.29-149.84-104.78-184.69-38.84-19.76-78.4-13.52-126.85.64-28.88,8.44-57.4,25.86-81,25.86-61,0-47.88-19.71-96.7-10.33-33.56,6.45-61,21.59-78.86,46-21,28.76-23.47,42.21-23.47,86.37,0,0,0,.14.06.17.55.3,4.77-6.56,13.08-19.89l4.69-7.51a103.07,103.07,0,0,1,64.78-50.7,109.43,109.43,0,0,1,93.88,20.65Z"/><path class="cls-3" d="M686.7,270.73c.29,10.75-1.54,16.72,1.47,17.85,1.61.61,3.89,1.66,8.45-1.88,3.34-2.59,5.94-4.32,7.85-6.19.39-.38.78-.77,1.2-1.12,11.3-9.52,20.85-16.83,27.56-21.79,9.51-7,18.7-14.5,28.16-21.59,8.22-6.16,13.18-9.74,16.9-16.9,3.1-6,3.71-11.31,5.63-11.27,2.36.05,4.53,8.15,4.69,13.14a74.11,74.11,0,0,1-.94,15,26.76,26.76,0,0,1-1.3,5.3,26.42,26.42,0,0,1-1.61,3.59,28.88,28.88,0,0,1-4.77,6.37c-5.8,6.08-8.57,8.11-13.18,12.66a92.23,92.23,0,0,1-7.3,6.81c-6.75,5.79-16.09,12.32-27.23,19.71-1.38,1-23.2,16.65-36.74,23-2.23,1-4.42,2-6.77,2.86a146.27,146.27,0,0,1-16,5.13H661.32a27.29,27.29,0,0,1-18.63-7.54c-1.29-1.21-4-3.18-9.57-10.44-7.38-9.63-13.45-17.54-17.77-29.4a133.09,133.09,0,0,1-5.1-18.34c-.58-2.9-1-5.75-2.17-10.14-.9-3.54-2.54-9.27-2.7-9.81l-.23-.78-.19-.66c-.2-.76-.46-1.7-.78-2.77A63.68,63.68,0,0,0,598,217.24a60,60,0,0,0-9-11.7L564.86,176.3a1.33,1.33,0,0,1,1.53-2.09,238.24,238.24,0,0,1,42,16.74l32.8,21.4a127.25,127.25,0,0,1,11.42,8.39c5.14,4.24,10.19,8.66,14.93,13.4l9.39,12.2a43.54,43.54,0,0,1,9.8,24.39Z"/></g></g></svg>