<svg xmlns="http://www.w3.org/2000/svg" viewBox="0 0 1000 1000"><defs><style>.cls-1{fill:#baaea0;}.cls-2{fill:#d81a1a;stroke:#d81a1a;stroke-miterlimit:10;}</style></defs><title>nycares-colored</title><g id="nycares-colored"><g id="Text"><path d="M56.91,536.55,50,518H49.2l2.42,18.29v52.3h-18V482H48.29l30.38,53.2,6.5,18.29h.91l-2.42-18V482.74h18V589.3H87Z"/><path d="M176.47,583a29,29,0,0,1-10.28,5.44,43.68,43.68,0,0,1-13.6,2.12,31,31,0,0,1-13.53-2.72,23.8,23.8,0,0,1-9.3-7.86,35.61,35.61,0,0,1-5.37-12.47,72.63,72.63,0,0,1-1.74-16.7q0-20.4,8.09-30.15t22.45-9.75a30.88,30.88,0,0,1,9.37,1.44,20.56,20.56,0,0,1,8.09,4.84,24.65,24.65,0,0,1,5.74,9.07,40,40,0,0,1,2.19,14.28q0,3.33-.38,7.1t-1.13,8.16H140.34q.3,9.37,3.93,14.36t11.64,5a24.86,24.86,0,0,0,8.84-1.51,23.45,23.45,0,0,0,6.12-3.17Zm-23.58-56.68a9.48,9.48,0,0,0-8.62,4.61q-2.87,4.61-3.33,12.92H161.8q.45-8.62-1.81-13.07A7.49,7.49,0,0,0,152.89,526.27Z"/><path d="M247.2,513l10.58,38.69,1.81,12.54h.6l1.51-12.7,7.1-38.54h16.32L266.55,589.3H252.34L241,547.13l-1.21-9.67h-.91l-1.06,10L226.95,589.3H212.29L192.94,513h19.5l8.16,37.94L222,564.36h.6l2-13.6L233.75,513Z"/><path d="M356.94,549.25l-28.42-66.5h22.67l14.66,40.05,1.51,11.49h.76l1.66-11.79,14.36-39.75h20.41L376,549.1v39.45h-19Z"/><path d="M404.4,550.76q0-20.1,7.86-29.93T434.17,511q15.11,0,22.52,10t7.41,29.78q0,20.26-7.86,30t-22.07,9.75Q404.39,590.51,404.4,550.76Zm18.59,0q0,11.34,2.57,17.53t8.62,6.2a9.09,9.09,0,0,0,8.54-5.37q2.79-5.36,2.8-18.36,0-11.64-2.57-17.68t-8.77-6q-5.29,0-8.24,5.37T423,550.76Z"/><path d="M520.48,530.81a19.08,19.08,0,0,0-6.65-1.36,10.92,10.92,0,0,0-11,8.62v50.48h-18V513h13.75l2.12,9.07h.6a17.5,17.5,0,0,1,5.67-7.78,13.79,13.79,0,0,1,8.54-2.8,17.68,17.68,0,0,1,7.1,1.51Z"/><path d="M561.74,557.26h-4.23v31.29h-18V482.74h18v62.42l3.63-2.12L573.68,513h19.5L579.27,542.9l-6.5,5.14,7.1,5.14,15.42,35.37H575Z"/><path d="M331.15,715.75a24.49,24.49,0,0,1-10.5,4.84,58.29,58.29,0,0,1-13.07,1.51,40.73,40.73,0,0,1-15.19-2.8,30.21,30.21,0,0,1-12.32-9.3q-5.29-6.5-8.31-17.08t-3-26q0-16,3.4-26.6T281,623.47a30.6,30.6,0,0,1,12.62-8.84A42,42,0,0,1,308,612.06,61,61,0,0,1,321,613.27a50.15,50.15,0,0,1,9,2.72l-3.78,16.78a26.44,26.44,0,0,0-6.73-2.34,44,44,0,0,0-9.14-.83q-10.43,0-16,9.07t-5.59,28.42A82.86,82.86,0,0,0,290,682.27,38.57,38.57,0,0,0,294,694.13a21.05,21.05,0,0,0,7.1,7.71,19,19,0,0,0,10.35,2.72,25.53,25.53,0,0,0,9.07-1.44,35.71,35.71,0,0,0,6.8-3.4Z"/><path d="M349.29,648.94a41,41,0,0,1,11.34-4.38A65.18,65.18,0,0,1,376,642.89q12.85,0,17.91,6.65T399,668.44q0,7.11-.38,14t-.53,13.45q-.15,6.57.23,12.7a49.83,49.83,0,0,0,2,11.56H385.72l-2.87-9.22h-.6a20.33,20.33,0,0,1-6.8,7.25,19.76,19.76,0,0,1-11,2.87q-8.92,0-14.06-6t-5.14-15.95q0-13.6,9.67-19.35T381,674.94q.75-8.76-1.13-12.7t-8.09-3.93a43.92,43.92,0,0,0-9.37,1.06,34.72,34.72,0,0,0-8.62,3Zm21.61,56.68a10.37,10.37,0,0,0,6.65-2,13.46,13.46,0,0,0,3.78-4.46V686.58a29.68,29.68,0,0,0-6.65-.15,18.29,18.29,0,0,0-5.59,1.36,9,9,0,0,0-3.85,3.1,8.84,8.84,0,0,0-1.44,5.21q0,4.69,1.89,7.1A6.25,6.25,0,0,0,370.91,705.62Z"/><path d="M457.66,662.24a19.09,19.09,0,0,0-6.65-1.36,10.92,10.92,0,0,0-11,8.62V720H422V644.41h13.75l2.12,9.07h.6a17.5,17.5,0,0,1,5.67-7.78,13.79,13.79,0,0,1,8.54-2.8,17.68,17.68,0,0,1,7.1,1.51Z"/><path d="M527.79,714.39a29,29,0,0,1-10.28,5.44,43.68,43.68,0,0,1-13.6,2.12,31,31,0,0,1-13.53-2.72,23.8,23.8,0,0,1-9.3-7.86,35.61,35.61,0,0,1-5.37-12.47,72.63,72.63,0,0,1-1.74-16.7q0-20.4,8.09-30.15t22.45-9.75a30.89,30.89,0,0,1,9.37,1.44,20.56,20.56,0,0,1,8.09,4.84,24.65,24.65,0,0,1,5.74,9.07,40,40,0,0,1,2.19,14.28q0,3.33-.38,7.1t-1.13,8.16H491.67q.3,9.37,3.93,14.36t11.64,5a24.86,24.86,0,0,0,8.84-1.51,23.46,23.46,0,0,0,6.12-3.17Zm-23.58-56.68a9.48,9.48,0,0,0-8.62,4.61q-2.87,4.61-3.33,12.92h20.86q.45-8.62-1.81-13.07A7.49,7.49,0,0,0,504.22,657.71Z"/><path d="M577.22,699.88a7.58,7.58,0,0,0-2-5.37,23.55,23.55,0,0,0-5.21-4.08q-3.17-1.89-6.73-3.85a35.84,35.84,0,0,1-6.73-4.84,23.33,23.33,0,0,1-5.21-7,22.9,22.9,0,0,1-2-10.28q0-10.58,5.74-16.32t16.93-5.74a52.91,52.91,0,0,1,12.55,1.44,33.57,33.57,0,0,1,9.37,3.55l-4.23,13.91a58.74,58.74,0,0,0-7-2.34,29.86,29.86,0,0,0-8-1.13q-7.41,0-7.41,6.2a6.21,6.21,0,0,0,2,4.76,28.35,28.35,0,0,0,5.21,3.7q3.17,1.81,6.73,3.78a34.33,34.33,0,0,1,6.73,4.91,22.6,22.6,0,0,1,7.25,17.61q0,10.43-6.35,16.78T570,721.94a49.46,49.46,0,0,1-12.17-1.51,31,31,0,0,1-9.6-3.93l5-14.51a39.55,39.55,0,0,0,7.33,3.17,27.76,27.76,0,0,0,8.69,1.36,9.79,9.79,0,0,0,5.74-1.59A5.75,5.75,0,0,0,577.22,699.88Z"/><path class="cls-1" d="M77.05,782.5H61.56v54.83H49.74V782.5H34.15V771.61h42.9Z"/><path class="cls-1" d="M117.33,809.54H99.4v27.79H87.57V771.61H99.4v27h17.93v-27h11.83v65.72H117.33Z"/><path class="cls-1" d="M143.14,771.61H176V782.5H155v16.15H174v10.89H155v16.9h21.4v10.89H143.14Z"/><path class="cls-1" d="M226.88,807.76l.94,11.83h.38l1-12,8.82-36h8.26l8.54,36.14,1,11.83h.38l1-12,5.82-36h12L260.4,837.8H252l-9.2-36.24-1.22-10.23h-.47L240,801.65l-9.2,36.14H222.1l-14.65-66.19h13Z"/><path class="cls-1" d="M307.72,822.31H292.23l-3.85,15H276.64l19.06-66.19H305l19.15,66.19H311.75Zm-13-9.58h10.89l-3.76-15.3-1.5-10.33H300l-1.6,10.42Z"/><path class="cls-1" d="M339.64,812.92,322,771.61h14.08l9.11,24.88.94,7.13h.47l1-7.32,8.92-24.69h12.67l-17.74,41.21v24.5H339.64Z"/><path class="cls-1" d="M437.83,782.5H422.34v54.83H410.51V782.5H394.93V771.61h42.9Z"/><path class="cls-1" d="M444,804.47q0-16.71,5.73-25.44t17.46-8.73a21.75,21.75,0,0,1,10.51,2.39,19.44,19.44,0,0,1,7.23,6.85,33.1,33.1,0,0,1,4.18,10.8,67.5,67.5,0,0,1,1.36,14.13q0,16.71-5.87,25.44t-17.41,8.73a21.68,21.68,0,0,1-10.56-2.39,19.53,19.53,0,0,1-7.18-6.85,32.36,32.36,0,0,1-4.13-10.8A69.68,69.68,0,0,1,444,804.47Zm12.39,0a70.9,70.9,0,0,0,.56,9.25,28.4,28.4,0,0,0,1.88,7.37A13.31,13.31,0,0,0,462.2,826a7.3,7.3,0,0,0,5,1.78q5.44,0,8.17-5.54t2.72-17.74a69.36,69.36,0,0,0-.56-9.06,30.63,30.63,0,0,0-1.83-7.42,13,13,0,0,0-3.33-5,7.5,7.5,0,0,0-5.16-1.83Q456.42,781.19,456.42,804.47Z"/><path class="cls-1" d="M542.88,810.2l1.31,11.27h.38l1.5-11.36,9.58-38.49h12.49l-19.9,66.19h-9l-20.09-66.19h14Z"/><path class="cls-1" d="M572.55,804.47q0-16.71,5.73-25.44t17.46-8.73a21.75,21.75,0,0,1,10.51,2.39,19.43,19.43,0,0,1,7.23,6.85,33.11,33.11,0,0,1,4.18,10.8A67.54,67.54,0,0,1,619,804.47q0,16.71-5.87,25.44t-17.42,8.73a21.68,21.68,0,0,1-10.56-2.39A19.53,19.53,0,0,1,578,829.4a32.34,32.34,0,0,1-4.13-10.8A69.72,69.72,0,0,1,572.55,804.47Zm12.39,0a71,71,0,0,0,.56,9.25,28.42,28.42,0,0,0,1.88,7.37,13.31,13.31,0,0,0,3.33,4.88,7.3,7.3,0,0,0,5,1.78q5.44,0,8.17-5.54t2.72-17.74a69.45,69.45,0,0,0-.56-9.06,30.65,30.65,0,0,0-1.83-7.42,13,13,0,0,0-3.33-5,7.5,7.5,0,0,0-5.16-1.83Q584.94,781.19,584.94,804.47Z"/><path class="cls-1" d="M666.43,837.33H631.51V771.61h11.83v54.83h23.09Z"/><path class="cls-1" d="M705.86,771.61H717v42.62q0,12.77-5.21,18.49t-14.41,5.73q-10.8,0-15.82-5.59t-5-17V771.61H688.4v42.15q0,7.7,2.07,10.75t6.85,3.05q4.6,0,6.57-3.24t2-10.56Z"/><path class="cls-1" d="M745.2,805l-4.32-11.55h-.47l1.5,11.36v32.48H730.74V771.14h9.11l18.87,33,4,11.36h.56l-1.5-11.17V771.61H773V837.8h-9.11Z"/><path class="cls-1" d="M826.4,782.5H810.91v54.83H799.08V782.5H783.5V771.61h42.9Z"/><path class="cls-1" d="M836.92,771.61h32.86V782.5h-21v16.15H867.8v10.89H848.75v16.9h21.4v10.89H836.92Z"/><path class="cls-1" d="M882.82,771.61h32.86V782.5h-21v16.15h19.06v10.89H894.65v16.9h21.4v10.89H882.82Z"/><path class="cls-1" d="M928.73,772.27A63.84,63.84,0,0,1,937,771q4.41-.37,7.6-.38a38.85,38.85,0,0,1,7.89.8,17.78,17.78,0,0,1,6.81,2.91,15.46,15.46,0,0,1,4.79,5.73,20.19,20.19,0,0,1,1.83,9.15q0,8-3,13a15.32,15.32,0,0,1-8.12,6.9l3.76,3,12.11,25.16H957.08l-11.45-25.91-5.07-1.22v27.13H928.73Zm11.83,29.85h4q4.41,0,6.67-2.68t2.25-8.31a11.75,11.75,0,0,0-1.88-6.9q-1.88-2.68-5.92-2.68-1.5,0-2.91.09a9.36,9.36,0,0,0-2.25.38Z"/></g><g id="Heart"><path class="cls-2" d="M634.48,412.41c4.73-6.21,32.71-41.72,82.61-46.94,54.54-5.7,91.84,29.57,101.39,39.43,7.87,8.12,40.17,42.61,36.61,94.82-3.64,53.35-41.88,83.65-47.88,88.25L769.67,627.4l-79.8,65.72-45.78,31h53.29c64,0,132.37-.94,181.19-.94,6.09,0,20.4-.85,24.41-5.63,44.12-52.57,66.66-143.6,66.66-211.7,0-75-36.29-149.84-104.78-184.69-38.84-19.76-78.4-13.52-126.85.64-28.88,8.44-57.4,25.86-81,25.86-61,0-47.88-19.71-96.7-10.33-33.56,6.45-61,21.59-78.86,46-21,28.76-23.47,42.21-23.47,86.37,0,0,0,.14.06.17.55.3,4.77-6.56,13.08-19.89l4.69-7.51a103.07,103.07,0,0,1,64.78-50.7,109.43,109.43,0,0,1,93.88,20.65Z"/><path class="cls-2" d="M686.53,270.64c.29,10.75-1.54,16.72,1.47,17.85,1.61.61,3.89,1.66,8.45-1.88,3.34-2.59,5.94-4.32,7.85-6.19.39-.38.78-.77,1.2-1.12,11.3-9.52,20.85-16.83,27.56-21.79,9.51-7,18.7-14.5,28.16-21.59,8.22-6.16,13.18-9.74,16.9-16.9,3.1-6,3.71-11.31,5.63-11.27,2.36.05,4.53,8.15,4.69,13.14a74.11,74.11,0,0,1-.94,15,26.76,26.76,0,0,1-1.3,5.3,26.42,26.42,0,0,1-1.61,3.59,28.88,28.88,0,0,1-4.77,6.37c-5.8,6.08-8.57,8.11-13.18,12.66a92.23,92.23,0,0,1-7.3,6.81c-6.75,5.79-16.09,12.32-27.23,19.71-1.38,1-23.2,16.65-36.74,23-2.23,1-4.42,2-6.77,2.86a146.27,146.27,0,0,1-16,5.13H661.15a27.29,27.29,0,0,1-18.63-7.54c-1.29-1.21-4-3.18-9.57-10.44-7.38-9.63-13.45-17.54-17.77-29.4a133.09,133.09,0,0,1-5.1-18.34c-.58-2.9-1-5.75-2.17-10.14-.9-3.54-2.54-9.27-2.7-9.81l-.23-.78-.19-.66c-.2-.76-.46-1.7-.78-2.77a63.68,63.68,0,0,0-6.14-14.33,60,60,0,0,0-9-11.7L564.68,176.2a1.33,1.33,0,0,1,1.53-2.09,238.24,238.24,0,0,1,42,16.74l32.8,21.4a127.25,127.25,0,0,1,11.42,8.39c5.14,4.24,10.19,8.66,14.93,13.4l9.39,12.2a43.54,43.54,0,0,1,9.8,24.39Z"/></g></g></svg>