<svg xmlns="http://www.w3.org/2000/svg" height="1163.957" width="1774.96"><defs><clipPath id="a"><path d="M0 872.968h1331.22V0H0z"/></clipPath><clipPath id="b"><path d="M147.006 437.001c2.426-63.218 49.527-120.975 114.8-148.81-2.035 2.576-4.169 5.15-5.862 8.058-12.696 21.84-22.131 40.444-25.84 58.771-10.686 16.7-17.908 35.62-20.354 56.115-9.262 77.623 53.66 137.464 139.059 131.571 83.74-5.78 146.935-71.39 147.218-140.95.108-25.731-8.134-49.196-22.408-68.41-20.087-26.523-53.171-43.648-87.666-47.931 17.907-1.289 34.894.879 49.621 7.709-.064-.074-.121-.152-.186-.224.431.24.848.495 1.274.739 5.887 2.846 11.4 6.45 16.451 10.901 33.348 25.41 53.377 63.299 51.655 107.248-3.352 85.478-87.477 159.716-186.792 165.782-4.323.263-8.616.393-12.85.394-91.825.005-161.188-61.04-158.12-140.963"/></clipPath><linearGradient id="c" gradientTransform="scale(363.35253 -363.35253) rotate(13 5.844 1.16)" gradientUnits="userSpaceOnUse" x2="1"><stop offset="0" stop-color="#59baec"/><stop offset=".667" stop-color="#2e6ba6"/><stop offset="1" stop-color="#2e6ba6"/></linearGradient><clipPath id="d"><path d="M268.865 545.729c-.092-.111-.18-.224-.269-.337-.941-1.17-1.874-2.36-2.795-3.57-.112-.149-.225-.296-.338-.444a181.963 181.963 0 0 1-8.651-12.514l-.533-.856a177.746 177.746 0 0 1-2.142-3.519 86.11 86.11 0 0 1-.608-1.023c-.74-1.262-1.469-2.54-2.19-3.832-.122-.223-.249-.442-.374-.666a201.74 201.74 0 0 1-2.532-4.737c-.042-.082-.083-.167-.127-.252a218.591 218.591 0 0 1-2.205-4.413c-.212-.438-.419-.88-.63-1.319a260.413 260.413 0 0 1-2.338-5.066 213.857 213.857 0 0 1-1.613-3.723c-.184-.433-.37-.862-.553-1.297a242.398 242.398 0 0 1-2.063-5.128c-.05-.13-.097-.262-.147-.394a213.067 213.067 0 0 1-1.786-4.799c-.2-.55-.391-1.108-.586-1.664-.432-1.228-.86-2.466-1.275-3.716-.207-.625-.417-1.254-.621-1.885a256.054 256.054 0 0 1-1.204-3.828c-.176-.572-.353-1.138-.525-1.714a243.94 243.94 0 0 1-1.609-5.605 249.273 249.273 0 0 1-1.314-5.023c-.138-.552-.265-1.103-.399-1.656-.274-1.125-.544-2.25-.801-3.375-.149-.654-.289-1.306-.43-1.959a326.005 326.005 0 0 1-.658-3.078c-.141-.691-.277-1.379-.411-2.068-.195-.993-.384-1.983-.564-2.973a215.528 215.528 0 0 1-.869-5.069c-.109-.691-.223-1.382-.328-2.071-.155-1.018-.295-2.034-.436-3.048-.091-.656-.185-1.31-.271-1.966a226.069 226.069 0 0 1-.414-3.445c-.059-.513-.125-1.028-.179-1.539a214.658 214.658 0 0 1-.476-4.854c-.055-.611-.095-1.221-.142-1.831-.082-1.03-.165-2.062-.232-3.09-.05-.741-.088-1.482-.13-2.222-.048-.892-.099-1.785-.14-2.675-.035-.788-.062-1.571-.09-2.358-.029-.838-.055-1.674-.076-2.512-.018-.81-.033-1.619-.045-2.427-.01-.803-.016-1.606-.018-2.404-.001-.831-.003-1.657.004-2.484.006-.769.018-1.534.033-2.302.016-.849.028-1.697.053-2.543.022-.716.053-1.432.08-2.145.034-.888.065-1.776.108-2.662.025-.503.061-1.003.091-1.508.12-2.113.269-4.214.446-6.308.035-.41.066-.826.102-1.236.091-1.006.198-2.005.302-3.006.057-.543.11-1.087.172-1.627.11-.982.23-1.957.354-2.932.07-.549.136-1.098.21-1.644a221.207 221.207 0 0 1 .653-4.508 158.269 158.269 0 0 1 .729-4.398c.181-1.03.367-2.055.562-3.077.072-.375.149-.747.223-1.121.218-1.119.443-2.237.679-3.345a205.12 205.12 0 0 1 3.014-12.22 195.822 195.822 0 0 1 1.039-3.57c.076-.252.15-.508.227-.76.33-1.078.667-2.148 1.013-3.216.096-.299.192-.6.291-.898.346-1.052.7-2.096 1.062-3.138.1-.29.204-.579.306-.868.375-1.059.754-2.112 1.144-3.157l.254-.67c.421-1.113.848-2.22 1.287-3.32l.006-.012c20.358-50.857 60.671-85.441 110.949-82.641 37.604 2.095 68.953 23.508 92.056 53.862a180.409 180.409 0 0 1 2.053 2.748c.053.074.108.146.162.221.626.853 1.241 1.716 1.853 2.586l.24.337c.588.838 1.169 1.686 1.746 2.535.097.147.197.289.294.436.555.824 1.104 1.654 1.649 2.49.113.176.23.352.346.528.523.813 1.041 1.629 1.557 2.449l.386.617c.494.798.984 1.6 1.47 2.405a197.716 197.716 0 0 1 1.813 3.07l.457.789c.444.771.879 1.549 1.315 2.327.157.289.32.576.478.864.42.762.836 1.528 1.246 2.297a210.923 210.923 0 0 1 1.676 3.195 273.434 273.434 0 0 1 1.629 3.233 264.605 264.605 0 0 1 2.109 4.398c.336.723.67 1.448 1.001 2.174.179.395.355.789.532 1.186.319.715.635 1.429.945 2.148a262.016 262.016 0 0 1 1.429 3.357 225.09 225.09 0 0 1 1.377 3.389c.181.454.357.909.534 1.363.266.683.532 1.364.791 2.05.179.472.356.946.532 1.422.25.669.496 1.339.74 2.011.176.491.349.98.524 1.471.234.662.468 1.326.697 1.991.173.503.341 1.008.513 1.514.217.655.438 1.305.653 1.96.17.521.334 1.043.499 1.564.206.642.413 1.287.612 1.932.164.533.326 1.068.486 1.601.192.635.386 1.272.571 1.908.162.547.316 1.095.472 1.643.178.625.358 1.252.53 1.877.156.563.305 1.127.457 1.689.164.616.33 1.227.488 1.842.15.578.295 1.156.44 1.732.152.604.306 1.208.452 1.811.144.588.28 1.178.419 1.768.139.594.281 1.185.416 1.781.137.606.265 1.211.398 1.814.125.581.256 1.158.377 1.741.131.619.253 1.24.379 1.861.113.564.23 1.129.34 1.694.127.646.242 1.292.363 1.939.099.537.203 1.076.299 1.615.121.678.231 1.353.346 2.031.084.508.175 1.018.257 1.527.115.713.221 1.426.329 2.137.072.473.146.948.217 1.419.115.804.22 1.607.327 2.41.051.379.108.759.155 1.136.152 1.184.294 2.366.427 3.545a211.404 211.404 0 0 1 1.307 20.127c-.115.947-.246 2.512-.375 3.457-2.17 11.651-13.832 29.078-17.861 34.408-.319.285-.575.659-.87.993-.204.234-.382.466-.564.709-.798.812-1.566 1.613-2.322 2.407-2.244 2.811-4.532 5.223-6.695 7.114-3.014 3.111-6.171 6.074-10.075 8.86l-.013.009a58.988 58.988 0 0 1-3.319 2.205c-.041.026-.083.049-.125.074-.49.304-.994.6-1.509.897a64.667 64.667 0 0 1-2.17 1.201c3.132-14.076 3.459-30.72 2.828-47.098-.045-1.16-.102-2.316-.168-3.472-.022-.375-.049-.749-.072-1.121-.049-.785-.1-1.569-.159-2.352-.035-.439-.07-.878-.107-1.32a174.29 174.29 0 0 0-.188-2.157c-.044-.457-.087-.913-.134-1.37-.07-.71-.147-1.421-.227-2.127a170.92 170.92 0 0 0-.435-3.58c-.054-.399-.102-.8-.157-1.198-.129-.935-.266-1.867-.408-2.798-.031-.205-.058-.411-.09-.616a190.142 190.142 0 0 0-.556-3.378c-.061-.349-.127-.698-.19-1.045-.14-.78-.281-1.557-.429-2.332-.085-.439-.172-.872-.259-1.307a313.22 313.22 0 0 0-.419-2.063l-.295-1.377a320.65 320.65 0 0 0-.446-1.994c-.105-.459-.21-.918-.318-1.375-.16-.677-.326-1.351-.492-2.026-.108-.433-.211-.866-.323-1.298-.195-.766-.396-1.527-.599-2.289-.09-.334-.176-.669-.266-1.001a167.838 167.838 0 0 0-.906-3.2c-.1-.348-.207-.696-.31-1.043a128.87 128.87 0 0 0-1.087-3.52c-.199-.625-.399-1.252-.604-1.875a217.136 217.136 0 0 0-1.081-3.183 164.702 164.702 0 0 0-1.143-3.18c-.173-.467-.343-.936-.521-1.403-.228-.611-.467-1.219-.705-1.826-.166-.428-.328-.855-.498-1.281a197.44 197.44 0 0 0-1.12-2.75c-.19-.461-.387-.916-.581-1.373-.262-.615-.526-1.233-.793-1.844-.209-.479-.424-.951-.637-1.425-.236-.524-.469-1.047-.706-1.567-.227-.492-.458-.982-.688-1.471a168.774 168.774 0 0 0-2.141-4.398c-.25-.498-.5-.996-.753-1.489a201.68 201.68 0 0 0-.728-1.386 117.09 117.09 0 0 0-.785-1.488c-.238-.442-.482-.881-.722-1.321a217.398 217.398 0 0 0-1.621-2.889c-.227-.39-.447-.784-.676-1.175-.305-.517-.614-1.031-.923-1.545-.234-.394-.467-.787-.706-1.178-.312-.513-.629-1.021-.948-1.53-.236-.382-.476-.763-.716-1.142-.324-.512-.653-1.019-.98-1.525-.239-.366-.477-.728-.717-1.092-.341-.509-.678-1.021-1.022-1.525-.229-.341-.463-.674-.693-1.01a161.58 161.58 0 0 0-1.09-1.569c-.178-.251-.36-.499-.539-.751a155.906 155.906 0 0 0-4.221-5.627c-.195-.249-.389-.499-.586-.744-.41-.516-.826-1.028-1.242-1.536-.223-.271-.444-.543-.668-.812-.414-.5-.834-.994-1.252-1.488-.226-.266-.455-.528-.682-.791-.427-.496-.859-.99-1.292-1.479l-.636-.705c-.459-.51-.918-1.016-1.38-1.515-.142-.155-.287-.304-.428-.456a137.862 137.862 0 0 0-5.179-5.242c-.115-.107-.229-.221-.342-.33-.514-.488-1.032-.967-1.551-1.443-.195-.178-.387-.357-.582-.536-.502-.454-1.006-.904-1.512-1.349-.211-.185-.421-.372-.635-.555-.509-.443-1.021-.88-1.537-1.312a53.444 53.444 0 0 0-.594-.493c-.539-.449-1.08-.894-1.626-1.33-.127-.101-.257-.2-.385-.302a113.831 113.831 0 0 0-7.928-5.756c-.164-.108-.328-.219-.492-.326a114.53 114.53 0 0 0-1.731-1.104l-.607-.379a88.103 88.103 0 0 0-1.729-1.043 71.615 71.615 0 0 0-.598-.349 90.064 90.064 0 0 0-1.792-1.022 25.59 25.59 0 0 0-.44-.24 97.508 97.508 0 0 0-8.576-4.178l-.439-.19a98.193 98.193 0 0 0-1.877-.761c-.211-.082-.422-.168-.633-.25a88.391 88.391 0 0 0-1.838-.686l-.664-.238c-.623-.218-1.247-.433-1.871-.639-.189-.062-.381-.12-.571-.181a77.463 77.463 0 0 0-2.005-.623c-8.292-2.444-16.895-3.644-25.715-3.407-31.029.843-55.982 19.25-71.926 47.075-.517.904-1.027 1.818-1.525 2.74-.022.039-.041.078-.061.116a133.9 133.9 0 0 0-1.41 2.689c-.037.072-.072.145-.107.217-.444.874-.879 1.756-1.305 2.646-.049.1-.094.199-.141.301a129.51 129.51 0 0 0-1.209 2.611c-.059.129-.115.258-.172.385-.381.854-.755 1.713-1.121 2.58l-.193.467a133.1 133.1 0 0 0-1.037 2.549c-.07.18-.141.359-.21.539-.325.836-.648 1.677-.96 2.525l-.221.608c-.303.829-.6 1.665-.888 2.507-.077.221-.151.444-.225.664-.279.825-.553 1.654-.819 2.489l-.234.738c-.255.814-.505 1.635-.75 2.459l-.232.799c-.234.811-.463 1.625-.688 2.445l-.229.853c-.214.806-.423 1.616-.626 2.428l-.225.908c-.194.8-.383 1.602-.566 2.409-.072.322-.147.646-.219.97-.174.791-.344 1.584-.507 2.382a158.661 158.661 0 0 0-.661 3.39c-.068.359-.132.721-.197 1.082-.139.777-.27 1.558-.399 2.34-.062.378-.125.757-.183 1.136-.119.77-.233 1.541-.344 2.315-.057.396-.115.793-.168 1.189-.106.766-.201 1.534-.295 2.303-.05.41-.101.818-.15 1.229-.087.757-.167 1.519-.244 2.279-.045.428-.088.855-.13 1.285-.072.75-.134 1.502-.197 2.256-.037.444-.074.885-.109 1.326-.055.747-.101 1.496-.148 2.244-.03.456-.061.908-.085 1.364-.04.742-.074 1.486-.105 2.23-.019.467-.043.934-.058 1.402-.026.734-.044 1.473-.061 2.211-.012.479-.025.957-.033 1.438-.012.734-.012 1.469-.015 2.206-.003.487-.007.973-.005 1.462.002.73.016 1.463.028 2.193.005.498.012.997.023 1.496.018.727.045 1.456.071 2.185.017.504.031 1.008.054 1.514.031.731.074 1.464.113 2.196.03.506.051 1.012.083 1.519.047.733.103 1.469.157 2.204.04.507.073 1.015.114 1.527.063.746.137 1.494.207 2.244.046.496.088.994.138 1.492.079.772.17 1.545.259 2.318.056.477.103.953.162 1.43.103.85.22 1.701.335 2.553.055.398.102.799.161 1.201a192.079 192.079 0 0 0 1.17 7.261c.068.387.144.77.216 1.155.143.771.286 1.545.438 2.312.09.457.187.913.279 1.366.143.689.281 1.378.43 2.062.105.486.217.969.324 1.454.145.648.289 1.297.439 1.939.118.502.241.998.362 1.496.15.621.299 1.24.453 1.86.129.505.262 1.009.395 1.513a136.969 136.969 0 0 0 .898 3.326 123.978 123.978 0 0 0 .949 3.279c.17.575.342 1.149.518 1.719.157.508.318 1.012.478 1.518.18.56.36 1.123.543 1.679.166.509.336 1.014.506 1.52.186.547.371 1.094.561 1.636.175.506.353 1.012.535 1.514a141.627 141.627 0 0 0 1.143 3.112c.195.523.396 1.044.597 1.562.195.504.393 1.006.591 1.508.202.508.407 1.014.614 1.52a161.834 161.834 0 0 0 1.246 2.976c.219.506.436 1.011.656 1.512.211.477.422.949.635 1.422.229.506.458 1.013.69 1.517.212.457.425.91.642 1.366.239.507.478 1.019.723 1.523.211.436.428.869.641 1.303.255.517.509 1.035.769 1.549.207.404.416.804.623 1.206.276.532.549 1.067.828 1.592.196.37.394.733.59 1.098.298.553.596 1.109.899 1.656.167.301.337.598.506.897.339.607.679 1.215 1.027 1.814.068.122.143.242.215.366a163.684 163.684 0 0 0 5.976 9.527c.054.08.109.164.166.246.451.664.908 1.32 1.369 1.974l.328.473c.443.625.891 1.243 1.341 1.858l.386.535c.443.598.889 1.187 1.336 1.777l.426.565c.443.578.89 1.15 1.342 1.718.15.19.299.382.449.57.451.565.906 1.125 1.362 1.683.153.183.302.367.454.548.461.559.928 1.109 1.397 1.657l.444.521c.477.551.954 1.093 1.434 1.632.147.165.289.327.436.491.488.541.981 1.08 1.473 1.613l.421.451c.504.539 1.012 1.075 1.522 1.601l.386.401c.526.539 1.053 1.075 1.584 1.602a130.96 130.96 0 0 0 1.999 1.945c.094.092.191.182.287.273.575.546 1.154 1.085 1.736 1.618.069.065.141.128.211.193a127.198 127.198 0 0 0 1.943 1.735c17.474 15.271 37.502 24.379 57.677 25.64-.003.004-.005.006-.005.008 2.301.145 4.606.192 6.909.128 20.937-.566 40.22-9.741 55.632-25.458 1-.508 2.006-1.045 3.008-1.567 10.744-10.811 19.542-24.254 25.711-39.492a137.895 137.895 0 0 0 20.92-17.156c10.58-10.58 19.299-22.77 25.912-35.984-1.187 11.486-3.276 22.592-6.178 33.181.567-.824 1.138-1.648 1.684-2.469-11.043 42.223-34.062 79.942-68.717 97.169-13.569 6.746-28.168 10.073-43.008 10.073-33.844.001-68.951-17.303-96.033-50.822"/></clipPath><linearGradient id="e" gradientTransform="scale(-506.57562 506.57562) rotate(25 -1.886 -2.69)" gradientUnits="userSpaceOnUse" x2="1"><stop offset="0" stop-color="#f14a1c"/><stop offset=".412" stop-color="#f14a1c"/><stop offset="1" stop-color="#a82921"/></linearGradient><clipPath id="f"><path d="M0 872.968h1331.22V0H0z"/></clipPath></defs><g clip-path="url(#a)" transform="matrix(1.33333 0 0 -1.33333 0 1163.957)"><path d="M339.932 544.052c-81.38-.633-162.313-52.801-178.64-128.662-15.758-73.16 38.374-141.5 126.077-151.576-6.636 4.66-13.447 10.939-20.04 18.549a120.112 120.112 0 0 0-18.461 25.273c-4.555 7.28-8.28 15.094-11.161 23.28a169.787 169.787 0 0 0-2.97 7.704c-10.352 16.74-16.235 35.852-16.145 56.227.29 66.406 63.25 120.705 140.629 121.283 58.957.442 109.236-30.453 129.723-74.558-13.407 62.376-76.47 103.044-149.012 102.48" fill="#fabc1a" fill-rule="evenodd"/></g><g clip-path="url(#b)" transform="matrix(1.33333 0 0 -1.33333 0 1163.957)"><path d="M147.006 437.001c2.426-63.218 49.527-120.975 114.8-148.81-2.035 2.576-4.169 5.15-5.862 8.058-12.696 21.84-22.131 40.444-25.84 58.771-10.686 16.7-17.908 35.62-20.354 56.115-9.262 77.623 53.66 137.464 139.059 131.571 83.74-5.78 146.935-71.39 147.218-140.95.108-25.731-8.134-49.196-22.408-68.41-20.087-26.523-53.171-43.648-87.666-47.931 17.907-1.289 34.894.879 49.621 7.709-.064-.074-.121-.152-.186-.224.431.24.848.495 1.274.739 5.887 2.846 11.4 6.45 16.451 10.901 33.348 25.41 53.377 63.299 51.655 107.248-3.352 85.478-87.477 159.716-186.792 165.782-4.323.263-8.616.393-12.85.394-91.825.005-161.188-61.04-158.12-140.963" fill="url(#c)"/></g><g clip-path="url(#d)" transform="matrix(1.33333 0 0 -1.33333 0 1163.957)"><path d="M268.865 545.729c-.092-.111-.18-.224-.269-.337-.941-1.17-1.874-2.36-2.795-3.57-.112-.149-.225-.296-.338-.444a181.963 181.963 0 0 1-8.651-12.514l-.533-.856a177.746 177.746 0 0 1-2.142-3.519 86.11 86.11 0 0 1-.608-1.023c-.74-1.262-1.469-2.54-2.19-3.832-.122-.223-.249-.442-.374-.666a201.74 201.74 0 0 1-2.532-4.737c-.042-.082-.083-.167-.127-.252a218.591 218.591 0 0 1-2.205-4.413c-.212-.438-.419-.88-.63-1.319a260.413 260.413 0 0 1-2.338-5.066 213.857 213.857 0 0 1-1.613-3.723c-.184-.433-.37-.862-.553-1.297a242.398 242.398 0 0 1-2.063-5.128c-.05-.13-.097-.262-.147-.394a213.067 213.067 0 0 1-1.786-4.799c-.2-.55-.391-1.108-.586-1.664-.432-1.228-.86-2.466-1.275-3.716-.207-.625-.417-1.254-.621-1.885a256.054 256.054 0 0 1-1.204-3.828c-.176-.572-.353-1.138-.525-1.714a243.94 243.94 0 0 1-1.609-5.605 249.273 249.273 0 0 1-1.314-5.023c-.138-.552-.265-1.103-.399-1.656-.274-1.125-.544-2.25-.801-3.375-.149-.654-.289-1.306-.43-1.959a326.005 326.005 0 0 1-.658-3.078c-.141-.691-.277-1.379-.411-2.068-.195-.993-.384-1.983-.564-2.973a215.528 215.528 0 0 1-.869-5.069c-.109-.691-.223-1.382-.328-2.071-.155-1.018-.295-2.034-.436-3.048-.091-.656-.185-1.31-.271-1.966a226.069 226.069 0 0 1-.414-3.445c-.059-.513-.125-1.028-.179-1.539a214.658 214.658 0 0 1-.476-4.854c-.055-.611-.095-1.221-.142-1.831-.082-1.03-.165-2.062-.232-3.09-.05-.741-.088-1.482-.13-2.222-.048-.892-.099-1.785-.14-2.675-.035-.788-.062-1.571-.09-2.358-.029-.838-.055-1.674-.076-2.512-.018-.81-.033-1.619-.045-2.427-.01-.803-.016-1.606-.018-2.404-.001-.831-.003-1.657.004-2.484.006-.769.018-1.534.033-2.302.016-.849.028-1.697.053-2.543.022-.716.053-1.432.08-2.145.034-.888.065-1.776.108-2.662.025-.503.061-1.003.091-1.508.12-2.113.269-4.214.446-6.308.035-.41.066-.826.102-1.236.091-1.006.198-2.005.302-3.006.057-.543.11-1.087.172-1.627.11-.982.23-1.957.354-2.932.07-.549.136-1.098.21-1.644a221.207 221.207 0 0 1 .653-4.508 158.269 158.269 0 0 1 .729-4.398c.181-1.03.367-2.055.562-3.077.072-.375.149-.747.223-1.121.218-1.119.443-2.237.679-3.345a205.12 205.12 0 0 1 3.014-12.22 195.822 195.822 0 0 1 1.039-3.57c.076-.252.15-.508.227-.76.33-1.078.667-2.148 1.013-3.216.096-.299.192-.6.291-.898.346-1.052.7-2.096 1.062-3.138.1-.29.204-.579.306-.868.375-1.059.754-2.112 1.144-3.157l.254-.67c.421-1.113.848-2.22 1.287-3.32l.006-.012c20.358-50.857 60.671-85.441 110.949-82.641 37.604 2.095 68.953 23.508 92.056 53.862a180.409 180.409 0 0 1 2.053 2.748c.053.074.108.146.162.221.626.853 1.241 1.716 1.853 2.586l.24.337c.588.838 1.169 1.686 1.746 2.535.097.147.197.289.294.436.555.824 1.104 1.654 1.649 2.49.113.176.23.352.346.528.523.813 1.041 1.629 1.557 2.449l.386.617c.494.798.984 1.6 1.47 2.405a197.716 197.716 0 0 1 1.813 3.07l.457.789c.444.771.879 1.549 1.315 2.327.157.289.32.576.478.864.42.762.836 1.528 1.246 2.297a210.923 210.923 0 0 1 1.676 3.195 273.434 273.434 0 0 1 1.629 3.233 264.605 264.605 0 0 1 2.109 4.398c.336.723.67 1.448 1.001 2.174.179.395.355.789.532 1.186.319.715.635 1.429.945 2.148a262.016 262.016 0 0 1 1.429 3.357 225.09 225.09 0 0 1 1.377 3.389c.181.454.357.909.534 1.363.266.683.532 1.364.791 2.05.179.472.356.946.532 1.422.25.669.496 1.339.74 2.011.176.491.349.98.524 1.471.234.662.468 1.326.697 1.991.173.503.341 1.008.513 1.514.217.655.438 1.305.653 1.96.17.521.334 1.043.499 1.564.206.642.413 1.287.612 1.932.164.533.326 1.068.486 1.601.192.635.386 1.272.571 1.908.162.547.316 1.095.472 1.643.178.625.358 1.252.53 1.877.156.563.305 1.127.457 1.689.164.616.33 1.227.488 1.842.15.578.295 1.156.44 1.732.152.604.306 1.208.452 1.811.144.588.28 1.178.419 1.768.139.594.281 1.185.416 1.781.137.606.265 1.211.398 1.814.125.581.256 1.158.377 1.741.131.619.253 1.24.379 1.861.113.564.23 1.129.34 1.694.127.646.242 1.292.363 1.939.099.537.203 1.076.299 1.615.121.678.231 1.353.346 2.031.084.508.175 1.018.257 1.527.115.713.221 1.426.329 2.137.072.473.146.948.217 1.419.115.804.22 1.607.327 2.41.051.379.108.759.155 1.136.152 1.184.294 2.366.427 3.545a211.404 211.404 0 0 1 1.307 20.127c-.115.947-.246 2.512-.375 3.457-2.17 11.651-13.832 29.078-17.861 34.408-.319.285-.575.659-.87.993-.204.234-.382.466-.564.709-.798.812-1.566 1.613-2.322 2.407-2.244 2.811-4.532 5.223-6.695 7.114-3.014 3.111-6.171 6.074-10.075 8.86l-.013.009a58.988 58.988 0 0 1-3.319 2.205c-.041.026-.083.049-.125.074-.49.304-.994.6-1.509.897a64.667 64.667 0 0 1-2.17 1.201c3.132-14.076 3.459-30.72 2.828-47.098-.045-1.16-.102-2.316-.168-3.472-.022-.375-.049-.749-.072-1.121-.049-.785-.1-1.569-.159-2.352-.035-.439-.07-.878-.107-1.32a174.29 174.29 0 0 0-.188-2.157c-.044-.457-.087-.913-.134-1.37-.07-.71-.147-1.421-.227-2.127a170.92 170.92 0 0 0-.435-3.58c-.054-.399-.102-.8-.157-1.198-.129-.935-.266-1.867-.408-2.798-.031-.205-.058-.411-.09-.616a190.142 190.142 0 0 0-.556-3.378c-.061-.349-.127-.698-.19-1.045-.14-.78-.281-1.557-.429-2.332-.085-.439-.172-.872-.259-1.307a313.22 313.22 0 0 0-.419-2.063l-.295-1.377a320.65 320.65 0 0 0-.446-1.994c-.105-.459-.21-.918-.318-1.375-.16-.677-.326-1.351-.492-2.026-.108-.433-.211-.866-.323-1.298-.195-.766-.396-1.527-.599-2.289-.09-.334-.176-.669-.266-1.001a167.838 167.838 0 0 0-.906-3.2c-.1-.348-.207-.696-.31-1.043a128.87 128.87 0 0 0-1.087-3.52c-.199-.625-.399-1.252-.604-1.875a217.136 217.136 0 0 0-1.081-3.183 164.702 164.702 0 0 0-1.143-3.18c-.173-.467-.343-.936-.521-1.403-.228-.611-.467-1.219-.705-1.826-.166-.428-.328-.855-.498-1.281a197.44 197.44 0 0 0-1.12-2.75c-.19-.461-.387-.916-.581-1.373-.262-.615-.526-1.233-.793-1.844-.209-.479-.424-.951-.637-1.425-.236-.524-.469-1.047-.706-1.567-.227-.492-.458-.982-.688-1.471a168.774 168.774 0 0 0-2.141-4.398c-.25-.498-.5-.996-.753-1.489a201.68 201.68 0 0 0-.728-1.386 117.09 117.09 0 0 0-.785-1.488c-.238-.442-.482-.881-.722-1.321a217.398 217.398 0 0 0-1.621-2.889c-.227-.39-.447-.784-.676-1.175-.305-.517-.614-1.031-.923-1.545-.234-.394-.467-.787-.706-1.178-.312-.513-.629-1.021-.948-1.53-.236-.382-.476-.763-.716-1.142-.324-.512-.653-1.019-.98-1.525-.239-.366-.477-.728-.717-1.092-.341-.509-.678-1.021-1.022-1.525-.229-.341-.463-.674-.693-1.01a161.58 161.58 0 0 0-1.09-1.569c-.178-.251-.36-.499-.539-.751a155.906 155.906 0 0 0-4.221-5.627c-.195-.249-.389-.499-.586-.744-.41-.516-.826-1.028-1.242-1.536-.223-.271-.444-.543-.668-.812-.414-.5-.834-.994-1.252-1.488-.226-.266-.455-.528-.682-.791-.427-.496-.859-.99-1.292-1.479l-.636-.705c-.459-.51-.918-1.016-1.38-1.515-.142-.155-.287-.304-.428-.456a137.862 137.862 0 0 0-5.179-5.242c-.115-.107-.229-.221-.342-.33-.514-.488-1.032-.967-1.551-1.443-.195-.178-.387-.357-.582-.536-.502-.454-1.006-.904-1.512-1.349-.211-.185-.421-.372-.635-.555-.509-.443-1.021-.88-1.537-1.312a53.444 53.444 0 0 0-.594-.493c-.539-.449-1.08-.894-1.626-1.33-.127-.101-.257-.2-.385-.302a113.831 113.831 0 0 0-7.928-5.756c-.164-.108-.328-.219-.492-.326a114.53 114.53 0 0 0-1.731-1.104l-.607-.379a88.103 88.103 0 0 0-1.729-1.043 71.615 71.615 0 0 0-.598-.349 90.064 90.064 0 0 0-1.792-1.022 25.59 25.59 0 0 0-.44-.24 97.508 97.508 0 0 0-8.576-4.178l-.439-.19a98.193 98.193 0 0 0-1.877-.761c-.211-.082-.422-.168-.633-.25a88.391 88.391 0 0 0-1.838-.686l-.664-.238c-.623-.218-1.247-.433-1.871-.639-.189-.062-.381-.12-.571-.181a77.463 77.463 0 0 0-2.005-.623c-8.292-2.444-16.895-3.644-25.715-3.407-31.029.843-55.982 19.25-71.926 47.075-.517.904-1.027 1.818-1.525 2.74-.022.039-.041.078-.061.116a133.9 133.9 0 0 0-1.41 2.689c-.037.072-.072.145-.107.217-.444.874-.879 1.756-1.305 2.646-.049.1-.094.199-.141.301a129.51 129.51 0 0 0-1.209 2.611c-.059.129-.115.258-.172.385-.381.854-.755 1.713-1.121 2.58l-.193.467a133.1 133.1 0 0 0-1.037 2.549c-.07.18-.141.359-.21.539-.325.836-.648 1.677-.96 2.525l-.221.608c-.303.829-.6 1.665-.888 2.507-.077.221-.151.444-.225.664-.279.825-.553 1.654-.819 2.489l-.234.738c-.255.814-.505 1.635-.75 2.459l-.232.799c-.234.811-.463 1.625-.688 2.445l-.229.853c-.214.806-.423 1.616-.626 2.428l-.225.908c-.194.8-.383 1.602-.566 2.409-.072.322-.147.646-.219.97-.174.791-.344 1.584-.507 2.382a158.661 158.661 0 0 0-.661 3.39c-.068.359-.132.721-.197 1.082-.139.777-.27 1.558-.399 2.34-.062.378-.125.757-.183 1.136-.119.77-.233 1.541-.344 2.315-.057.396-.115.793-.168 1.189-.106.766-.201 1.534-.295 2.303-.05.41-.101.818-.15 1.229-.087.757-.167 1.519-.244 2.279-.045.428-.088.855-.13 1.285-.072.75-.134 1.502-.197 2.256-.037.444-.074.885-.109 1.326-.055.747-.101 1.496-.148 2.244-.03.456-.061.908-.085 1.364-.04.742-.074 1.486-.105 2.23-.019.467-.043.934-.058 1.402-.026.734-.044 1.473-.061 2.211-.012.479-.025.957-.033 1.438-.012.734-.012 1.469-.015 2.206-.003.487-.007.973-.005 1.462.002.73.016 1.463.028 2.193.005.498.012.997.023 1.496.018.727.045 1.456.071 2.185.017.504.031 1.008.054 1.514.031.731.074 1.464.113 2.196.03.506.051 1.012.083 1.519.047.733.103 1.469.157 2.204.04.507.073 1.015.114 1.527.063.746.137 1.494.207 2.244.046.496.088.994.138 1.492.079.772.17 1.545.259 2.318.056.477.103.953.162 1.43.103.85.22 1.701.335 2.553.055.398.102.799.161 1.201a192.079 192.079 0 0 0 1.17 7.261c.068.387.144.77.216 1.155.143.771.286 1.545.438 2.312.09.457.187.913.279 1.366.143.689.281 1.378.43 2.062.105.486.217.969.324 1.454.145.648.289 1.297.439 1.939.118.502.241.998.362 1.496.15.621.299 1.24.453 1.86.129.505.262 1.009.395 1.513a136.969 136.969 0 0 0 .898 3.326 123.978 123.978 0 0 0 .949 3.279c.17.575.342 1.149.518 1.719.157.508.318 1.012.478 1.518.18.56.36 1.123.543 1.679.166.509.336 1.014.506 1.52.186.547.371 1.094.561 1.636.175.506.353 1.012.535 1.514a141.627 141.627 0 0 0 1.143 3.112c.195.523.396 1.044.597 1.562.195.504.393 1.006.591 1.508.202.508.407 1.014.614 1.52a161.834 161.834 0 0 0 1.246 2.976c.219.506.436 1.011.656 1.512.211.477.422.949.635 1.422.229.506.458 1.013.69 1.517.212.457.425.91.642 1.366.239.507.478 1.019.723 1.523.211.436.428.869.641 1.303.255.517.509 1.035.769 1.549.207.404.416.804.623 1.206.276.532.549 1.067.828 1.592.196.37.394.733.59 1.098.298.553.596 1.109.899 1.656.167.301.337.598.506.897.339.607.679 1.215 1.027 1.814.068.122.143.242.215.366a163.684 163.684 0 0 0 5.976 9.527c.054.08.109.164.166.246.451.664.908 1.32 1.369 1.974l.328.473c.443.625.891 1.243 1.341 1.858l.386.535c.443.598.889 1.187 1.336 1.777l.426.565c.443.578.89 1.15 1.342 1.718.15.19.299.382.449.57.451.565.906 1.125 1.362 1.683.153.183.302.367.454.548.461.559.928 1.109 1.397 1.657l.444.521c.477.551.954 1.093 1.434 1.632.147.165.289.327.436.491.488.541.981 1.08 1.473 1.613l.421.451c.504.539 1.012 1.075 1.522 1.601l.386.401c.526.539 1.053 1.075 1.584 1.602a130.96 130.96 0 0 0 1.999 1.945c.094.092.191.182.287.273.575.546 1.154 1.085 1.736 1.618.069.065.141.128.211.193a127.198 127.198 0 0 0 1.943 1.735c17.474 15.271 37.502 24.379 57.677 25.64-.003.004-.005.006-.005.008 2.301.145 4.606.192 6.909.128 20.937-.566 40.22-9.741 55.632-25.458 1-.508 2.006-1.045 3.008-1.567 10.744-10.811 19.542-24.254 25.711-39.492a137.895 137.895 0 0 0 20.92-17.156c10.58-10.58 19.299-22.77 25.912-35.984-1.187 11.486-3.276 22.592-6.178 33.181.567-.824 1.138-1.648 1.684-2.469-11.043 42.223-34.062 79.942-68.717 97.169-13.569 6.746-28.168 10.073-43.008 10.073-33.844.001-68.951-17.303-96.033-50.822" fill="url(#e)"/></g><g clip-path="url(#f)" transform="matrix(1.33333 0 0 -1.33333 0 1163.957)"><path d="M577.152 528.804v-2.9h-16.887v-42.121h-3.512v42.12h-16.887v2.9zm43.291 0v-45.021h-3.513v21.334h-30.035v-21.334h-3.48v45.02h3.48v-20.785h30.035v20.786zm36.139 0v-2.9h-21.076v-18.015h20.528v-2.933h-20.528v-18.272h21.592v-2.901h-25.073v45.02zm-76.419-75.907c-7.65 0-13.937-2.393-18.86-7.178-4.925-4.785-7.387-10.894-7.387-18.327 0-7.21 2.47-13.207 7.41-17.992 4.941-4.785 11.123-7.178 18.55-7.178 7.457 0 13.68 2.441 18.668 7.321 4.988 4.881 7.482 10.958 7.482 18.232 0 7.082-2.494 13.04-7.482 17.873-4.988 4.832-11.115 7.25-18.38 7.25m-.384 9.091c10.328 0 18.928-3.27 25.798-9.81 6.87-6.54 10.306-14.738 10.306-24.595 0-9.858-3.467-18.016-10.402-24.477-6.933-6.459-15.675-9.689-26.228-9.689-10.074 0-18.467 3.23-25.177 9.69-6.712 6.46-10.066 14.554-10.066 24.284 0 9.984 3.38 18.247 10.137 24.787 6.76 6.54 15.302 9.81 25.632 9.81m68.048-9.379h-9.905V431.7h10.48c3.891 0 6.89.916 8.995 2.751 2.106 1.834 3.16 4.457 3.16 7.871 0 6.858-4.245 10.288-12.73 10.288m-19.523-58.427v66.945h21.198c6.38 0 11.468-1.723 15.264-5.168 3.796-3.446 5.695-8.072 5.695-13.877 0-3.893-.974-7.338-2.919-10.336-1.946-2.999-4.61-5.176-7.99-6.533-3.383-1.355-8.232-2.033-14.548-2.033h-7.082v-28.998zm70.137 58.427h-9.905V431.7h10.48c3.891 0 6.89.916 8.995 2.751 2.106 1.834 3.16 4.457 3.16 7.871 0 6.858-4.245 10.288-12.73 10.288m-19.523-58.427v66.945h21.198c6.38 0 11.468-1.723 15.264-5.168 3.796-3.446 5.695-8.072 5.695-13.877 0-3.893-.974-7.338-2.919-10.336-1.946-2.999-4.61-5.176-7.99-6.533-3.383-1.355-8.232-2.033-14.548-2.033h-7.082v-28.998zm84.971 58.714c-7.65 0-13.936-2.393-18.86-7.178-4.924-4.785-7.386-10.894-7.386-18.327 0-7.21 2.47-13.207 7.41-17.992 4.94-4.785 11.123-7.178 18.55-7.178 7.457 0 13.68 2.441 18.668 7.321 4.988 4.881 7.482 10.958 7.482 18.232 0 7.082-2.494 13.04-7.482 17.873-4.988 4.832-11.115 7.25-18.381 7.25m-.383 9.091c10.328 0 18.928-3.27 25.798-9.81 6.87-6.54 10.306-14.738 10.306-24.595 0-9.858-3.467-18.016-10.402-24.477-6.933-6.459-15.675-9.689-26.228-9.689-10.074 0-18.467 3.23-25.177 9.69-6.712 6.46-10.066 14.554-10.066 24.284 0 9.984 3.379 18.247 10.137 24.787 6.759 6.54 15.302 9.81 25.632 9.81m61.29-9.092h-2.871v-21.103h3.637c4.848 0 8.174.415 9.976 1.245 1.803.83 3.207 2.082 4.21 3.755 1.007 1.676 1.509 3.582 1.509 5.72 0 2.105-.56 4.011-1.675 5.718-1.117 1.706-2.687 2.91-4.714 3.612-2.025.701-5.383 1.053-10.072 1.053m-12.441-58.714v66.85h16.748c6.762 0 12.13-1.676 16.1-5.026 3.974-3.349 5.959-7.88 5.959-13.589 0-3.893-.973-7.258-2.92-10.097-1.945-2.84-4.736-4.96-8.373-6.364 2.137-1.404 4.227-3.318 6.269-5.742 2.04-2.424 4.912-6.651 8.613-12.68 2.328-3.797 4.194-6.652 5.599-8.566l3.54-4.785h-11.388l-2.915 4.404a12.1 12.1 0 0 1-.573.815l-1.864 2.634-2.963 4.882-3.203 5.219c-1.974 2.745-3.785 4.93-5.43 6.554-1.645 1.624-3.13 2.795-4.455 3.51-1.325.717-3.553 1.076-6.683 1.076h-2.491v-29.094zm49.163 66.945h55.843v-8.518h-23.305v-58.426h-9.618v58.426h-22.92zm112.094-.096h9.618v-37.946c0-5.137-.375-9.013-1.124-11.628-.75-2.616-1.676-4.793-2.775-6.532a20.822 20.822 0 0 0-4.044-4.665c-5.296-4.563-12.219-6.843-20.768-6.843-8.709 0-15.695 2.264-20.959 6.795a21.79 21.79 0 0 0-4.044 4.713c-1.099 1.74-2.009 3.868-2.726 6.388-.719 2.52-1.077 6.476-1.077 11.867v37.851h9.618v-37.946c0-6.285.718-10.656 2.153-13.112 1.436-2.457 3.62-4.425 6.556-5.91 2.934-1.482 6.395-2.224 10.384-2.224 5.677 0 10.303 1.483 13.876 4.45 1.882 1.595 3.238 3.476 4.068 5.646.83 2.17 1.244 5.886 1.244 11.15zm77.791 0h9.092v-66.849h-8.23l-44.694 51.484v-51.484h-8.996v66.85h7.752l45.076-51.922zm25.005 0h9.57v-66.849h-9.57zm18.592.096h55.843v-8.518h-23.304v-58.426h-9.618v58.426h-22.921zm109.071-.096h11.617L1191 429.546v-35.363h-9.81v35.363l-24.692 31.486h11.553l17.89-23.047zm-596.563-87.6v-66.85h-4.254l-50.823 58.428v-58.427h-5.168v66.849h4.379l50.698-58.427v58.427zm53.417 0v-4.307h-31.295v-26.75h30.482v-4.353h-30.482V310.89h32.06v-4.307h-37.228v66.849zm62.743 0v-4.307h-25.074v-62.542h-5.216v62.542h-25.074v4.307zm56.287-11.102l-22.406-56.417h-1.394l-26.899 67.52h5.304l22.139-55.46 22.436 55.46h1.605l22.326-55.46 22.191 55.46h5.301l-26.954-67.52h-1.246zm88.333-51.823c8.317 0 15.338 2.848 21.06 8.54 5.721 5.696 8.583 12.674 8.583 20.937 0 8.294-2.862 15.289-8.583 20.982-5.722 5.695-12.743 8.542-21.06 8.542-8.354 0-15.422-2.847-21.207-8.542-5.786-5.693-8.678-12.688-8.678-20.982 0-8.263 2.892-15.241 8.678-20.936 5.785-5.693 12.853-8.541 21.206-8.541m-.19 63.786c9.881 0 18.257-3.325 25.127-9.977 6.87-6.651 10.305-14.762 10.305-24.332 0-9.54-3.435-17.633-10.305-24.286-6.87-6.65-15.246-9.976-25.128-9.976-9.852 0-18.197 3.326-25.035 9.976-6.838 6.653-10.256 14.747-10.256 24.286 0 9.57 3.418 17.68 10.256 24.332 6.838 6.652 15.183 9.977 25.035 9.977m53.947-5.168V342.95h11.102c5.646 0 9.96 1.141 12.943 3.422 2.983 2.28 4.475 5.51 4.475 9.69 0 4.115-1.516 7.321-4.546 9.618-3.032 2.297-7.386 3.445-13.064 3.445zm-5.168 4.307h17.13c7.179 0 12.665-1.556 16.462-4.665 3.796-3.112 5.694-7.315 5.694-12.61 0-7.72-4.243-13.143-12.728-16.269 2.2-1.053 5.168-4.451 8.9-10.193l15.12-23.112h-6.116l-11.645 18.321c-3.891 6.127-6.92 9.949-9.088 11.465-2.17 1.517-5.343 2.275-9.52 2.275h-9.041v-32.061h-5.168zm102.137 0L987.01 340.04l35.066-33.457h-6.578l-35.006 33.4v-33.4h-5.167v66.849h5.167v-33.257l32.072 33.257z" fill="#100f0d"/></g><text style="-inkscape-font-specification:GillSansLight-Regular" transform="translate(1620.92 567.923) scale(1.33333)" font-weight="400" font-size="74" font-family="Gill Sans Light" fill="#231f20"><tspan y="0" x="0">®</tspan></text></svg>