<svg xmlns="http://www.w3.org/2000/svg" xmlns:xlink="http://www.w3.org/1999/xlink" viewBox="0 0 1000 1000"><defs><style>.cls-1{fill:#f5c031;fill-rule:evenodd;}.cls-2{fill:url(#linear-gradient);}.cls-3{fill:#fff;stroke:#fff;stroke-miterlimit:10;}.cls-4{fill:url(#linear-gradient-2);}.cls-5{font-size:72px;}.cls-5,.cls-6{font-family:Roboto-Light, Roboto;}.cls-6{font-size:105px;}.cls-7{letter-spacing:0.01em;}.cls-8{letter-spacing:0.01em;}.cls-9{font-size:101px;font-family:Roboto-Regular, Roboto;}.cls-10{letter-spacing:-0.04em;}.cls-11{letter-spacing:-0.01em;}.cls-12{letter-spacing:0.01em;}</style><linearGradient id="linear-gradient" x1="235.22" y1="272.59" x2="720.1" y2="437.93" gradientTransform="translate(706.04 -194.47) rotate(75.92)" gradientUnits="userSpaceOnUse"><stop offset="0" stop-color="#29add7"/><stop offset="0.66" stop-color="#0075be"/><stop offset="0.99" stop-color="#005b97"/></linearGradient><linearGradient id="linear-gradient-2" x1="351.42" y1="302.1" x2="692.97" y2="418.57" gradientTransform="translate(-6)" gradientUnits="userSpaceOnUse"><stop offset="0" stop-color="#740000"/><stop offset="0.01" stop-color="#760100"/><stop offset="0.16" stop-color="#a01903"/><stop offset="0.32" stop-color="#c22c06"/><stop offset="0.49" stop-color="#dd3b08"/><stop offset="0.65" stop-color="#f0460a"/><stop offset="0.82" stop-color="#fb4c0b"/><stop offset="1" stop-color="#ff4e0b"/></linearGradient></defs><title>oppnet-colored</title><g id="oppnet-colored"><path class="cls-1" d="M244.79,412.17c0,103.55,100.5,174,222,174s240.5-116.95,240.5-220.5-91.5-177-213-177S244.79,308.61,244.79,412.17Z"/><ellipse class="cls-2" cx="477.66" cy="355.26" rx="212.81" ry="256.41" transform="translate(16.87 732.14) rotate(-75.92)"/><path class="cls-1" d="M631.78,230.19c-9-6.07-17-10.45-22.84-13.65-16.4-8.92-55.12-29.4-108.64-29.86-24.1-.21-86-.75-135,46-43.11,41.1-49.51,93.19-51,107-2.11,19.6-5.84,54.18,12,84,41.61,69.56,165.26,54.57,177,53,39.4-5.27,78.07-20.06,110.78-39.56,56.59-33.73,82.54-104.25,80.43-140.31-.93-15.88-4.57-7.76-17.21-24.13a194.41,194.41,0,0,0-45.51-42.48"/><path class="cls-3" d="M721.29,388.67c0,42.67-28.25,78.8-55.26,109-32.85,36.72-82.88,57-140.74,57-108.25,0-196-74.32-196-166s87.75-166,196-166S721.29,297,721.29,388.67Z"/><path class="cls-4" d="M695.81,319.39A153.32,153.32,0,0,0,641.28,259c5.85,24.29,11.57,63.42.52,107.92-21.67,87.24-105.28,185-185.27,169-80.21-16-126.31-117.72-104.2-227.09,5.89-29.11,19.08-55.84,32.39-79.08a217,217,0,0,1,40.54-51.6C459,147,496.13,131.71,536.6,139.81c44.09,8.82,78.14,43.53,96.22,91.15a192.6,192.6,0,0,1,18.93,14.58,184.72,184.72,0,0,1,17.6,17.52,155.61,155.61,0,0,1,25.21,40.88,162.75,162.75,0,0,0-.64-16.73C687.06,211.12,625,126.49,555.13,113.76,458.31,96.12,357.48,218.38,339.32,331.87c-21.75,135.89,39.61,258.56,137.05,274s194.06-82.22,215.81-218.11c3.5-21.85,3.3-21.9,4.3-39.86A261.94,261.94,0,0,0,695.81,319.39Z"/><text class="cls-5" transform="translate(28.97 619.32) scale(1.3 1.26)">THE</text><text class="cls-6" transform="translate(29.07 867.79) scale(1.39 1.26)">N<tspan class="cls-7" x="74.55" y="0">E</tspan><tspan class="cls-8" x="135.3" y="0">T</tspan><tspan x="198.77" y="0">WORK</tspan></text><text class="cls-9" transform="translate(29.08 741.82) scale(1.42 1.26)">OPPO<tspan class="cls-10" x="266.31" y="0">R</tspan><tspan x="324.55" y="0">TUN</tspan><tspan class="cls-11" x="522.31" y="0">I</tspan><tspan class="cls-12" x="548.35" y="0">T</tspan><tspan x="609.4" y="0">Y</tspan></text></g></svg>