<svg xmlns="http://www.w3.org/2000/svg" viewBox="0 0 1000 1000"><defs><style>.cls-1,.cls-5,.cls-6{fill:#b3b3b3;}.cls-1{fill-rule:evenodd;}.cls-2{fill:#4d4d4d;}.cls-3{fill:#e6e6e6;stroke:#fff;stroke-miterlimit:10;}.cls-4,.cls-9{fill:gray;}.cls-5{font-size:72px;}.cls-5,.cls-6{font-family:Roboto-Light, Roboto;}.cls-6{font-size:105px;}.cls-7{letter-spacing:0.01em;}.cls-8{letter-spacing:0.01em;}.cls-9{font-size:101px;font-family:Roboto-Regular, Roboto;}.cls-10{letter-spacing:-0.04em;}.cls-11{letter-spacing:-0.01em;}.cls-12{letter-spacing:0.01em;}</style></defs><title>oppnet-greyscale</title><g id="opp-net-greyscale"><path class="cls-1" d="M243.8,412.25c0,103.55,100.5,174,222,174S706.3,469.3,706.3,365.75s-91.5-177-213-177S243.8,308.69,243.8,412.25Z"/><ellipse class="cls-2" cx="476.66" cy="355.34" rx="212.81" ry="256.41" transform="translate(16.04 731.24) rotate(-75.92)"/><path class="cls-1" d="M630.78,230.27c-9-6.07-17-10.45-22.84-13.65-16.4-8.92-55.12-29.4-108.64-29.86-24.1-.21-86-.75-135,46-43.11,41.1-49.51,93.19-51,107-2.11,19.6-5.84,54.18,12,84,41.61,69.56,165.26,54.57,177,53,39.4-5.27,78.07-20.06,110.78-39.56,56.59-33.73,82.54-104.25,80.43-140.31-.93-15.88-4.57-7.76-17.21-24.13a194.41,194.41,0,0,0-45.51-42.48"/><path class="cls-3" d="M720.3,388.75c0,42.67-28.25,78.8-55.26,109-32.85,36.72-82.88,57-140.74,57-108.25,0-196-74.32-196-166s87.75-166,196-166S720.3,297.07,720.3,388.75Z"/><path class="cls-4" d="M694.82,319.47a153.32,153.32,0,0,0-54.53-60.41c5.85,24.29,11.57,63.42.52,107.92-21.67,87.24-105.28,185-185.27,169-80.21-16-126.31-117.72-104.2-227.09,5.89-29.11,19.08-55.84,32.39-79.08a217,217,0,0,1,40.54-51.6C458,147,495.13,131.79,535.61,139.89c44.09,8.82,78.14,43.53,96.22,91.15a192.6,192.6,0,0,1,18.93,14.58,184.72,184.72,0,0,1,17.6,17.52A155.61,155.61,0,0,1,693.57,304a162.75,162.75,0,0,0-.64-16.73c-6.86-76.08-68.88-160.71-138.79-173.45C457.32,96.2,356.49,218.46,338.32,332c-21.75,135.89,39.61,258.56,137.05,274s194.06-82.22,215.81-218.11c3.5-21.85,3.3-21.9,4.3-39.86A261.94,261.94,0,0,0,694.82,319.47Z"/><text class="cls-5" transform="translate(27.98 619.4) scale(1.3 1.26)">THE</text><text class="cls-6" transform="translate(28.08 867.87) scale(1.39 1.26)">N<tspan class="cls-7" x="74.55" y="0">E</tspan><tspan class="cls-8" x="135.3" y="0">T</tspan><tspan x="198.77" y="0">WORK</tspan></text><text class="cls-9" transform="translate(28.08 741.9) scale(1.42 1.26)">OPPO<tspan class="cls-10" x="266.31" y="0">R</tspan><tspan x="324.55" y="0">TUN</tspan><tspan class="cls-11" x="522.31" y="0">I</tspan><tspan class="cls-12" x="548.35" y="0">T</tspan><tspan x="609.4" y="0">Y</tspan></text></g></svg>