<svg xmlns="http://www.w3.org/2000/svg" viewBox="0 0 1000 1000"><defs><style>.cls-1,.cls-5{fill:#b3b3b3;}.cls-1{fill-rule:evenodd;}.cls-2{fill:#4d4d4d;}.cls-3{fill:#e6e6e6;stroke:#fff;stroke-miterlimit:10;}.cls-4{fill:gray;}</style></defs><title>oppnet-greyscale</title><g id="opp-net-greyscale"><path class="cls-1" d="M243.8,412.25c0,103.55,100.5,174,222,174S706.3,469.3,706.3,365.75s-91.5-177-213-177S243.8,308.69,243.8,412.25Z"/><ellipse class="cls-2" cx="476.66" cy="355.34" rx="212.81" ry="256.41" transform="translate(16.04 731.24) rotate(-75.92)"/><path class="cls-1" d="M630.78,230.27c-9-6.07-17-10.45-22.84-13.65-16.4-8.92-55.12-29.4-108.64-29.86-24.1-.21-86-.75-135,46-43.11,41.1-49.51,93.19-51,107-2.11,19.6-5.84,54.18,12,84,41.61,69.56,165.26,54.57,177,53,39.4-5.27,78.07-20.06,110.78-39.56,56.59-33.73,82.54-104.25,80.43-140.31-.93-15.88-4.57-7.76-17.21-24.13a194.41,194.41,0,0,0-45.51-42.48"/><path class="cls-3" d="M720.3,388.75c0,42.67-28.25,78.8-55.26,109-32.85,36.72-82.88,57-140.74,57-108.25,0-196-74.32-196-166s87.75-166,196-166S720.3,297.07,720.3,388.75Z"/><path class="cls-4" d="M694.82,319.47a153.32,153.32,0,0,0-54.53-60.41c5.85,24.29,11.57,63.42.52,107.92-21.67,87.24-105.28,185-185.27,169-80.21-16-126.31-117.72-104.2-227.09,5.89-29.11,19.08-55.84,32.39-79.08a217,217,0,0,1,40.54-51.6C458,147,495.13,131.79,535.61,139.89c44.09,8.82,78.14,43.53,96.22,91.15a192.6,192.6,0,0,1,18.93,14.58,184.73,184.73,0,0,1,17.6,17.52A155.6,155.6,0,0,1,693.57,304a162.72,162.72,0,0,0-.64-16.73c-6.86-76.08-68.88-160.71-138.79-173.45C457.32,96.2,356.49,218.46,338.32,332c-21.75,135.89,39.61,258.56,137.05,274s194.06-82.22,215.81-218.11c3.5-21.85,3.3-21.9,4.3-39.86A261.88,261.88,0,0,0,694.82,319.47Z"/><path class="cls-5" d="M81.54,559.51H58.73V619.4H53.11V559.51H30.35V554.9H81.54Z"/><path class="cls-5" d="M141.59,619.4h-5.67V588.48h-38V619.4H92.28V554.9H97.9v29h38v-29h5.67Z"/><path class="cls-5" d="M195.25,588.48H164.13v26.31h35.79v4.61H158.5V554.9h41.18v4.61H164.13v24.36h31.12Z"/><path class="cls-5" d="M118.44,867.87h-8.77L50,787.38v80.49H41.19V773.81H50l59.72,80.56V773.81h8.7Z"/><path class="cls-5" d="M202.11,822.78H153.58v38.37h55.8v6.72H144.81V773.81H209v6.72H153.58v35.53h48.53Z"/><path class="cls-5" d="M299.67,780.53H264.11v87.34h-8.77V780.53H219.85v-6.72h79.82Z"/><path class="cls-5" d="M336.65,842.48l3.21,14.6,3.92-14,22.52-69.32h7.91l22.23,69.32,3.85,14.08,3.42-14.73,18.74-68.67h9l-26.58,94.06h-8.41l-23.52-73.58-2.64-9.3-2.57,9.3-24.09,73.58h-8.41l-26.51-94.06h9Z"/><path class="cls-5" d="M525,825.95q0,13-5,22.8a35.42,35.42,0,0,1-14.15,15.12,41.78,41.78,0,0,1-21.24,5.3q-18.17,0-29.36-11.79t-11.19-31.82v-9.69a49.71,49.71,0,0,1,5-22.77,35.94,35.94,0,0,1,14.22-15.25,45,45,0,0,1,42.29-.1,35.64,35.64,0,0,1,14.15,14.79,49.07,49.07,0,0,1,5.2,22.16Zm-8.76-10.21q0-17-8.48-26.62t-23.23-9.62q-14.47,0-23.05,9.66t-8.59,27v9.82q0,16.73,8.55,26.52t23.23,9.79q14.89,0,23.23-9.66t8.34-26.91Z"/><path class="cls-5" d="M585.87,828.66H555.72v39.21h-8.84V773.81h33.71q16.61,0,25.94,7.29t9.33,20.39A23.94,23.94,0,0,1,610,817.43,30.17,30.17,0,0,1,594.35,827l25.94,40v.84H611Zm-30.14-6.72h26.87q11,0,17.74-5.69A18.46,18.46,0,0,0,607,801.5q0-10-7-15.46t-19.6-5.5H555.72Z"/><path class="cls-5" d="M663.12,821.17l-14.61,13v33.66h-8.77V773.81h8.77v50.71l53.16-50.71h11l-43.47,41.86,46.82,52.2H705.38Z"/><path class="cls-4" d="M118.35,699.58q0,13.3-5,23.21A35.28,35.28,0,0,1,99,737.92a43.12,43.12,0,0,1-21.57,5.22,42.72,42.72,0,0,1-21.36-5.25,36.26,36.26,0,0,1-14.46-15,48.6,48.6,0,0,1-5.29-22.53v-6.53a50,50,0,0,1,5.11-23.05,36,36,0,0,1,14.46-15.32,42.54,42.54,0,0,1,21.39-5.31,43.38,43.38,0,0,1,21.6,5.25,35.22,35.22,0,0,1,14.39,15.22q5,10,5,23.21ZM105,693.74q0-16.09-7.28-24.7t-20.38-8.61q-12.75,0-20.06,8.61t-7.53,23.89v6.65q0,15.6,7.39,24.51T77.45,733q13,0,20.17-8.42T105,700.45Z"/><path class="cls-4" d="M152,706.48V741.9H138.52V651.42h37.61q16.74,0,26.23,7.58t9.49,20.07q0,13.17-9.28,20.29T176,706.48Zm0-9.76h24.16q10.78,0,16.53-4.51t5.74-13a16.1,16.1,0,0,0-5.74-12.95q-5.74-4.85-15.76-5H152Z"/><path class="cls-4" d="M242.44,706.48V741.9H229V651.42H266.6q16.74,0,26.23,7.58t9.49,20.07q0,13.17-9.28,20.29t-26.58,7.12Zm0-9.76H266.6q10.78,0,16.53-4.51t5.74-13a16.1,16.1,0,0,0-5.74-12.95q-5.74-4.85-15.76-5H242.44Z"/><path class="cls-4" d="M397.9,699.58q0,13.3-5,23.21a35.29,35.29,0,0,1-14.29,15.13,46.61,46.61,0,0,1-42.93,0,36.24,36.24,0,0,1-14.46-15,48.6,48.6,0,0,1-5.29-22.53v-6.53A50,50,0,0,1,321,670.81a36,36,0,0,1,14.46-15.32,42.55,42.55,0,0,1,21.39-5.31,43.37,43.37,0,0,1,21.6,5.25,35.21,35.21,0,0,1,14.39,15.22q5,10,5,23.21Zm-13.38-5.84q0-16.09-7.28-24.7t-20.38-8.61q-12.75,0-20.06,8.61t-7.53,23.89v6.65q0,15.6,7.39,24.51T357,733q13,0,20.17-8.42t7.35-24.14Z"/><path class="cls-4" d="M455.47,705.3H431.52v36.6H418V651.42h33.75q17.23,0,26.51,7t9.28,20.26a22.52,22.52,0,0,1-5.15,14.73,30.73,30.73,0,0,1-14.32,9.38l24,38.4v.75H477.6Zm-23.95-9.76h20.66q10,0,15.93-4.61A14.82,14.82,0,0,0,474,678.61q0-8.41-5.64-12.88t-16.28-4.54H431.52Z"/><path class="cls-4" d="M571.23,661.18H538.45V741.9H525.08V661.18h-32.7v-9.76h78.85Z"/><path class="cls-4" d="M658.13,651.42v61.52q-.07,12.8-9.07,20.94T624.66,743l-3.57.13q-16.74,0-26.68-8t-10.08-22.06V651.42h13.31v61.27q0,9.82,6.09,15.26t17.37,5.44q11.41,0,17.47-5.41t6.06-15.22V651.42Z"/><path class="cls-4" d="M757.71,741.9H744.2l-51.33-69.72V741.9H679.35V651.42h13.52l51.47,70v-70h13.38Z"/><path class="cls-4" d="M796,741.9H782.58V651.42H796Z"/><path class="cls-4" d="M889,661.18H856.25V741.9H842.87V661.18h-32.7v-9.76H889Z"/><path class="cls-4" d="M936.36,696.85,963,651.42h15.27l-35.16,56.73V741.9H929.64V708.16l-35.15-56.73h15.41Z"/></g></svg>