<svg xmlns="http://www.w3.org/2000/svg" xmlns:xlink="http://www.w3.org/1999/xlink" viewBox="0 0 1000 1000"><defs><style>.cls-1{fill:#f5c031;fill-rule:evenodd;}.cls-2{fill:url(#linear-gradient);}.cls-3{fill:#fff;stroke:#fff;stroke-miterlimit:10;}.cls-4{fill:url(#linear-gradient-2);}</style><linearGradient id="linear-gradient" x1="235.22" y1="272.59" x2="720.1" y2="437.93" gradientTransform="translate(706.04 -194.47) rotate(75.92)" gradientUnits="userSpaceOnUse"><stop offset="0" stop-color="#29add7"/><stop offset="0.66" stop-color="#0075be"/><stop offset="0.99" stop-color="#005b97"/></linearGradient><linearGradient id="linear-gradient-2" x1="345.42" y1="302.1" x2="686.97" y2="418.57" gradientUnits="userSpaceOnUse"><stop offset="0" stop-color="#740000"/><stop offset="0.01" stop-color="#760100"/><stop offset="0.16" stop-color="#a01903"/><stop offset="0.32" stop-color="#c22c06"/><stop offset="0.49" stop-color="#dd3b08"/><stop offset="0.65" stop-color="#f0460a"/><stop offset="0.82" stop-color="#fb4c0b"/><stop offset="1" stop-color="#ff4e0b"/></linearGradient></defs><title>oppnet-colored</title><g id="oppnet-colored"><path class="cls-1" d="M244.79,412.17c0,103.55,100.5,174,222,174s240.5-116.95,240.5-220.5-91.5-177-213-177S244.79,308.61,244.79,412.17Z"/><ellipse class="cls-2" cx="477.66" cy="355.26" rx="212.81" ry="256.41" transform="translate(16.87 732.14) rotate(-75.92)"/><path class="cls-1" d="M631.78,230.19c-9-6.07-17-10.45-22.84-13.65-16.4-8.92-55.12-29.4-108.64-29.86-24.1-.21-86-.75-135,46-43.11,41.1-49.51,93.19-51,107-2.11,19.6-5.84,54.18,12,84,41.61,69.56,165.26,54.57,177,53,39.4-5.27,78.07-20.06,110.78-39.56,56.59-33.73,82.54-104.25,80.43-140.31-.93-15.88-4.57-7.76-17.21-24.13a194.41,194.41,0,0,0-45.51-42.48"/><path class="cls-3" d="M721.29,388.67c0,42.67-28.25,78.8-55.26,109-32.85,36.72-82.88,57-140.74,57-108.25,0-196-74.32-196-166s87.75-166,196-166S721.29,297,721.29,388.67Z"/><path class="cls-4" d="M695.81,319.39A153.32,153.32,0,0,0,641.28,259c5.85,24.29,11.57,63.42.52,107.92-21.67,87.24-105.28,185-185.27,169-80.21-16-126.31-117.72-104.2-227.09,5.89-29.11,19.08-55.84,32.39-79.08a217,217,0,0,1,40.54-51.6C459,147,496.13,131.71,536.6,139.81c44.09,8.82,78.14,43.53,96.22,91.15a192.6,192.6,0,0,1,18.93,14.58,184.73,184.73,0,0,1,17.6,17.52,155.61,155.61,0,0,1,25.21,40.88,162.73,162.73,0,0,0-.64-16.73C687.06,211.12,625,126.49,555.13,113.76,458.31,96.12,357.48,218.38,339.32,331.87c-21.75,135.89,39.61,258.56,137.05,274s194.06-82.22,215.81-218.11c3.5-21.85,3.3-21.9,4.3-39.86A261.91,261.91,0,0,0,695.81,319.39Z"/><path d="M82.54,559.43H59.73v59.89H54.11V559.43H31.35v-4.61H82.54Z"/><path d="M142.59,619.32h-5.67V588.4h-38v30.92H93.28v-64.5H98.9v29h38v-29h5.67Z"/><path d="M196.25,588.4H165.12v26.31h35.79v4.61H159.5v-64.5h41.18v4.61H165.12v24.36h31.12Z"/><path d="M119.44,867.79h-8.77L51,787.3v80.49H42.19V773.74H51l59.72,80.56V773.74h8.69Z"/><path d="M203.1,822.7H154.57v38.37h55.8v6.72H145.81V773.74H210v6.72H154.57V816H203.1Z"/><path d="M300.66,780.45H265.1v87.34h-8.77V780.45H220.85v-6.72h79.82Z"/><path d="M337.65,842.4l3.21,14.6,3.92-14,22.52-69.32h7.91l22.23,69.32,3.85,14.08,3.42-14.73,18.74-68.67h9l-26.58,94.06h-8.41l-23.52-73.58-2.64-9.3-2.57,9.3-24.09,73.58h-8.41l-26.51-94.06h9Z"/><path d="M526,825.87q0,13-5,22.8a35.42,35.42,0,0,1-14.15,15.12,41.78,41.78,0,0,1-21.24,5.3q-18.17,0-29.36-11.79t-11.19-31.82v-9.69a49.71,49.71,0,0,1,5-22.77,35.94,35.94,0,0,1,14.22-15.25,45,45,0,0,1,42.3-.1,35.64,35.64,0,0,1,14.15,14.79,49.07,49.07,0,0,1,5.2,22.16Zm-8.76-10.21q0-17-8.48-26.62t-23.23-9.62q-14.47,0-23.05,9.66t-8.59,27v9.82q0,16.73,8.55,26.52t23.23,9.79q14.89,0,23.23-9.66t8.34-26.91Z"/><path d="M586.86,828.58H556.72v39.21h-8.84V773.74h33.71q16.6,0,25.94,7.29t9.33,20.39A23.94,23.94,0,0,1,611,817.35a30.18,30.18,0,0,1-15.68,9.55l25.94,40v.84h-9.34Zm-30.15-6.72h26.87q11,0,17.75-5.69a18.46,18.46,0,0,0,6.7-14.75q0-10-7-15.46t-19.6-5.5H556.72Z"/><path d="M664.11,821.09l-14.61,13v33.66h-8.77V773.74h8.77v50.71l53.16-50.71h11L670.24,815.6l46.82,52.2H706.37Z"/><path d="M119.34,699.5q0,13.3-5,23.21A35.28,35.28,0,0,1,100,737.84a43.13,43.13,0,0,1-21.57,5.22,42.73,42.73,0,0,1-21.36-5.25,36.25,36.25,0,0,1-14.46-15,48.6,48.6,0,0,1-5.29-22.53v-6.52a50,50,0,0,1,5.11-23.05,36,36,0,0,1,14.46-15.32,42.54,42.54,0,0,1,21.39-5.31,43.37,43.37,0,0,1,21.6,5.25,35.22,35.22,0,0,1,14.39,15.22q5,10,5,23.21ZM106,693.66q0-16.09-7.28-24.7t-20.38-8.61q-12.75,0-20.06,8.61t-7.53,23.89v6.65q0,15.6,7.39,24.51t20.34,8.92q13,0,20.17-8.42T106,700.37Z"/><path d="M153,706.4v35.42H139.51V651.34h37.61q16.74,0,26.23,7.58T212.83,679q0,13.17-9.28,20.29T177,706.4Zm0-9.76h24.16q10.78,0,16.53-4.51t5.74-13a16.1,16.1,0,0,0-5.74-12.95q-5.74-4.86-15.76-5H153Z"/><path d="M243.44,706.4v35.42H230V651.34H267.6q16.74,0,26.23,7.58T303.31,679q0,13.17-9.28,20.29t-26.58,7.12Zm0-9.76H267.6q10.78,0,16.53-4.51t5.74-13a16.1,16.1,0,0,0-5.74-12.95q-5.74-4.86-15.76-5H243.44Z"/><path d="M398.9,699.5q0,13.3-5,23.21a35.28,35.28,0,0,1-14.29,15.13,46.61,46.61,0,0,1-42.93,0,36.25,36.25,0,0,1-14.46-15,48.6,48.6,0,0,1-5.29-22.53v-6.52A50,50,0,0,1,322,670.73a36,36,0,0,1,14.46-15.32,42.54,42.54,0,0,1,21.39-5.31,43.37,43.37,0,0,1,21.6,5.25,35.22,35.22,0,0,1,14.39,15.22q5,10,5,23.21Zm-13.38-5.84q0-16.09-7.28-24.7t-20.38-8.61q-12.75,0-20.06,8.61t-7.53,23.89v6.65q0,15.6,7.39,24.51T358,732.93q13,0,20.17-8.42t7.35-24.14Z"/><path d="M456.46,705.22H432.51v36.6H419V651.34h33.75q17.23,0,26.51,7t9.28,20.26a22.51,22.51,0,0,1-5.15,14.73,30.71,30.71,0,0,1-14.32,9.38l24,38.4v.75H478.59Zm-23.95-9.76h20.66q10,0,15.93-4.61A14.82,14.82,0,0,0,475,678.53q0-8.4-5.64-12.88T453.1,661.1H432.51Z"/><path d="M572.22,661.1H539.45v80.72H526.07V661.1h-32.7v-9.76h78.85Z"/><path d="M659.13,651.34v61.52q-.07,12.8-9.07,20.94t-24.41,9.13l-3.57.13q-16.74,0-26.68-8T585.32,713V651.34h13.31v61.27q0,9.82,6.09,15.25t17.37,5.44q11.41,0,17.47-5.41t6.06-15.22V651.34Z"/><path d="M758.71,741.82H745.19L693.86,672.1v69.72H680.35V651.34h13.52l51.47,70v-70h13.38Z"/><path d="M797,741.82H783.57V651.34H797Z"/><path d="M890,661.1H857.24v80.72H843.87V661.1h-32.7v-9.76H890Z"/><path d="M937.35,696.77,964,651.34h15.27l-35.16,56.73v33.74H930.63V708.08l-35.15-56.73h15.41Z"/></g></svg>