<svg id="Layer_1" data-name="Layer 1" xmlns="http://www.w3.org/2000/svg" xmlns:xlink="http://www.w3.org/1999/xlink" viewBox="0 0 1366 1624"><defs><style>.cls-1{fill:#fff;}.cls-2{fill:url(#linear-gradient);}.cls-3{fill:url(#linear-gradient-2);}.cls-4{fill:url(#linear-gradient-3);}.cls-5{fill:url(#linear-gradient-4);}.cls-6{fill:url(#New_Gradient_Swatch_2);}.cls-7{fill:url(#New_Gradient_Swatch_2-2);}.cls-8{fill:url(#linear-gradient-5);}</style><linearGradient id="linear-gradient" x1="928.44" y1="1025.38" x2="437.56" y2="1875.62" gradientUnits="userSpaceOnUse"><stop offset="0" stop-color="#cfcfcf"/><stop offset="0.59" stop-color="#a3a3a3"/><stop offset="1" stop-color="#828282"/></linearGradient><linearGradient id="linear-gradient-2" x1="362" y1="1392.5" x2="0" y2="1392.5" gradientUnits="userSpaceOnUse"><stop offset="0" stop-color="#0047bf"/><stop offset="0.19" stop-color="#024cc2"/><stop offset="0.41" stop-color="#095acc"/><stop offset="0.64" stop-color="#1371dc"/><stop offset="0.88" stop-color="#2291f2"/><stop offset="1" stop-color="#2aa3ff"/></linearGradient><linearGradient id="linear-gradient-3" x1="868.74" y1="630.59" x2="-0.1" y2="630.59" gradientUnits="userSpaceOnUse"><stop offset="0.66" stop-color="#0047bf"/><stop offset="0.72" stop-color="#024cc2"/><stop offset="0.8" stop-color="#095acc"/><stop offset="0.88" stop-color="#1371dc"/><stop offset="0.96" stop-color="#2291f2"/><stop offset="1" stop-color="#2aa3ff"/></linearGradient><linearGradient id="linear-gradient-4" x1="821.52" y1="601.5" x2="1366.19" y2="601.5" gradientUnits="userSpaceOnUse"><stop offset="0.72" stop-color="#0047bf"/><stop offset="0.78" stop-color="#024cc2"/><stop offset="0.84" stop-color="#095acc"/><stop offset="0.9" stop-color="#1371dc"/><stop offset="0.97" stop-color="#2291f2"/><stop offset="1" stop-color="#2aa3ff"/></linearGradient><linearGradient id="New_Gradient_Swatch_2" x1="-2" y1="611.17" x2="1366.19" y2="611.17" gradientUnits="userSpaceOnUse"><stop offset="0" stop-color="#fa4e09"/><stop offset="1" stop-color="#e14608"/></linearGradient><linearGradient id="New_Gradient_Swatch_2-2" x1="461.31" y1="1652.34" x2="863.68" y2="955.41" xlink:href="#New_Gradient_Swatch_2"/><linearGradient id="linear-gradient-5" x1="427.26" y1="1539.68" x2="1063.4" y2="437.85" gradientUnits="userSpaceOnUse"><stop offset="0" stop-color="#fff"/><stop offset="0.53" stop-color="#d3d3d3"/><stop offset="1" stop-color="#a9a9a9"/></linearGradient></defs><title>Artboard 1 copy</title><rect class="cls-1" width="1366" height="692"/><rect class="cls-2" y="1278" width="1366" height="345"/><path class="cls-3" d="M0,1369v76a1170.34,1170.34,0,0,1,294-94c23.23-4.13,45.92-8.42,68-11"/><path class="cls-4" d="M0,733c-.33-27.33.33-46.67,0-74,300-55,565.83-180.16,859-110C976,577,0,733,0,733Z"/><path class="cls-5" d="M1366,728S591.39,559.94,890,518.83c110.63-15.23,181.06-21.31,240-12,30.54,4.85,67,7.58,93,7,46.41-1.08,85.08-13.32,143-38.85C1366.67,559,1365.33,644,1366,728Z"/><path class="cls-6" d="M1366,732c-455.67-2.33-912.33,4.33-1368,2,1.93-1.49-.18-13.79,2-15,9-5,116.43-47.19,208-80,136.24-48.82,295.54-93.35,365-109,71-16,158.21-29.23,201-34,45.68-5.1,128.28-10.6,218-7,37.79,1.52,56.32,4.46,62,5,21,2,98.55,11,132,27,8.62,4.11,14.28,7.68,26,10,8.75,1.73,21.29,6.73,22,7,24,9,57.19,20.72,132,39C1366.67,628.67,1365.33,680.33,1366,732Z"/><path class="cls-7" d="M1367,1246H0v140q170.55-24.7,350-44a9374.53,9374.53,0,0,1,1017-53Z"/><path class="cls-8" d="M1365.5,1462a5471.11,5471.11,0,0,0-749-136A5469.34,5469.34,0,0,0,0,1293V732.3C138,672,333.82,601.88,526,553c173-44,405-75,604-48.2,111.48,15,187.48,86.15,236,125.94.09,91.25.18,157.38.28,212.26.23,137.57.42,212.17.45,237.75C1366.83,1170.57,1366.69,1299.83,1365.5,1462Z"/></svg>