<svg xmlns="http://www.w3.org/2000/svg" viewBox="0 0 500 500"><defs><style>.cls-6{fill:#fff}.cls-2{fill:#afafaf}.cls-6{stroke:#f0f0f0}.cls-16,.cls-18,.cls-6,.cls-8,.cls-9{stroke-miterlimit:10}.cls-7{fill:#f0f0f0}.cls-8{fill:#757272;stroke:#a59f9f}.cls-18,.cls-8{stroke-width:4px}.cls-9{fill:none;stroke:#e6e6e6;stroke-width:.75px}.cls-12{fill:#0bf}.cls-16{fill:#332f2f;stroke:#332f2f;stroke-width:3px}.cls-18{fill:#4189a5;stroke:#4189a5}</style></defs><g id="Background_2" data-name="Background 2"><rect x=".17" y=".5" width="499.33" height="499" rx="11.5" ry="11.5" fill="#fff"/><path class="cls-2" d="M488 1a11 11 0 0 1 11 11v476a11 11 0 0 1-11 11H11.67a11 11 0 0 1-11-11V12a11 11 0 0 1 11-11H488m0-1H11.67a12 12 0 0 0-12 12v476a12 12 0 0 0 12 12H488a12 12 0 0 0 12-12V12a12 12 0 0 0-12-12z"/><path class="cls-2" d="M500 41.76H.71V12a12 12 0 0 1 12-12H488a12 12 0 0 1 12 12z"/><circle cx="94.5" cy="22.69" r="6.49" fill="#23b239"/><circle cx="36.45" cy="22.69" r="6.49" fill="#ff6057"/><circle cx="64.95" cy="22.69" r="6.49" fill="#f7bb2b"/></g><g id="Dashboard_top" data-name="Dashboard top"><rect class="cls-6" x="11.69" y="123.64" width="474.73" height="157.27" rx="3.17" ry="3.17"/><rect class="cls-7" x="11.16" y="77.23" width="474.73" height="31.67" rx="3.17" ry="3.17"/><path class="cls-8" d="M23.49 93h130.19"/><rect class="cls-7" x="11.16" y="123.1" width="474.73" height="26.21" rx="3.17" ry="3.17"/><path class="cls-9" d="M32.59 201.73h433.47"/><path class="cls-8" d="M24.56 136.69h70.18"/><rect class="cls-6" x="37.41" y="173.88" width="19.29" height="19.66" rx="2" ry="2"/><rect class="cls-6" x="128.5" y="174.98" width="19.29" height="19.66" rx="2" ry="2"/><rect x="160.65" y="174.98" width="19.29" height="19.66" rx="2" ry="2" fill="#52ccf9"/><rect x="192.8" y="174.98" width="19.29" height="19.66" rx="2" ry="2" fill="#bbe3f1"/><rect class="cls-12" x="223.87" y="174.98" width="19.29" height="19.66" rx="2" ry="2"/><rect class="cls-6" x="254.95" y="174.98" width="19.29" height="19.66" rx="2" ry="2"/><rect class="cls-6" x="287.1" y="174.98" width="19.29" height="19.66" rx="2" ry="2"/><rect class="cls-12" x="318.18" y="174.98" width="19.29" height="19.66" rx="2" ry="2"/><rect x="348.18" y="174.98" width="19.29" height="19.66" rx="2" ry="2" fill="#cae7f0"/><rect x="378.19" y="174.98" width="19.29" height="19.66" rx="2" ry="2" fill="#89d8f5"/><rect class="cls-6" x="409.26" y="174.98" width="19.29" height="19.66" rx="2" ry="2"/><rect class="cls-12" x="440.34" y="174.98" width="19.29" height="19.66" rx="2" ry="2"/><rect class="cls-6" x="68.49" y="173.88" width="19.29" height="19.66" rx="2" ry="2"/><rect x="98.49" y="174.98" width="19.29" height="19.66" rx="2" ry="2" fill="#00b8fb"/><path class="cls-16" d="M39.56 161.81h13.39m-12.32 6.55h10.71m20.37-9.22H85.1m-12.32 9.22h10.71m19.3-6.55h13.39m-12.32 6.55h10.71m18.22 0h10.71m52.52-6.55h13.39m-12.32 6.55h10.71m-43.93-6.55h13.39m-12.32 6.55h10.71m175.75-7.65h13.39m-12.31 6.56h10.7m-41.78-6.56h13.39m-12.32 6.56h10.71m-42.86-6.56h13.39m-12.32 6.56h10.71m-43.93-6.56h13.39m-12.32 6.56h10.71m-42.85-6.56h13.38m-12.31 6.56h10.71m204.68-6.56h13.39m-12.32 6.56h10.71m-42.85-6.56h13.38m-12.31 6.56h10.71m-42.86-6.56h13.39m-12.32 6.56h10.71"/><path class="cls-9" d="M313.89 221.94v38.22m-147.88-39.31v38.22"/><path class="cls-16" d="M80.28 221.39h27.86m116.81 0h27.86m135.03-1.09h27.85"/><path class="cls-8" d="M36.35 243.72h29.46m57.34 0h29.46m-72.33 0h29.47m71.27 0h29.46m57.34 0h29.46m-72.33 0h29.47m89.48 0h29.47m57.33 0h29.47m-72.33 0h29.46"/></g><g id="Dashboard_Concepts" data-name="Dashboard Concepts"><rect class="cls-6" x="11.16" y="296.58" width="475.26" height="154.49" rx="3.17" ry="3.17"/><rect class="cls-7" x="11.16" y="296.58" width="475.26" height="25.75" rx="3.17" ry="3.17"/><path class="cls-8" d="M24.58 308.86h70.26"/><path class="cls-16" d="M80.36 355.59h27.89m135.18 0h27.89m116.94-1.08h27.89"/><rect x="36.91" y="366.31" width="129.81" height="15.45" rx="1.78" ry="1.78" fill="#acdd92"/><path class="cls-8" d="M137.75 373.82h15.02m-43.98 0h15.01"/><path class="cls-18" d="M43.34 373.82h42.92"/><rect class="cls-7" x="36.91" y="393.14" width="129.81" height="15.45" rx="1.78" ry="1.78"/><path class="cls-8" d="M137.75 400.65h15.02m-43.98 0h15.01"/><path class="cls-18" d="M43.34 400.65h32.19"/><rect class="cls-7" x="36.91" y="419.96" width="129.81" height="15.45" rx="1.78" ry="1.78"/><path class="cls-8" d="M137.75 427.47h15.02m-43.98 0h15.01"/><path class="cls-18" d="M43.34 427.47h49.35"/><rect x="188.17" y="366.31" width="129.81" height="15.45" rx="1.78" ry="1.78" fill="#ddcbcc"/><path class="cls-8" d="M289.02 373.82h15.02m-43.99 0h15.02"/><path class="cls-18" d="M194.61 373.82h32.19"/><rect class="cls-7" x="188.17" y="393.14" width="129.81" height="15.45" rx="1.78" ry="1.78"/><path class="cls-8" d="M289.02 400.65h15.02m-43.99 0h15.02"/><path class="cls-18" d="M194.61 400.65h49.35"/><rect class="cls-7" x="337.3" y="366.31" width="129.81" height="15.45" rx="1.78" ry="1.78"/><path class="cls-8" d="M438.14 373.82h15.02m-43.98 0h15.02"/><path class="cls-18" d="M343.73 373.82h32.19"/><rect class="cls-7" x="337.3" y="393.14" width="129.81" height="15.45" rx="1.78" ry="1.78"/><path class="cls-8" d="M438.14 400.65h15.02m-43.98 0h15.02"/><path class="cls-18" d="M343.73 400.65h49.35"/><rect class="cls-7" x="188.17" y="419.96" width="129.81" height="15.45" rx="1.78" ry="1.78"/><path class="cls-8" d="M289.02 427.47h15.02m-43.99 0h15.02"/><path class="cls-18" d="M194.61 427.47h49.35"/><rect class="cls-7" x="337.3" y="419.96" width="129.81" height="15.45" rx="1.78" ry="1.78"/><path class="cls-8" d="M438.14 427.47h15.02m-43.98 0h15.02"/><path class="cls-18" d="M343.73 427.47h49.35"/></g></svg>