<svg xmlns="http://www.w3.org/2000/svg" viewBox="0 0 500 500"><defs><style>.cls-1,.cls-6{fill:#fff;}.cls-2{fill:#afafaf;}.cls-3{fill:#23b239;}.cls-4{fill:#ff6057;}.cls-5{fill:#f7bb2b;}.cls-6{stroke:#f0f0f0;}.cls-16,.cls-18,.cls-6,.cls-8,.cls-9{stroke-miterlimit:10;}.cls-7{fill:#f0f0f0;}.cls-8{fill:#757272;stroke:#a59f9f;}.cls-18,.cls-8{stroke-width:4px;}.cls-9{fill:none;stroke:#e6e6e6;stroke-width:0.75px;}.cls-10{fill:#52ccf9;}.cls-11{fill:#bbe3f1;}.cls-12{fill:#0bf;}.cls-13{fill:#cae7f0;}.cls-14{fill:#89d8f5;}.cls-15{fill:#00b8fb;}.cls-16{fill:#332f2f;stroke:#332f2f;stroke-width:3px;}.cls-17{fill:#acdd92;}.cls-18{fill:#4189a5;stroke:#4189a5;}.cls-19{fill:#ddcbcc;}</style></defs><title>Personalized Dashboard</title><g id="Background_2" data-name="Background 2"><rect class="cls-1" x="0.17" y="0.5" width="499.33" height="499" rx="11.5" ry="11.5"/><path class="cls-2" d="M488,1a11,11,0,0,1,11,11V488a11,11,0,0,1-11,11H11.67a11,11,0,0,1-11-11V12a11,11,0,0,1,11-11H488m0-1H11.67a12,12,0,0,0-12,12V488a12,12,0,0,0,12,12H488a12,12,0,0,0,12-12V12A12,12,0,0,0,488,0Z"/><path class="cls-2" d="M500,41.76H.71V12a12,12,0,0,1,12-12H488a12,12,0,0,1,12,12Z"/><circle class="cls-3" cx="94.5" cy="22.69" r="6.49"/><circle class="cls-4" cx="36.45" cy="22.69" r="6.49"/><circle class="cls-5" cx="64.95" cy="22.69" r="6.49"/></g><g id="Dashboard_top" data-name="Dashboard top"><rect class="cls-6" x="11.69" y="123.64" width="474.73" height="157.27" rx="3.17" ry="3.17"/><rect class="cls-7" x="11.16" y="77.23" width="474.73" height="31.67" rx="3.17" ry="3.17"/><line class="cls-8" x1="23.49" y1="93" x2="153.68" y2="93"/><rect class="cls-7" x="11.16" y="123.1" width="474.73" height="26.21" rx="3.17" ry="3.17"/><line class="cls-9" x1="32.59" y1="201.73" x2="466.06" y2="201.73"/><line class="cls-8" x1="24.56" y1="136.69" x2="94.74" y2="136.69"/><rect class="cls-6" x="37.41" y="173.88" width="19.29" height="19.66" rx="2" ry="2"/><rect class="cls-6" x="128.5" y="174.98" width="19.29" height="19.66" rx="2" ry="2"/><rect class="cls-10" x="160.65" y="174.98" width="19.29" height="19.66" rx="2" ry="2"/><rect class="cls-11" x="192.8" y="174.98" width="19.29" height="19.66" rx="2" ry="2"/><rect class="cls-12" x="223.87" y="174.98" width="19.29" height="19.66" rx="2" ry="2"/><rect class="cls-6" x="254.95" y="174.98" width="19.29" height="19.66" rx="2" ry="2"/><rect class="cls-6" x="287.1" y="174.98" width="19.29" height="19.66" rx="2" ry="2"/><rect class="cls-12" x="318.18" y="174.98" width="19.29" height="19.66" rx="2" ry="2"/><rect class="cls-13" x="348.18" y="174.98" width="19.29" height="19.66" rx="2" ry="2"/><rect class="cls-14" x="378.19" y="174.98" width="19.29" height="19.66" rx="2" ry="2"/><rect class="cls-6" x="409.26" y="174.98" width="19.29" height="19.66" rx="2" ry="2"/><rect class="cls-12" x="440.34" y="174.98" width="19.29" height="19.66" rx="2" ry="2"/><rect class="cls-6" x="68.49" y="173.88" width="19.29" height="19.66" rx="2" ry="2"/><rect class="cls-15" x="98.49" y="174.98" width="19.29" height="19.66" rx="2" ry="2"/><line class="cls-16" x1="39.56" y1="161.81" x2="52.95" y2="161.81"/><line class="cls-16" x1="40.63" y1="168.36" x2="51.34" y2="168.36"/><line class="cls-16" x1="71.71" y1="159.14" x2="85.1" y2="159.14"/><line class="cls-16" x1="72.78" y1="168.36" x2="83.49" y2="168.36"/><line class="cls-16" x1="102.79" y1="161.81" x2="116.18" y2="161.81"/><line class="cls-16" x1="103.86" y1="168.36" x2="114.57" y2="168.36"/><line class="cls-16" x1="132.79" y1="168.36" x2="143.5" y2="168.36"/><line class="cls-16" x1="196.02" y1="161.81" x2="209.41" y2="161.81"/><line class="cls-16" x1="197.09" y1="168.36" x2="207.8" y2="168.36"/><line class="cls-16" x1="163.87" y1="161.81" x2="177.26" y2="161.81"/><line class="cls-16" x1="164.94" y1="168.36" x2="175.65" y2="168.36"/><line class="cls-16" x1="351.4" y1="160.71" x2="364.79" y2="160.71"/><line class="cls-16" x1="352.48" y1="167.27" x2="363.18" y2="167.27"/><line class="cls-16" x1="321.4" y1="160.71" x2="334.79" y2="160.71"/><line class="cls-16" x1="322.47" y1="167.27" x2="333.18" y2="167.27"/><line class="cls-16" x1="290.32" y1="160.71" x2="303.71" y2="160.71"/><line class="cls-16" x1="291.39" y1="167.27" x2="302.1" y2="167.27"/><line class="cls-16" x1="258.17" y1="160.71" x2="271.56" y2="160.71"/><line class="cls-16" x1="259.24" y1="167.27" x2="269.95" y2="167.27"/><line class="cls-16" x1="227.1" y1="160.71" x2="240.48" y2="160.71"/><line class="cls-16" x1="228.17" y1="167.27" x2="238.88" y2="167.27"/><line class="cls-16" x1="443.56" y1="160.71" x2="456.95" y2="160.71"/><line class="cls-16" x1="444.63" y1="167.27" x2="455.34" y2="167.27"/><line class="cls-16" x1="412.49" y1="160.71" x2="425.87" y2="160.71"/><line class="cls-16" x1="413.56" y1="167.27" x2="424.27" y2="167.27"/><line class="cls-16" x1="381.41" y1="160.71" x2="394.8" y2="160.71"/><line class="cls-16" x1="382.48" y1="167.27" x2="393.19" y2="167.27"/><line class="cls-9" x1="313.89" y1="221.94" x2="313.89" y2="260.16"/><line class="cls-9" x1="166.01" y1="220.85" x2="166.01" y2="259.07"/><line class="cls-16" x1="80.28" y1="221.39" x2="108.14" y2="221.39"/><line class="cls-16" x1="224.95" y1="221.39" x2="252.81" y2="221.39"/><line class="cls-16" x1="387.84" y1="220.3" x2="415.69" y2="220.3"/><line class="cls-8" x1="36.35" y1="243.72" x2="65.81" y2="243.72"/><line class="cls-8" x1="123.15" y1="243.72" x2="152.61" y2="243.72"/><line class="cls-8" x1="80.28" y1="243.72" x2="109.75" y2="243.72"/><line class="cls-8" x1="181.02" y1="243.72" x2="210.48" y2="243.72"/><line class="cls-8" x1="267.82" y1="243.72" x2="297.28" y2="243.72"/><line class="cls-8" x1="224.95" y1="243.72" x2="254.42" y2="243.72"/><line class="cls-8" x1="343.9" y1="243.72" x2="373.37" y2="243.72"/><line class="cls-8" x1="430.7" y1="243.72" x2="460.17" y2="243.72"/><line class="cls-8" x1="387.84" y1="243.72" x2="417.3" y2="243.72"/></g><g id="Dashboard_Concepts" data-name="Dashboard Concepts"><rect class="cls-6" x="11.16" y="296.58" width="475.26" height="154.49" rx="3.17" ry="3.17"/><rect class="cls-7" x="11.16" y="296.58" width="475.26" height="25.75" rx="3.17" ry="3.17"/><line class="cls-8" x1="24.58" y1="308.86" x2="94.84" y2="308.86"/><line class="cls-16" x1="80.36" y1="355.59" x2="108.25" y2="355.59"/><line class="cls-16" x1="243.43" y1="355.59" x2="271.32" y2="355.59"/><line class="cls-16" x1="388.26" y1="354.51" x2="416.15" y2="354.51"/><rect class="cls-17" x="36.91" y="366.31" width="129.81" height="15.45" rx="1.78" ry="1.78"/><line class="cls-8" x1="137.75" y1="373.82" x2="152.77" y2="373.82"/><line class="cls-8" x1="108.79" y1="373.82" x2="123.8" y2="373.82"/><line class="cls-18" x1="43.34" y1="373.82" x2="86.26" y2="373.82"/><rect class="cls-7" x="36.91" y="393.14" width="129.81" height="15.45" rx="1.78" ry="1.78"/><line class="cls-8" x1="137.75" y1="400.65" x2="152.77" y2="400.65"/><line class="cls-8" x1="108.79" y1="400.65" x2="123.8" y2="400.65"/><line class="cls-18" x1="43.34" y1="400.65" x2="75.53" y2="400.65"/><rect class="cls-7" x="36.91" y="419.96" width="129.81" height="15.45" rx="1.78" ry="1.78"/><line class="cls-8" x1="137.75" y1="427.47" x2="152.77" y2="427.47"/><line class="cls-8" x1="108.79" y1="427.47" x2="123.8" y2="427.47"/><line class="cls-18" x1="43.34" y1="427.47" x2="92.69" y2="427.47"/><rect class="cls-19" x="188.17" y="366.31" width="129.81" height="15.45" rx="1.78" ry="1.78"/><line class="cls-8" x1="289.02" y1="373.82" x2="304.04" y2="373.82"/><line class="cls-8" x1="260.05" y1="373.82" x2="275.07" y2="373.82"/><line class="cls-18" x1="194.61" y1="373.82" x2="226.8" y2="373.82"/><rect class="cls-7" x="188.17" y="393.14" width="129.81" height="15.45" rx="1.78" ry="1.78"/><line class="cls-8" x1="289.02" y1="400.65" x2="304.04" y2="400.65"/><line class="cls-8" x1="260.05" y1="400.65" x2="275.07" y2="400.65"/><line class="cls-18" x1="194.61" y1="400.65" x2="243.96" y2="400.65"/><rect class="cls-7" x="337.3" y="366.31" width="129.81" height="15.45" rx="1.78" ry="1.78"/><line class="cls-8" x1="438.14" y1="373.82" x2="453.16" y2="373.82"/><line class="cls-8" x1="409.18" y1="373.82" x2="424.2" y2="373.82"/><line class="cls-18" x1="343.73" y1="373.82" x2="375.92" y2="373.82"/><rect class="cls-7" x="337.3" y="393.14" width="129.81" height="15.45" rx="1.78" ry="1.78"/><line class="cls-8" x1="438.14" y1="400.65" x2="453.16" y2="400.65"/><line class="cls-8" x1="409.18" y1="400.65" x2="424.2" y2="400.65"/><line class="cls-18" x1="343.73" y1="400.65" x2="393.08" y2="400.65"/><rect class="cls-7" x="188.17" y="419.96" width="129.81" height="15.45" rx="1.78" ry="1.78"/><line class="cls-8" x1="289.02" y1="427.47" x2="304.04" y2="427.47"/><line class="cls-8" x1="260.05" y1="427.47" x2="275.07" y2="427.47"/><line class="cls-18" x1="194.61" y1="427.47" x2="243.96" y2="427.47"/><rect class="cls-7" x="337.3" y="419.96" width="129.81" height="15.45" rx="1.78" ry="1.78"/><line class="cls-8" x1="438.14" y1="427.47" x2="453.16" y2="427.47"/><line class="cls-8" x1="409.18" y1="427.47" x2="424.2" y2="427.47"/><line class="cls-18" x1="343.73" y1="427.47" x2="393.08" y2="427.47"/></g></svg>