<svg id="PF" xmlns="http://www.w3.org/2000/svg" viewBox="0 0 200 200"><defs><style>.cls-1{stroke:#000;stroke-width:0.25px;}.cls-1,.cls-6,.cls-9{stroke-miterlimit:10;}.cls-2{font-size:15px;font-family:Roboto-Regular, Roboto;}.cls-3{letter-spacing:0.01em;}.cls-4{letter-spacing:0.01em;}.cls-5{font-size:14.8px;font-family:Roboto-Medium, Roboto;letter-spacing:0.02em;}.cls-5,.cls-8{fill:#1d8da0;}.cls-6,.cls-9{fill:none;}.cls-6{stroke:gray;}.cls-7{fill:#fff;}.cls-9{stroke:#fff;stroke-width:2px;}</style></defs><title>pf-color</title><g id="PF_Color" data-name="PF Color"><path class="cls-1" d="M101.29,107.19l1-1,10.68-13.82s17.14-.66,17.47-1l6.79-9.87V10.47H45V135.8h2.91l1.57-.47,2.31-1.51c.65-.33,2.56-.5,3.21-.83l7.47-9c.31-.13,1.17-.81,1.53-1s.43.14.82,0h7.35l1-1,1.81-2.09,8.87-11.73"/><text class="cls-2" transform="translate(45.07 154.56) scale(0.91 1.25)">PHI<tspan class="cls-3" x="24.24" y="0">L</tspan><tspan x="32.45" y="0">ADELPH</tspan><tspan class="cls-4" x="88.82" y="0">I</tspan><tspan x="93.03" y="0">A</tspan></text><text class="cls-5" transform="translate(45.07 184.08) scale(1.46 2.33)">FUTURES</text><path class="cls-6" d="M137.68,81l-5.1,7.2-2,2.87-.43.35-15.95.87-1.26,0-.09.07-3.34,4.37L107.06,100l-2,2.59-2.25,2.91-1,1.17-.52.53-17.53,1.07-3,3.95-7.95,10.11-.74.66-8.77.13L54.5,133.5,46,136.3h-.36a.66.66,0,0,1-.65-.66V11.13a.66.66,0,0,1,.65-.66h90.89a.66.66,0,0,1,.65.66l.47,68.76Z"/><path class="cls-7" d="M127.42,30.9c0,.3.16.92,0,1.18a.38.38,0,0,0,.65.38c.27-.48,0-1,.09-1.55s-.69-.47-.75,0Z"/><path class="cls-7" d="M127.44,30.67l0,.13.74.1c0-.22.26-.45.38-.62.28-.39-.37-.76-.65-.38a1.87,1.87,0,0,0-.48,1c0,.42.67.52.74.1l0-.13c.07-.47-.65-.68-.72-.2Z"/><path class="cls-7" d="M128.84,30.89a10.3,10.3,0,0,1-1.34,1.32c-.38.3.15.82.53.53a10.3,10.3,0,0,0,1.34-1.32c.32-.36-.21-.89-.53-.53Z"/><path class="cls-7" d="M128.13,32.33c0-.29-.06-.6-.05-.89a1.54,1.54,0,0,1,.41-.89c.29-.38-.23-.91-.53-.53a2.91,2.91,0,0,0-.61,1,4.6,4.6,0,0,0,0,1.29c0,.48.78.48.75,0Z"/><path class="cls-7" d="M128.64,31.1a2.27,2.27,0,0,1-1.1,1.13c-.42.23,0,.88.38.65a2.9,2.9,0,0,0,1.44-1.58c.11-.47-.61-.67-.72-.2Z"/><path class="cls-7" d="M129.52,31.32a7.41,7.41,0,0,0,.86-2c.14-1.26-1-1.79-1-2.74,0-2.2,3.42-.29,4.73-1.7,1-1.13.4-2-.09-3.15-.59-1.38-.3.67-1-2-.49-1.95-.26-1.86.94-3.41a35.66,35.66,0,0,1,4.69-4.89c1.09-1-.51-2.55-1.59-1.59-2.38,2.1-5.91,5.15-6.89,8.34a3.9,3.9,0,0,0,0,2.54,8.67,8.67,0,0,0,1.41,1.86c0,.3-3.88.35-4.56,1.15-1.93,2.23,1.6,4.24.6,6.49-.58,1.31,1.36,2.46,1.94,1.14Z"/><path class="cls-8" d="M138.77,11.26c3.76-3.84,11.21-3.77,16-1.76,1.32.56,2.47-1.38,1.14-1.94C150.12,5.13,141.78,5,137.18,9.67c-1,1,.58,2.63,1.59,1.59Z"/><path class="cls-8" d="M145.22,2.53c3.7,4.63,11.46,2.77,16.66,3.07l-.72-.95c-1.39,3.89,2.21,6.24,3.12,9.73l.92-.92c-2.79-.73-6-2.11-8.94-1.84-1.49.13-2.33.81-3.6,1.4s-.4,1.08-.85.26a11.21,11.21,0,0,1-.51-2.58c-.19-.95-1.63-.55-1.45.4.27,1.38.17,3.26,1.39,4.16a.76.76,0,0,0,.76,0c2.91-1.27,3.52-2.51,7.39-1.75,1.82.35,3.62.94,5.41,1.41a.76.76,0,0,0,.92-.92c-.78-3-4.3-5.62-3.12-8.93a.76.76,0,0,0-.72-.95c-4.57-.26-12.47,1.29-15.6-2.63-.6-.75-1.66.31-1.06,1.06Z"/><path class="cls-8" d="M155.72,16a20.13,20.13,0,0,1,5.12,1.57.76.76,0,0,0,1-1q-1-2.11-2.21-4.14a.75.75,0,0,0-1.3.76q1.18,2,2.21,4.14l1-1a21.29,21.29,0,0,0-5.48-1.72c-.94-.19-1.35,1.26-.4,1.45Z"/><path class="cls-8" d="M145,1.17a.23.23,0,0,0,0-.45.23.23,0,0,0,0,.45Z"/><path class="cls-8" d="M145.46,2a10.1,10.1,0,0,1-.21-1.11c0-.28-.49-.29-.45,0A11.12,11.12,0,0,0,145,2.15a.23.23,0,0,0,.43-.12Z"/><path class="cls-8" d="M144.89,1a4.54,4.54,0,0,1,1,.69c.21.2.53-.12.32-.32a5,5,0,0,0-1.09-.76c-.26-.14-.48.25-.23.39Z"/><path class="cls-8" d="M145.56,1.21l-.13-.08c-.24-.16-.47.23-.23.39l.13.08c.24.16.47-.23.23-.39Z"/><path class="cls-8" d="M145.4,1a.39.39,0,0,1-.18-.2c-.09-.27-.53-.16-.43.12a.79.79,0,0,0,.29.39c.22.18.54-.14.32-.32Z"/><path class="cls-8" d="M150.29,5.91a.75.75,0,0,0,0-1.5.75.75,0,0,0,0,1.5Z"/><path class="cls-8" d="M149.54,5.21v.42a.23.23,0,0,0,.17.22,5,5,0,0,0,1,.13.23.23,0,0,0,.22-.23l0-.39c0-.29-.44-.29-.45,0l0,.39.23-.23a4.55,4.55,0,0,1-.85-.11l.17.22V5.21a.23.23,0,0,0-.45,0Z"/><path class="cls-8" d="M150.56,5.44q0,.15,0,.3l.22-.23h-.25c-.29,0-.29.46,0,.45h.25a.23.23,0,0,0,.23-.23q0-.15,0-.3a.23.23,0,0,0-.45,0Z"/><path class="cls-7" d="M49,84c13.91-9,27.77-19.83,43.47-25.59a110,110,0,0,1,19.75-5c3.57-.6,7.15-1.07,10.75-1.46,1.58-.17,3.16-.34,4.74-.45.61,0,4.84-.42,2.22-1.36-1-.35-5.46,1.76-6.54,2.07-3,.83-5.94,1.6-8.92,2.36a107.54,107.54,0,0,0-15.39,4.63c-8.44,3.54-14,9.2-20.46,15.56-4.66,4.62-9.13,9.5-14,13.94-5.86,5.37-12.44,10-18.77,14.82-1.14.86,0,2.82,1.14,1.94,7.59-5.72,15.48-11.31,22.18-18.08S82.51,73.27,89.87,67.13c6.57-5.48,15-7.82,23.19-9.86,4.36-1.09,8.73-2.19,13-3.47,1.7-.5,5.67-1,6.5-3a1.08,1.08,0,0,0-.29-1.09c-1.2-1-3.13-.54-4.54-.45-3.43.22-6.85.66-10.25,1.12a125.37,125.37,0,0,0-23.94,5.25C77,61.3,62.48,72.56,47.91,82c-1.21.79-.08,2.74,1.14,1.94Z"/><path class="cls-9" d="M69.5,85.5q48.71-20.31,51-16,.71,1.33-3,5"/><path class="cls-7" d="M85,68.43a93.88,93.88,0,0,1-8.25,9.47,1.13,1.13,0,0,0,1.59,1.59A98.11,98.11,0,0,0,87,69.57c.87-1.15-1.08-2.28-1.94-1.14Z"/><path class="cls-7" d="M76.14,77.93a29.07,29.07,0,0,1-3.47,2.94,1.5,1.5,0,0,0,1.51,2.59,33.77,33.77,0,0,0,4.08-3.4,1.51,1.51,0,0,0,0-2.12,1.54,1.54,0,0,0-2.12,0Z"/><path class="cls-7" d="M75,83.44c8-3.24,15.84-6.66,24-9.26,3.53-1.12,7.09-2.12,10.68-3,2-.51,4-1.07,6-1.46a13.63,13.63,0,0,1,3.19-.47,5.16,5.16,0,0,1-1.58,3.17c-.9,1.12.69,2.72,1.59,1.59,1.3-1.63,3.33-4.08,1.77-6.11-2-2.61-7.51.09-10,.71C98.09,71.72,86.3,76.4,74.36,81.27c-1.32.54-.74,2.72.6,2.17Z"/><path class="cls-7" d="M117.1,72.58a5.31,5.31,0,0,0-.47,1.29,5,5,0,0,1-.68,1.44.38.38,0,0,0,.42.55,5.7,5.7,0,0,0,2.46-1.63c.33-.36-.2-.89-.53-.53a5,5,0,0,1-2.13,1.44l.42.55a5.12,5.12,0,0,0,.64-1.28,7.08,7.08,0,0,1,.51-1.45c.26-.41-.39-.78-.65-.38Z"/><path class="cls-7" d="M117.55,73.77a1.4,1.4,0,0,1-.39.43c-.39.28,0,.93.38.65a2.33,2.33,0,0,0,.66-.7c.25-.41-.4-.79-.65-.38Z"/><path class="cls-7" d="M116.62,75.68a8.35,8.35,0,0,0,1.35-.4c.35-.14.42-.42.63-.71s-.37-.77-.65-.38c-.06.08-.11.23-.17.31a.91.91,0,0,1-.44.19c-.3.09-.61.19-.92.26-.47.1-.27.83.2.72Z"/><path class="cls-7" d="M75.15,65.93c5.69-4,11.18-8.24,17.79-10.63a58.42,58.42,0,0,1,19.81-3,1.13,1.13,0,0,0,0-2.25,60.89,60.89,0,0,0-20.41,3.08C85.52,55.57,79.87,59.86,74,64c-1.17.83-.05,2.78,1.14,1.94Z"/><path class="cls-7" d="M71.47,67.34c1-1.14,2.35-2.81,3.93-3.09.47-.09.27-.81-.2-.72-1.75.31-3.14,2-4.26,3.29-.32.36.21.89.53.53Z"/><path class="cls-7" d="M86.21,58.85c3.33-1.41,6.28-3.27,9.85-4.15,2.45-.6,5.45-.24,7.68-1.33.35-.17.16-.69-.19-.7-2.7,0-5.85,1-8.38,1.86-1.92.68-4.25,1.16-5.83,2.48-.37.31.16.84.53.53,1.58-1.32,5-2.13,7-2.7,1.43-.41,3.17-.53,4.49-1.25,2.6-1.43-.45-.5-1.29-.4-5.42.67-9.3,2.92-14.19,5-.44.19-.06.83.38.65Z"/><path class="cls-7" d="M120.37,50.1A29.59,29.59,0,0,0,116,50c-1.34,0-3.15-.37-4.32.43-.4.27,0,.92.38.65,1-.7,3.4-.32,4.58-.33a24,24,0,0,1,3.48.07c.47.07.68-.65.2-.72Z"/><path class="cls-7" d="M113.27,51.34a7.37,7.37,0,0,0,1.08-.14,7.62,7.62,0,0,1,1.1-.28c.48,0,.48-.78,0-.75-.74,0-1.43.37-2.17.42-.48,0-.48.78,0,.75Z"/><path class="cls-7" d="M73.82,64.14a34.81,34.81,0,0,0-6.36,5.43c-.2.21.12.53.32.32a34.33,34.33,0,0,1,6.27-5.36c.24-.15,0-.54-.23-.39Z"/><path class="cls-7" d="M85.25,69c3.48-6.9,13.47-11.08,20.67-11.35.29,0,.29-.46,0-.45-7.55.28-17.46,4.43-21.06,11.57-.13.26.26.49.39.23Z"/><path class="cls-7" d="M86.85,69.06c2.78-5.26,9.51-8.82,15.24-9.46.95-.11,1-1.61,0-1.5-6.3.7-13.48,4.43-16.53,10.2-.45.85.84,1.61,1.3.76Z"/><path class="cls-7" d="M99.54,58.58c3.07-.76,6.14-1.46,9.27-2,.29,0,.16-.48-.12-.43-3.12.5-6.2,1.21-9.27,2-.28.07-.16.5.12.43Z"/><path class="cls-7" d="M97.43,36.62c-3.65-3-4.91,3.4-4.34,6A7.56,7.56,0,0,0,96,46.82a3.85,3.85,0,0,0,4.82-1.06c.6-.74-.45-1.81-1.06-1.06-1.89,2.32-3.7.46-4.67-1.23a4.19,4.19,0,0,1-.57-2.55c0-.32.38-4.46,1.87-3.25.74.61,1.81-.45,1.06-1.06Z"/><path class="cls-7" d="M101.33,45.15c.3-.4.72-.66.93-1.14a4.79,4.79,0,0,0,.2-2c0-1-1.53-1-1.5,0a2.93,2.93,0,0,1-.13,1.48c-.21.32-.56.57-.8.88a.76.76,0,0,0,.27,1,.77.77,0,0,0,1-.27Z"/><path class="cls-7" d="M98,36.49c-1.7-2.27-3.52-1.72-4.69.65-1.4,2.82-1.59,5.64.53,8.11,1.8,2.1,4.46,3.69,7.05,1.63,2-1.57,2.63-4.67.85-6.59-.66-.71-1.72.35-1.06,1.06,1.19,1.29.44,4-1.18,4.67a3.9,3.9,0,0,1-3.18-.44,5,5,0,0,1-1.16-1.11,4.63,4.63,0,0,1-1.4-4c.11-.86,1.36-5.36,2.94-3.24.57.76,1.88,0,1.3-.76Z"/><path class="cls-7" d="M100.17,41.1c0,1.18.31,3-.75,3.83-1.56,1.21-3-.24-3.4-1.54s-1.2-6,1.29-5.17a.76.76,0,0,0,.92-.92L98,36.39c-.23-.94-1.68-.54-1.45.4l.22.92.92-.92c-4.78-1.59-4.08,5.81-2.58,8.36a3.72,3.72,0,0,0,4.6,1.29c2.2-.92,1.9-3.33,1.94-5.32a.75.75,0,0,0-1.5,0Z"/><path class="cls-7" d="M96.69,38.27a3.19,3.19,0,0,1,1.79.19c.17.09.32-.17.15-.26A3.44,3.44,0,0,0,96.69,38c-.19,0-.19.31,0,.3Z"/><path class="cls-7" d="M97.93,36.2c-1.75-2.8-4.28-.63-5.25,1.61-1.38,3.2-1,7.09,1.94,9.26a5.33,5.33,0,0,0,7.71-1.15c1.23-1.81,1.55-5.17-1-5.84a.75.75,0,0,0-.4,1.45c1.2.31,1,1.63.65,2.62-.94,2.74-4.42,3.22-6.44,1.38a5.42,5.42,0,0,1-1.69-4.16c0-.64,1.56-7,3.2-4.42.51.82,1.81.06,1.3-.76Z"/><path class="cls-7" d="M97.06,45.78c-1.59-.48-1.7-2.59-1.77-3.92C95.2,40.21,95,38.94,97,38.22c.27-.1.15-.53-.12-.43-.8.29-1.62.42-2,1.27a7.93,7.93,0,0,0,0,3c.1,1.61.32,3.62,2.09,4.16a.23.23,0,0,0,.12-.43Z"/><path class="cls-7" d="M96.15,44.92a2.06,2.06,0,0,0,3.5.47c1.2-1.5,1-4.17.72-5.93l-.28.28A2.79,2.79,0,0,1,102,41a4.74,4.74,0,0,1,.68,2.12c0,.29.48.29.45,0a5.13,5.13,0,0,0-1-2.65,3.16,3.16,0,0,0-2-1.13c-.18-.05-.3.12-.28.28a14.42,14.42,0,0,1,.06,3.28,4.33,4.33,0,0,1-.52,1.89,1.66,1.66,0,0,1-2.95-.05c-.12-.26-.51,0-.39.23Z"/><path class="cls-7" d="M100.82,40.32l0-.23c0-.29-.47-.29-.45,0a1,1,0,0,0,.07.35c.09.27.53.16.43-.12Z"/><path class="cls-7" d="M96.72,38.31a2.13,2.13,0,0,1,1.84.14.15.15,0,0,0,.15-.26A2.42,2.42,0,0,0,96.64,38c-.18.07-.1.36.08.29Z"/><path class="cls-7" d="M98.85,38.24c-.14-.43-.31-.84-.48-1.25a.53.53,0,0,0-.5-.41c-.26,0-.29.37-.06.44l.1,0c.28.08.4-.35.12-.43l-.1,0-.06.44c.05,0,.18.38.22.45a6.13,6.13,0,0,1,.33.88c.09.27.52.16.43-.12Z"/><path class="cls-7" d="M98.48,37.89a1.75,1.75,0,0,0-.45-.76c-.2-.21-.52.11-.32.32A1.18,1.18,0,0,1,98,38c.08.28.52.16.43-.12Z"/><path class="cls-7" d="M97.35,36.13a4.12,4.12,0,0,1,.6,1c.11.27.5,0,.39-.23a4.62,4.62,0,0,0-.67-1.05c-.18-.23-.5.09-.32.32Z"/><path class="cls-7" d="M87.2,65.2c-3.88,3.9-8.44,7.61-10.78,12.7-.6,1.31,1.34,2.45,1.94,1.14,2.25-4.9,6.69-8.49,10.43-12.24A1.13,1.13,0,0,0,87.2,65.2Z"/><path class="cls-7" d="M75.1,79c.51-.68,1-1.31,1.58-2s1.24-1.15,1.79-1.79c.19-.22-.13-.54-.32-.32-.61.71-1.35,1.27-2,2-.26.31-.55.59-.81.89s-.44.65-.67,1,.22.46.39.23Z"/><path class="cls-7" d="M71.16,82.9A62.79,62.79,0,0,1,76,77.82c.21-.2-.11-.51-.32-.32a62.79,62.79,0,0,0-4.83,5.08c-.19.22.13.54.32.32Z"/><path class="cls-7" d="M69.17,85.09A10.76,10.76,0,0,1,71.11,83c.22-.18-.1-.5-.32-.32a11.14,11.14,0,0,0-2,2.23c-.16.24.22.46.39.23Z"/><path class="cls-7" d="M46.7,105.15c-.35.21-.72.42-1.09.61L46,106a5.17,5.17,0,0,1,0-1.33c.06-.28-.37-.4-.43-.12a5.56,5.56,0,0,0,0,1.45.23.23,0,0,0,.34.19c.37-.19.73-.39,1.09-.61a.23.23,0,0,0-.23-.39Z"/><path class="cls-7" d="M46,105.79a.23.23,0,0,0,0-.45.23.23,0,0,0,0,.45Z"/></g></svg>