<svg xmlns="http://www.w3.org/2000/svg" viewBox="0 0 1000 1000"><defs><style>.cls-1{fill:#999;stroke:#999;stroke-miterlimit:10;}</style></defs><title>pf-greyscale-v2</title><g id="PF_ORIG_NEW_" data-name="PF ORIG (NEW)"><path class="cls-1" d="M207.91,799.92H200.3V732.41h10.36c8.19,0,13.52,5.64,13.52,21,0,14.33-4.51,21.31-12.48,21.31h-3.78Zm0-36.17h1.55c4.51,0,6.94-1.7,6.94-10.48s-2.9-9.94-7.15-9.94h-1.35Z"/><path class="cls-1" d="M263.91,759V732.41h7.62v67.51h-7.62V769.75H249.82v30.17H242.2V732.41h7.62V759Z"/><path class="cls-1" d="M299.29,799.92h-7.62V732.41h7.62Z"/><path class="cls-1" d="M327,788.46h10.77v11.46H319.39V732.41H327Z"/><path class="cls-1" d="M362.74,785.68l-3.21,14.24h-8l15.23-69.3h5.91l14.82,69.3h-8.13l-3-14.24Zm6.58-35.28h-.1l-4.3,24.53h9.27Z"/><path class="cls-1" d="M404.34,732.41h10.88c11.29,0,18.86,14.59,18.86,33.85,0,19-7.77,33.67-18.91,33.67H404.34ZM412,788.46h1.24c9.38,0,13-9,13-22.29,0-14.68-4.35-22.3-13-22.3H412Z"/><path class="cls-1" d="M460,743.87v14.86h12.12v11.46H460v18.27h12.59v11.46h-20.2V732.41h20.2v11.46Z"/><path class="cls-1" d="M499.8,788.46h10.77v11.46H492.19V732.41h7.62Z"/><path class="cls-1" d="M535.18,799.92h-7.61V732.41h10.36c8.18,0,13.52,5.64,13.52,21,0,14.33-4.51,21.31-12.48,21.31h-3.78Zm0-36.17h1.55c4.51,0,6.94-1.7,6.94-10.48s-2.9-9.94-7.15-9.94h-1.35Z"/><path class="cls-1" d="M591.18,759V732.41h7.62v67.51h-7.62V769.75H577.09v30.17h-7.61V732.41h7.61V759Z"/><path class="cls-1" d="M626.56,799.92h-7.61V732.41h7.61Z"/><path class="cls-1" d="M654.63,785.68l-3.21,14.24h-8l15.23-69.3h5.91l14.82,69.3h-8.13l-3-14.24Zm6.58-35.28h-.1l-4.3,24.53h9.27Z"/><path class="cls-1" d="M201,517.5S161.67,545,146.33,560s-36,37-33.67,40.33,59-45,88.33-58Z"/><path class="cls-1" d="M650.5,93.75c-3.25,10.5,2,22.75,2,22.75a2.76,2.76,0,0,1-3.06,2.5c-2.94,0-5.44.5-3.44,3.75s2.5,10-2.75,9.5-17-5.5-13.75,1.5,10,13,5.25,19.25-14.25,6.75-10.75,1.5,9-6.5,1.75-14-12-21.5,1.25-22,10.75-2.75,9.75-9,2-4.75,3.75-5.5-1-11.5,1.5-16.75,11.83-21.5,35.67-41H201V517.5s61-46,99.5-79,72-81.5,97.5-98S471.5,297,560,275c0,0-77,11.33-127,33.67,0,0-77.33,33-212.67,115.67,0,0-9.33-16.67,90.67-74s122-78,288-95.33c0,0,68.67-2.67,25.33,8.67s-130,38-162.67,54-61.33,50-90.67,80.67-52.67,52-32,42,70-34.67,185.33-64.67,22,36,18,30.67,14-19.33,6-18.67-84.67,15.33-172.67,52-75.33,33.33-87.33,44S233,522.33,201,542.33V682l46.24-9.67L289,623l59.33-10L401,537l91.33-3.33L551,458.33l92.67-4.67,34-50.67V63.67S653.75,83.25,650.5,93.75ZM479,247c-6.17,17.83-34.33,11.83-47.17-2.33s-2.33-60,13.5-51,10.91,18.84,7.83,16.83c-7.17-4.67-7.67-4.17-10,2.83s-1.17,14.5,7.33,24.83,17.17,6.17,17-3.83,3-14,7.67-12.33S485.17,229.17,479,247Z"/><path class="cls-1" d="M677.67,63.67V46.25s15.71-15.75,37.46-16.5,48,5.5,57.25,12.25-4.5,9.63-11.25,6.25-21.62-9-44.37-5.37S677.67,63.67,677.67,63.67Z"/><path class="cls-1" d="M721.67,17.17c4,4.73,12.67,8.17,25.5,9.5s44.5,0,44.5,0S790,33.17,795.5,41s17.33,21,11.67,20.17-26.83-5.17-39.5-5-11.33,7.33-15.5,6-7.67-9.5-9.83-11.5S730.67,43.5,734,52.83s-1.33,20,9.33,21.67,8.67-8.83,21.83-9.17,20.33,3,23.17,5.17-.67,6-8.5,2.83-10-4.5-16-2.5-1.5,5,5.83,7.67,20.67,6.83,26.17,5.67,4.33-8.33,1-12,4.5-2.67,7-1,8.83,6.67,13.67,6.33S829.67,71,823,61.67,804.33,44.33,802.33,28s1-16.33-2-16.33-17.17,5-30.67,5.17-40.67-5.33-48-9.67S715.67,10,721.67,17.17Z"/><path class="cls-1" d="M713.67,944.79A13.79,13.79,0,1,1,727.46,931,13.81,13.81,0,0,1,713.67,944.79Zm0-24.58A10.79,10.79,0,1,0,724.46,931,10.8,10.8,0,0,0,713.67,920.21Z"/><path class="cls-1" d="M717.25,936.41a8.19,8.19,0,0,1-3.17.57,5.38,5.38,0,0,1-5.77-5.7c0-3.36,2.3-6,6.23-6a7.06,7.06,0,0,1,2.74.53l-.51,2.12a5,5,0,0,0-2.14-.44,3.63,3.63,0,0,0,0,7.24,5.54,5.54,0,0,0,2.23-.44Z"/><path class="cls-1" d="M216.85,840.47v28.32h21.62v21.84H216.85v56.64H201.93V818.63h38v21.84Z"/><path class="cls-1" d="M265.68,818.63h14.92v72c0,15.87.81,38.22,13.5,38.22s13.5-22.35,13.5-38.22v-72h14.92v76.94c0,31.39-7.92,55.11-28.42,55.11S265.68,927,265.68,895.57Z"/><path class="cls-1" d="M375.12,947.27H360.2V840.47H344.77V818.63h45.78v21.84H375.12Z"/><path class="cls-1" d="M412.78,818.63h14.92v72c0,15.87.81,38.22,13.5,38.22s13.5-22.35,13.5-38.22v-72h14.92v76.94c0,31.39-7.92,55.11-28.42,55.11S412.78,927,412.78,895.57Z"/><path class="cls-1" d="M549.12,947.27H531.05L512.47,895.4h-.2v51.87H497.35V818.63h20.2c15.13,0,25.58,11.26,25.58,38.73,0,16.38-5.38,32.76-15.63,35.66Zm-36.85-69.44h1.93c8.22,0,14-4.09,14-19.79,0-15.87-6-18.94-13.91-18.94h-2Z"/><path class="cls-1" d="M586.08,840.47v28.32h23.75v21.84H586.08v34.8h24.67v21.84H571.15V818.63h39.59v21.84Z"/><path class="cls-1" d="M673.89,847c-2.84-6.48-6.5-10.58-11.47-10.58-4.77,0-9.34,6.14-9.34,14.5,0,21.67,30.35,12.63,30.35,55.79,0,25.76-9.54,44-25.18,44-10.56,0-18.27-10.24-23.55-25.08l9.64-15.87c2,9.9,7.41,18.77,13.81,18.77,6.09,0,9.85-8.7,9.85-18.6,0-13.31-7.31-17.06-13.3-21-9.85-6.82-17.05-15.18-17.05-35.15,0-21.33,9.44-38.56,22.33-38.56,6.8,0,16.24,5.63,20.91,14.33Z"/></g></svg>