<svg xmlns="http://www.w3.org/2000/svg" viewBox="0 0 1000 1000"><defs><style>.cls-1{fill:#f2f2f2;}.cls-2{fill:#e6e6e6;}</style></defs><title>step-greyscale</title><g id="step-greyscale"><path class="cls-1" d="M55.58,449.33l4.75-7.09h3.62l.46,27.45H59.82Q56.24,457.87,49.66,452a21.34,21.34,0,0,0-14.54-5.88,15.75,15.75,0,0,0-11,3.89,12.18,12.18,0,0,0-4.26,9.31,10.89,10.89,0,0,0,1.68,5.9,13.26,13.26,0,0,0,5.43,4.59q3.75,1.91,13.12,3.94,11,2.41,15.15,4.34a23.22,23.22,0,0,1,10,8.24,22.47,22.47,0,0,1,3.32,12.49q0,11-7.19,17.56-8.67,7.89-21.48,7.89-11.79,0-21.53-8.65l-6,7.84H8.54V494H13q6.68,25.19,27.11,25.19,8.36,0,13-4.05A12.88,12.88,0,0,0,57.78,505a12,12,0,0,0-2-7.11,14.09,14.09,0,0,0-6.32-4.64,98.12,98.12,0,0,0-11.62-3.06q-12.49-2.9-17.81-6a20.28,20.28,0,0,1-7.83-7.57,22.13,22.13,0,0,1-2.5-10.92q0-10.84,6.91-17.69t18.55-6.84Q46.3,441.22,55.58,449.33Z"/><path class="cls-1" d="M93.39,451.69h4.54v20.68H113.7v5.8H97.93v32A7.2,7.2,0,0,0,99.47,515a5.14,5.14,0,0,0,4,1.75q7.17,0,7.58-14h4.54q-.15,7.47-2.25,12a15.8,15.8,0,0,1-14.8,9.48,14.51,14.51,0,0,1-7.42-1.83,13,13,0,0,1-5-5.45,17,17,0,0,1-1.86-7.87V478.17H75.84v-4.94q7.78-1.07,12.13-6.28T93.39,451.69Z"/><path class="cls-1" d="M172.53,497.83H139.06q.15,10.58,4,15.6a12.12,12.12,0,0,0,10,5,14.87,14.87,0,0,0,8.3-2.58q3.92-2.58,8-9.35l3.72,2.42q-4.34,8.06-9.92,11.52a25.41,25.41,0,0,1-13.65,3.46q-11.74,0-19-7.52t-7.25-19.28q0-11.76,7.3-19.66a23.44,23.44,0,0,1,17.91-7.9,24.09,24.09,0,0,1,12.63,3.17,21.19,21.19,0,0,1,8.22,9.26Q172.38,488.11,172.53,497.83Zm-33.47-4.89H155a3.92,3.92,0,0,0,3.21-1.18q1-1.18,1-4.3,0-6.23-2.7-9.64a8.39,8.39,0,0,0-6.87-3.41A8.26,8.26,0,0,0,142,479Q139.42,483.65,139.06,492.94Z"/><path class="cls-1" d="M183.09,472.64l19.44-1.29a50.81,50.81,0,0,1,1.38,9.73,22.05,22.05,0,0,1,7.73-7.89,20.13,20.13,0,0,1,10.49-2.81,18.45,18.45,0,0,1,15,6.94q5.71,6.94,5.71,19.62A36.37,36.37,0,0,1,240,511.89a20.54,20.54,0,0,1-7.68,9.25,21.05,21.05,0,0,1-11.51,3.12,17.52,17.52,0,0,1-9.34-2.5,24.69,24.69,0,0,1-7.6-8v18a12.31,12.31,0,0,0,.51,4.54,3.27,3.27,0,0,0,1.91,1.5,20.32,20.32,0,0,0,5.59.56v5.16H183.09v-5.16h1.53a8.51,8.51,0,0,0,3.62-.51,3.37,3.37,0,0,0,1.43-1.75,15.34,15.34,0,0,0,.36-4.35V484.13a13.6,13.6,0,0,0-.51-4.65,3.23,3.23,0,0,0-1.56-1.67,15.53,15.53,0,0,0-4.87-.67Zm32.66,5.21q-4.95,0-8.42,5t-3.47,14.65q0,9.53,3.65,14.6t8.34,5.06q4.59,0,7.4-4.36,3.67-5.76,3.67-15.51,0-8.94-3-14.19T215.75,477.85Z"/><path class="cls-1" d="M252.8,472.64l19.44-1.29a50.81,50.81,0,0,1,1.38,9.73,22.05,22.05,0,0,1,7.73-7.89,20.13,20.13,0,0,1,10.49-2.81,18.45,18.45,0,0,1,15,6.94q5.71,6.94,5.71,19.62a36.37,36.37,0,0,1-2.75,14.95,20.54,20.54,0,0,1-7.68,9.25,21.05,21.05,0,0,1-11.51,3.12,17.52,17.52,0,0,1-9.34-2.5,24.69,24.69,0,0,1-7.6-8v18a12.31,12.31,0,0,0,.51,4.54,3.27,3.27,0,0,0,1.91,1.5,20.32,20.32,0,0,0,5.59.56v5.16H252.8v-5.16h1.53a8.51,8.51,0,0,0,3.62-.51,3.37,3.37,0,0,0,1.43-1.75,15.34,15.34,0,0,0,.36-4.35V484.13a13.6,13.6,0,0,0-.51-4.65,3.23,3.23,0,0,0-1.56-1.67,15.53,15.53,0,0,0-4.87-.67Zm32.66,5.21q-4.95,0-8.42,5t-3.47,14.65q0,9.53,3.65,14.6t8.34,5.06q4.59,0,7.4-4.36,3.67-5.76,3.67-15.51,0-8.94-3-14.19T285.45,477.85Z"/><path class="cls-1" d="M323.31,472.37l21.23-1V514a3.38,3.38,0,0,0,1,2.66,4.65,4.65,0,0,0,3.19.94H352v5H323.31v-5h3.16a4.5,4.5,0,0,0,3.6-1.24q1-1.23,1-4.3V483a5.74,5.74,0,0,0-1.51-4.24,5.62,5.62,0,0,0-4.16-1.5h-2.14Zm13.11-29a7.85,7.85,0,0,1,5.87,2.55,9.08,9.08,0,0,1,0,12.41,8.05,8.05,0,0,1-11.79,0,9,9,0,0,1,0-12.38A7.91,7.91,0,0,1,336.43,443.37Z"/><path class="cls-1" d="M424.85,517.65v5H396.13v-5h3a4.6,4.6,0,0,0,3.57-1.29,5.4,5.4,0,0,0,1.17-3.76V490.79q0-5.59-2.41-8.57a7.74,7.74,0,0,0-6.32-3,10.58,10.58,0,0,0-8.68,4.22q-3.35,4.22-3.35,12.33V512.6a5.33,5.33,0,0,0,1.2,3.76,4,4,0,0,0,3.09,1.29H391v5H361.17v-5h3.88a4.31,4.31,0,0,0,3.39-1.29,5.48,5.48,0,0,0,1.15-3.76V482.68a5.33,5.33,0,0,0-1.66-4.11,6.18,6.18,0,0,0-4.36-1.53h-2v-4.67l20-1.13a80.72,80.72,0,0,1,1.63,11,31.66,31.66,0,0,1,8.9-8.92,18.54,18.54,0,0,1,10-3,13.8,13.8,0,0,1,11.24,5q4.07,5,4.07,13.91V512.6a5.34,5.34,0,0,0,1.17,3.87,5.07,5.07,0,0,0,3.73,1.18Z"/><path class="cls-1" d="M472.12,472.37q6.13-7.68,12.17-7.68a6.56,6.56,0,0,1,4.91,1.88A6.63,6.63,0,0,1,491,471.4a6.12,6.12,0,0,1-1.41,4.22,4.54,4.54,0,0,1-3.55,1.58q-3,0-4.34-3.38-.82-2-1.94-2-1.43,0-3.88,3.2,5.53,5.85,5.53,12.34a16.6,16.6,0,0,1-2.6,9.12,17.79,17.79,0,0,1-7.88,6.49,31.73,31.73,0,0,1-13.19,2.41l-5.46-.11q-6.07,0-8.21,1.28a3.78,3.78,0,0,0-2.19,3.31,2.87,2.87,0,0,0,1.38,2.62q1.79,1.17,5.71,1.17l4.69-.16q7.6-.43,11.17-.43,11.89,0,16.53,3.55a11.7,11.7,0,0,1,4.64,9.85,15.13,15.13,0,0,1-5.36,12.11q-6.53,5.6-22.81,5.6-13.88,0-19.49-3.39t-5.61-8a6.54,6.54,0,0,1,2.4-5q2.4-2.15,10.15-4a14.77,14.77,0,0,1-7.6-3.65,9.06,9.06,0,0,1-2.55-6.66,10.25,10.25,0,0,1,1.91-6.29q1.91-2.58,6.86-4.56a19.83,19.83,0,0,1-7.07-6.39,15.28,15.28,0,0,1-2.37-8.43,16.84,16.84,0,0,1,2.6-9.2,17.79,17.79,0,0,1,8-6.55,31.84,31.84,0,0,1,13.15-2.44,36.12,36.12,0,0,1,7.14.7A34.31,34.31,0,0,1,472.12,472.37Zm5.85,59q0-3.17-3.37-4.62-2.3-1-10.21-1-14.29,0-18.42,2t-4.13,5.1q0,2.9,3.21,4.86t12.19,2q11.69,0,16.84-2.85Q478,534.67,478,531.4Zm-20-57.09q-3.51,0-6,3.46t-2.52,10q0,6.28,2.49,9.61a7.2,7.2,0,0,0,12.21-.11q2.54-3.44,2.54-9.67t-2.54-9.78A7.45,7.45,0,0,0,457.94,474.3Z"/><path class="cls-1" d="M529.48,473.87l3.34-4.24h3.11l1,17.19h-4.13q-3.27-6.85-7.17-9.63a15.9,15.9,0,0,0-9.47-2.78q-4.8,0-7.3,1.94a6,6,0,0,0-2.5,4.9,5.25,5.25,0,0,0,1.94,4.42q1.94,1.56,10.61,3.39a66.29,66.29,0,0,1,10.46,2.8,16.59,16.59,0,0,1,10.51,15.91,15.12,15.12,0,0,1-5.33,11.74q-5.33,4.75-14,4.75a25.63,25.63,0,0,1-7.57-1,25,25,0,0,1-7.06-3.68L502.31,524h-3.88l-.92-19h4.24q5.41,14.4,18.57,14.39,5.41,0,8.27-2.21a6.5,6.5,0,0,0,2.86-5.27,5.16,5.16,0,0,0-1.79-4.25q-1.79-1.45-9.49-3.12a71.54,71.54,0,0,1-11.33-3.06,16.86,16.86,0,0,1-7.76-5.82,15.32,15.32,0,0,1-2.6-9,16.78,16.78,0,0,1,4.75-12.32q4.75-4.8,12.72-4.8a23.31,23.31,0,0,1,7,1A25.3,25.3,0,0,1,529.48,473.87Z"/><path class="cls-1" d="M563.64,451.69h4.54v20.68H584v5.8H568.19v32a7.2,7.2,0,0,0,1.54,4.92,5.14,5.14,0,0,0,4,1.75q7.17,0,7.58-14h4.54q-.15,7.47-2.25,12a15.8,15.8,0,0,1-14.8,9.48,14.51,14.51,0,0,1-7.42-1.83,13,13,0,0,1-5-5.45,17,17,0,0,1-1.86-7.87V478.17h-8.47v-4.94q7.78-1.07,12.13-6.28T563.64,451.69Z"/><path class="cls-1" d="M619.82,469.58a30.29,30.29,0,0,1,14.72,3.65,24.34,24.34,0,0,1,10,9.53,28.75,28.75,0,0,1,3.27,14.15q0,13.21-8.55,20.28a29.58,29.58,0,0,1-19.36,7.06,27.77,27.77,0,0,1-14-3.62,25.23,25.23,0,0,1-9.77-9.78A28.09,28.09,0,0,1,592.68,497a26.76,26.76,0,0,1,7.73-19.52A26.09,26.09,0,0,1,619.82,469.58Zm.31,5.1q-5.31,0-8.45,4.92t-3.14,17.27q0,12.84,3.11,17.7a9.56,9.56,0,0,0,8.42,4.86q5.41,0,8.72-5t3.32-17.24q0-12.57-3.27-17.54A10,10,0,0,0,620.13,474.68Z"/><path class="cls-1" d="M720.85,517.65v5H692.13v-5h3a4.6,4.6,0,0,0,3.57-1.29,5.4,5.4,0,0,0,1.17-3.76V490.79q0-5.59-2.41-8.57a7.74,7.74,0,0,0-6.32-3,10.58,10.58,0,0,0-8.68,4.22q-3.35,4.22-3.35,12.33V512.6a5.33,5.33,0,0,0,1.2,3.76,4,4,0,0,0,3.09,1.29H687v5H657.17v-5h3.88a4.31,4.31,0,0,0,3.39-1.29,5.48,5.48,0,0,0,1.15-3.76V482.68a5.33,5.33,0,0,0-1.66-4.11,6.18,6.18,0,0,0-4.36-1.53h-2v-4.67l20-1.13a80.72,80.72,0,0,1,1.63,11,31.66,31.66,0,0,1,8.9-8.92,18.54,18.54,0,0,1,10-3,13.8,13.8,0,0,1,11.24,5q4.07,5,4.07,13.91V512.6a5.34,5.34,0,0,0,1.17,3.87,5.07,5.07,0,0,0,3.73,1.18Z"/><path class="cls-1" d="M778.21,497.83H744.73q.15,10.58,4,15.6a12.12,12.12,0,0,0,10,5,14.87,14.87,0,0,0,8.3-2.58q3.92-2.58,8-9.35l3.72,2.42q-4.34,8.06-9.92,11.52a25.41,25.41,0,0,1-13.65,3.46q-11.74,0-19-7.52t-7.25-19.28q0-11.76,7.3-19.66a23.44,23.44,0,0,1,17.91-7.9,24.09,24.09,0,0,1,12.63,3.17,21.19,21.19,0,0,1,8.22,9.26Q778.05,488.11,778.21,497.83Zm-33.47-4.89h15.93a3.92,3.92,0,0,0,3.21-1.18q1-1.18,1-4.3,0-6.23-2.7-9.64a8.39,8.39,0,0,0-6.87-3.41,8.26,8.26,0,0,0-7.56,4.62Q745.09,483.65,744.73,492.94Z"/><path class="cls-1" d="M141.48,604.72a16.08,16.08,0,0,0-3.9-5,12,12,0,0,0-7.5-2.3c-6.6,0-11.2,4.1-11.2,10.3a7,7,0,0,0,2.5,5.8,21.76,21.76,0,0,0,7,4.2l6.4,2.8c3.9,1.7,7.5,3.5,10.3,6.3a16.06,16.06,0,0,1,4.8,12.1c0,12.3-9.1,20.5-21.1,20.5-4.4,0-9.9-.9-14.5-5.4a24.19,24.19,0,0,1-6.2-11.8l7.2-2a15.74,15.74,0,0,0,4,8.5,12.75,12.75,0,0,0,9.6,3.7c9.1,0,13.4-6.5,13.4-13.2a10,10,0,0,0-3.3-7.8c-1.9-1.8-4.5-3-8-4.6l-6-2.8a29.54,29.54,0,0,1-8.9-5.5,13.85,13.85,0,0,1-4.6-10.9c0-10.3,7.9-17.2,18.7-17.2a18.07,18.07,0,0,1,10.7,3,20.17,20.17,0,0,1,6.5,7.4Z"/><path class="cls-1" d="M232.28,606.22a32.84,32.84,0,0,0-8.7-6.2,28.41,28.41,0,0,0-11.5-2.6c-15.4,0-26.8,12.4-26.8,27.8,0,18.1,14.7,27.2,26.9,27.2a27.73,27.73,0,0,0,12.4-3.1,30.35,30.35,0,0,0,7.7-5.6v9.2a34.73,34.73,0,0,1-20.1,6.5c-19.8,0-34.5-15-34.5-34.3,0-19.9,14.9-34.7,34.9-34.7a31.44,31.44,0,0,1,19.7,6.6Z"/><path class="cls-1" d="M271.07,618.62h34.2v-27.1h7.4v66.7h-7.4v-32.6h-34.2v32.6h-7.4v-66.7h7.4Z"/><path class="cls-1" d="M344.07,624.92c0-19.9,15.5-34.5,34.7-34.5s34.7,14.6,34.7,34.5-15.4,34.5-34.7,34.5S344.07,644.72,344.07,624.92Zm7.6,0a27.1,27.1,0,1,0,27.1-27.5A27.21,27.21,0,0,0,351.67,624.92Z"/><path class="cls-1" d="M452.27,591.52v59.7h18.4v7h-25.8v-66.7Z"/><path class="cls-1" d="M535.27,639.42h-28.4l-8,18.8h-8.2l30.7-69.9,29.9,69.9h-8.2Zm-2.9-7-11.2-26.7-11.4,26.7Z"/><path class="cls-1" d="M589.17,591.52c4.5,0,11.2.3,16.2,3.7,3.9,2.6,7.3,7.7,7.3,14.8,0,10.2-6.7,17.7-16.8,18.4l21.2,29.8h-9L587.77,629h-1.9v29.2h-7.4v-66.7Zm-3.3,30.9h4.7c9.2,0,14.7-4.4,14.7-12.2,0-3.7-1.1-7.4-5.3-9.8-3-1.7-6.4-1.9-9.6-1.9h-4.5Z"/><path class="cls-1" d="M676.27,604.72a16.08,16.08,0,0,0-3.9-5,12,12,0,0,0-7.5-2.3c-6.6,0-11.2,4.1-11.2,10.3a7,7,0,0,0,2.5,5.8,21.76,21.76,0,0,0,7,4.2l6.4,2.8c3.9,1.7,7.5,3.5,10.3,6.3a16.06,16.06,0,0,1,4.8,12.1c0,12.3-9.1,20.5-21.1,20.5-4.4,0-9.9-.9-14.5-5.4a24.18,24.18,0,0,1-6.2-11.8l7.2-2a15.74,15.74,0,0,0,4,8.5,12.75,12.75,0,0,0,9.6,3.7c9.1,0,13.4-6.5,13.4-13.2a10,10,0,0,0-3.3-7.8c-1.9-1.8-4.5-3-8-4.6l-6-2.8a29.54,29.54,0,0,1-8.9-5.5,13.85,13.85,0,0,1-4.6-10.9c0-10.3,7.9-17.2,18.7-17.2a18.07,18.07,0,0,1,10.7,3,20.17,20.17,0,0,1,6.5,7.4Z"/><path class="cls-1" d="M716.67,648.42l6.6,2.4-10.1,22.6-4.7-1.9Z"/><path class="cls-1" d="M819.87,591.52v66.7h-7.4v-66.7Z"/><path class="cls-1" d="M853.86,616.72h7.2v4.8a14.64,14.64,0,0,1,11.9-5.8c4.9,0,9.4,2,11.9,5.7,2.1,3.1,2.4,6.5,2.4,11.1v25.7h-7.2v-25.5c0-2.5-.2-5.4-1.9-7.6a8.14,8.14,0,0,0-6.8-3,9.08,9.08,0,0,0-7.3,3.2c-2.8,3.3-3,8.2-3,11.2v21.7h-7.2Z"/><path class="cls-1" d="M952,628.32a16.74,16.74,0,0,0-13-6.2c-7.7,0-14.7,5.4-14.7,15.5s7.2,15.4,14.6,15.4a17.69,17.69,0,0,0,13.4-6.5v8.6a22.16,22.16,0,0,1-13.2,4.3c-12.9,0-22.2-9.2-22.2-21.7,0-12.7,9.4-22,22.2-22a22,22,0,0,1,12.9,4Z"/><path class="cls-1" d="M986.46,649.22a5,5,0,1,1-5,5A5.08,5.08,0,0,1,986.46,649.22Z"/><path class="cls-2" d="M108.21,388.61l62-62,62,62Z"/></g></svg>